<?xml version="1.0" encoding="utf-8"?>
<!-- Generator: Adobe Illustrator 28.2.0, SVG Export Plug-In . SVG Version: 6.00 Build 0)  -->
<svg version="1.1" id="Layer_1" xmlns="http://www.w3.org/2000/svg" xmlns:xlink="http://www.w3.org/1999/xlink" x="0px" y="0px"
	 viewBox="0 0 819.5 182" style="enable-background:new 0 0 819.5 182;" xml:space="preserve">
<style type="text/css">
	.st0{fill-rule:evenodd;clip-rule:evenodd;fill:#FFFFFF;}
	.st1{fill:#FFFFFF;}
	.st2{fill:#777777;}
</style>
<g>
	<g>
		<path class="st0" d="M1316.4-669.3c5.8,2.4,9.1,8.3,7.8,16.1c-4.6,26.2-99.8,114-103.6,114c0,0-17.1-16.3-17.4-16.6
			c-0.8-0.4,38.5-30.2,71.1-72.5C1295.7-655.7,1301.8-675.6,1316.4-669.3z M1311.5-637.5c4-6.2-10.3,3.1-13.9-13.3
			c-1-3-2,5.3,3.5,9.8c2.5,1.9,2.6,0.9,1.7,1.8c-24.1,25.5-103.5,107.4-78.1,83.5c60.4-55.3,79.4-83.2,80.7-83.2
			c3.6,1.1,3.4,0.9-2.2,7.7c-44.2,53.3-85.6,84.8-82.5,85.6C1224.1-544.8,1298.4-616.3,1311.5-637.5z M1172.7-574.6
			c-12.7-10.7,15.9,15.6,19.3,19.1c5,5.3,5.2,8.1,0.1,3.7c-29.1-24.6-30.7-30.7-43.9-44.2c-18.9-19-81.2-76.1-40.8-38.1
			c37.2,34.4,49.2,50.6,56.1,58.7c17.5,20.7,30.5,26.8,30,30c-0.2,0.7-0.4,1.5-1.2,1.2c-1.3-0.3-11.2-7.9-13-9.4
			c-18.9-16.3-25.3-31.3-62-67.7c-35.1-35.1-31.8-25.4-23.7-38.2c2-3.7-4.8,2.6-7,6.1c-4.2,6.2,2.5,6.9,19.9,24.2
			c57.5,57.1,46.3,57.4,85.7,89.2c8.3,6.7-1.9-2.8,7-7.2C1203-548.9,1208.6-544.8,1172.7-574.6z M1113.7-653.8
			c33.6,31.9,68.6,67.3,58.1,54.9c-8.3-9.5-66.6-68.3-69.9-68.9c-1.1,0-4.5,3.6-5.2,4.4c97.1,97.9,96.6,91.9,26.6,24.4
			c-65.4-63.5,35.4,31.3,50.3,47c0.7-2.7,0.3-1.9-7.5-9.6C1164.7-601.7,1071-694.5,1113.7-653.8z M1316.7-651
			c-1.8,8.7-15,7.6-15-1.7c0-4.6,4.2-8.2,9.1-7.4c-5.6-1.7-11.3,2.3-11.3,8.2C1299.5-640.8,1315.8-640.1,1316.7-651L1316.7-651z
			 M1311.1-644.4c-8.5,3-14.4-7.2-8.5-13C1298.8-652.3,1302.3-643.2,1311.1-644.4z M1303.3-652.6c0,8,12,8.2,12,0
			C1315.4-660.6,1303.3-660.5,1303.3-652.6L1303.3-652.6z M1313.8-652.6c0,6.1-9.1,6-9,0C1304.8-658.5,1313.9-658.6,1313.8-652.6
			L1313.8-652.6z M1204.5-544.6c-3-3-8.8-0.3-7.1,4.8C1195.6-539.8,1199.5-548.4,1204.5-544.6z M1199.4-540.9c0,3.3,4.9,3.3,5,0
			C1204.4-544.1,1199.4-544.1,1199.4-540.9L1199.4-540.9z M1197.7-540.9c0-6.4,10.1-4.6,8.2,0.8c2.6-6.5-9.2-8.9-9.2-1.5
			c0,2.5,1.8,4.5,4.2,4.7C1198-537.4,1197.5-540.9,1197.7-540.9z M1201.9-544.1c4.5,0,4.4,6.7,0,6.6
			C1197.6-537.5,1197.5-544.2,1201.9-544.1z M1171.2-581c26.2,26.4,69.2,57.7,63.1,72.3c-0.5,1.2-1.3,2.6-2.6,3.1
			c0,0-2.9,1.1-4.9,0.5c-8.6-2,1.7-19.9-17-22.9c-5.5-1-6.3,0.4-10.5-3.2c-23.3-20.3-28.1-23.4-42.2-39.1
			c-68.2-80.5-76.5-71.5-74.3-80.8c1-4.1,14.6-21.1,19.6-20.3c3.2,0.3,16.6,13.8,33.7,30.7c42,42,41.6,41.4,41.3,47.8
			C1177.1-585.7,1170.4-581,1171.2-581z M1204.6-525.4c-3,2.6-7.4,6.2-10.7,7.2c-10.3,3.1-20.6-10.6-11.3-21
			C1185.9-542.4,1196.6-525.4,1204.6-525.4z"/>
	</g>
</g>
<g>
	<g>
		<g>
			<path class="st1" d="M914.1-348h32.4l-35.2,107.3h-34.1l-35-107.3h32.6l14.6,54.4c3,12.1,4.7,20.5,5,25.2c0.3-3.4,1-7.7,2.1-12.8
				c1-5.1,1.9-9.2,2.7-12.1L914.1-348z"/>
			<path class="st1" d="M1065.2-279.8v39h-29V-348h35.2c29.2,0,43.7,10.6,43.7,31.7c0,12.4-6.1,22-18.2,28.8l31.3,46.8h-32.9
				l-22.8-39H1065.2z M1065.2-301.6h5.4c10.1,0,15.2-4.5,15.2-13.4c0-7.4-5-11.1-14.9-11.1h-5.7V-301.6z"/>
			<path class="st1" d="M1185.3-240.7h-29v-83.6h-26.2V-348h81.3v23.7h-26.1V-240.7z"/>
			<path class="st1" d="M1318-348v64.6c0,14-4,24.9-11.9,32.6c-8,7.7-19.4,11.6-34.4,11.6c-14.6,0-25.9-3.7-33.7-11.2
				c-7.9-7.5-11.8-18.3-11.8-32.3V-348h29.1v63c0,7.6,1.4,13.1,4.3,16.5c2.8,3.4,7,5.1,12.6,5.1c5.9,0,10.2-1.7,12.9-5.1
				c2.7-3.4,4-9,4-16.7V-348H1318z"/>
			<path class="st1" d="M1440.9-294.5c0,18.1-4.4,31.8-13.3,41.2c-8.9,9.4-21.8,14.1-38.9,14.1c-16.8,0-29.7-4.7-38.7-14.2
				c-9-9.4-13.5-23.2-13.5-41.2c0-17.9,4.5-31.5,13.4-40.9c8.9-9.4,21.9-14.1,38.9-14.1c17.1,0,30,4.7,38.8,14
				C1436.5-326.4,1440.9-312.6,1440.9-294.5z M1367.1-294.5c0,20.7,7.2,31.1,21.7,31.1c7.3,0,12.8-2.5,16.3-7.6
				c3.5-5,5.3-12.9,5.3-23.6c0-10.7-1.8-18.6-5.4-23.7c-3.6-5.1-9-7.7-16.1-7.7C1374.4-325.9,1367.1-315.5,1367.1-294.5z"/>
			<path class="st1" d="M1530.5-273.3c0,6.7-1.7,12.6-5.1,17.7c-3.4,5.2-8.2,9.2-14.6,12s-13.8,4.3-22.4,4.3c-7.1,0-13.1-0.5-18-1.5
				c-4.8-1-9.9-2.8-15.1-5.2v-25.8c5.5,2.8,11.3,5.1,17.2,6.6c6,1.6,11.5,2.4,16.4,2.4c4.3,0,7.5-0.7,9.5-2.2c2-1.5,3-3.4,3-5.8
				c0-1.5-0.4-2.8-1.2-3.9c-0.8-1.1-2.1-2.2-3.9-3.3c-1.8-1.1-6.5-3.4-14.3-6.9c-7-3.2-12.2-6.3-15.7-9.2c-3.5-3-6.1-6.4-7.8-10.3
				c-1.7-3.9-2.5-8.4-2.5-13.7c0-9.9,3.6-17.6,10.8-23.1c7.2-5.5,17.1-8.3,29.7-8.3c11.1,0,22.4,2.6,34,7.7l-8.9,22.4
				c-10-4.6-18.7-6.9-26-6.9c-3.8,0-6.5,0.7-8.2,2s-2.6,3-2.6,4.9c0,2.1,1.1,4,3.3,5.7c2.2,1.7,8.1,4.7,17.7,9.1
				c9.2,4.2,15.7,8.6,19.3,13.4C1528.7-286.6,1530.5-280.6,1530.5-273.3z"/>
			<path class="st1" d="M1647.5-294.5c0,18.1-4.4,31.8-13.3,41.2c-8.9,9.4-21.8,14.1-38.9,14.1c-16.8,0-29.7-4.7-38.7-14.2
				c-9-9.4-13.5-23.2-13.5-41.2c0-17.9,4.5-31.5,13.4-40.9c8.9-9.4,21.9-14.1,38.9-14.1c17.1,0,30,4.7,38.8,14
				C1643.1-326.4,1647.5-312.6,1647.5-294.5z M1573.6-294.5c0,20.7,7.2,31.1,21.7,31.1c7.3,0,12.8-2.5,16.3-7.6
				c3.5-5,5.3-12.9,5.3-23.6c0-10.7-1.8-18.6-5.4-23.7c-3.6-5.1-9-7.7-16.1-7.7C1580.9-325.9,1573.6-315.5,1573.6-294.5z"/>
		</g>
	</g>
	<g>
		<path class="st1" d="M990.5-223.6c9.7,0,17.6-7.3,18.7-16.7h-37.4C972.9-230.9,980.8-223.6,990.5-223.6z"/>
		<path class="st1" d="M1016-256.4h-3.2v-75.3h3.2v-15.8h-10.2c-2.1-2.5-4.3-6.4-5.1-11.1c0,0-0.1,0-0.1,0.1
			c5.3-3.3,8.8-9.2,8.8-15.9c0-10.4-8.4-18.8-18.8-18.8c-10.4,0-18.8,8.4-18.8,18.8c0,6.7,3.5,12.7,8.9,16c-0.1,0-0.1-0.1-0.2-0.1
			c-0.8,4.7-3.1,8.5-5.1,11.1H965v15.8h3.2v75.3H965v15.8h51.1V-256.4z M990.5-355.6C990.5-355.6,990.6-355.6,990.5-355.6
			C990.6-355.6,990.5-355.6,990.5-355.6C990.5-355.6,990.5-355.6,990.5-355.6C990.5-355.6,990.5-355.6,990.5-355.6z M988.3-390.9
			c1,0,1.9,0.8,1.9,1.9c0,1-0.8,1.9-1.9,1.9c-1,0-1.9-0.8-1.9-1.9C986.4-390,987.2-390.9,988.3-390.9z M978.3-374.5
			c0,1-0.8,1.8-1.8,1.8s-1.8-0.8-1.8-1.8c0-5.6,2.8-10.7,7.6-13.6c0.8-0.5,1.9-0.3,2.4,0.6c0.5,0.8,0.3,1.9-0.6,2.4
			C980.5-382.8,978.3-378.8,978.3-374.5z M974.4-309.9l32.1-7.8v12.4l-32.1,7.8V-309.9z M974.4-284.8l32.1-7.8v12.4l-32.1,7.8
			V-284.8z M971.2-341.3h38.6v3.3h-38.6V-341.3z M1006.6-331.7v1.3l-32.1,7.8v-9H1006.6z M974.4-259.6l32.1-7.8v11h-32.1V-259.6z
			 M1009.8-246.8h-38.6v-3.2h38.6V-246.8z"/>
	</g>
</g>
<path class="st1" d="M1382.5-225.9h-10.7c-6.7,0-10,3.7-10,11.3v34.4c0,7.5,3.3,11.6,10,12.3c3.5,0.4,7.1,0.8,10.7,1.3
	c6.7,0.9,10-2.6,10-10.6v-36.6C1392.5-221.9,1389.2-225.9,1382.5-225.9z M1381.2-177.1c0,0.5-0.2,0.9-0.4,1.2
	c-0.3,0.3-0.7,0.5-1.1,0.4c-1.7-0.2-3.4-0.3-5-0.5c-0.4,0-0.8-0.3-1.1-0.6c-0.3-0.4-0.4-0.8-0.4-1.3v-38c0-0.5,0.2-0.9,0.4-1.2
	c0.3-0.3,0.7-0.5,1.1-0.5c1.7,0,3.4,0.1,5,0.1c0.4,0,0.8,0.2,1.1,0.6c0.3,0.4,0.4,0.8,0.4,1.2V-177.1z M1342.5-225.1v22.6
	c-3-0.1-6-0.2-8.9-0.2v-22.4h-11.3v52.9c3.7,0.2,7.5,0.3,11.3,0.5v-21c3,0.1,5.9,0.2,8.9,0.3v21.1c3.7,0.3,7.5,0.5,11.3,0.8v-54.6
	C1350-225.1,1346.2-225.1,1342.5-225.1z M1304.9-204.5c-2.4,0-4.8,0-7.2,0c-0.4,0-0.8-0.2-1.1-0.5c-0.3-0.3-0.5-0.8-0.4-1.3
	c0-3,0-6,0-9c0-0.5,0.1-0.9,0.4-1.3c0.3-0.3,0.7-0.5,1.1-0.5c1.5,0,2.9,0,4.4,0c0.4,0,0.8,0.2,1,0.5c0.8,0.9,0.4,2.2-0.5,3.5
	c0.5,1,0.4,0.8,0.9,1.8c3.6,0,7.2,0,10.8,0.1v-3.9c0-7.2-3.3-10.7-10-10.7h-8.9c-6.6,0-10,3.5-10,10.6v10.4c0,7.1,3.3,10.6,10,10.7
	c2.4,0,4.8,0,7.3,0.1c0.4,0,0.8,0.2,1.1,0.5c0.3,0.4,0.5,0.9,0.4,1.4c0,3.2,0,6.3,0,9.6c0.1,0.6,0,1.1-0.4,1.6
	c-0.3,0.3-0.7,0.5-1.1,0.5c-1.7,0-3.3,0-5-0.1c-0.4,0-0.8-0.2-1.1-0.5c-0.9-1-0.4-2.5,1-3.9c-0.9-2-0.5-1.1-1.4-3
	c-3.6,0-7.2,0-10.7-0.1v5.4c0,7.1,3.3,10.6,10,10.7c3.1,0,6.3,0.1,9.5,0.2c6.7,0.1,10-3.4,10-10.7v-11
	C1314.9-200.7,1311.6-204.4,1304.9-204.5z M1278.2-208.2v-6.3c0-7.1-3.3-10.6-10-10.6h-20.1v52.1h11.3v-21.3h5.4
	c1,0,1.5,0.5,1.5,1.6v19.7c3.7,0,7.5,0,11.2,0v-20.6c0-3.4-1.3-5.6-4-6.6C1276.6-201.4,1278.1-204.1,1278.2-208.2z M1266.4-202.7
	c-0.3,0.3-0.7,0.5-1.1,0.5h-5.9v-15.2h5.9c0.4,0,0.8,0.2,1.1,0.5c0.3,0.4,0.5,0.8,0.4,1.3c0,3.8,0,7.5,0,11.4
	C1267-203.7,1266.8-203.2,1266.4-202.7z M1241.6-215.9v-9.2h-23.8v52.2c7.9,0,15.8,0,23.8,0v-9.3h-12.5v-12.5h11.7v-8.9h-11.7v-12.2
	H1241.6z M1204.9-201.5c3-1.2,4.6-3.9,4.6-8.2v-4.8c0-7.1-3.3-10.7-10-10.7c-6.7,0-13.4,0-20.1,0v52.7c6.9-0.2,13.8-0.3,20.7-0.4
	c6.6-0.1,9.9-3.5,10-10.4v-9.3C1210.2-197.3,1208.4-200.2,1204.9-201.5z M1190.7-217.4c2,0,4,0,6,0c0.4,0,0.8,0.2,1.1,0.5
	c0.6,0.6,0.6,1.3,0.2,2.3c0,3.1,0.1,5.8,0.1,8.9c0.2,0.7,0.1,1.3-0.3,1.8c-0.3,0.3-0.7,0.5-1.1,0.5c-2,0-4,0-6,0V-217.4z
	 M1198.4-181.1c-0.3,0.3-0.7,0.5-1.1,0.5c-2.2,0-4.4,0.1-6.6,0.1v-15c2.2,0,4.4,0,6.6-0.1c0.4,0,0.8,0.2,1.1,0.5
	c0.5,0.6,0.6,1.4,0.1,2.2c-0.1,3.2-0.2,5.6-0.3,8.8C1198.9-182.9,1199.1-181.8,1198.4-181.1z M1172.2-207.9v-6.4
	c0-7.2-3.3-10.8-10-10.8c-6.7,0-13.4,0-20,0v54.6c3.7-0.3,7.5-0.5,11.2-0.8v-22c1.8-0.1,3.6-0.1,5.4-0.2c1,0,1.5,0.5,1.5,1.6v20.2
	c3.7-0.2,7.5-0.3,11.3-0.5v-21c0-3.5-1.3-5.7-4-6.6C1170.6-201,1172.1-203.7,1172.2-207.9z M1160.4-202.1c-0.3,0.3-0.7,0.5-1.1,0.5
	c-2,0-4,0.1-6,0.1v-15.7c2,0,4,0,6,0c0.4,0,0.8,0.2,1.1,0.5c0.4,0.4,0.5,0.8,0.4,1.3c0,3.9-0.1,7.6-0.1,11.5
	C1160.9-203.2,1160.9-202.6,1160.4-202.1z M1123.7-225.9H1113c-6.6,0-10,4-10,12v47.8c3.7-0.5,7.5-1.1,11.3-1.6v-19.2
	c2.7-0.2,5.4-0.4,8.1-0.7v18.9c3.7-0.4,7.5-0.8,11.2-1.1v-44.9C1133.7-222.2,1130.4-225.9,1123.7-225.9z M1122.5-197
	c-2.7,0.2-5.4,0.3-8.1,0.5v-19.2c0-0.5,0.2-0.9,0.4-1.3c0.3-0.3,0.7-0.5,1.1-0.5c1.7,0,3.4-0.1,5.1-0.1c0.4,0,0.8,0.2,1.1,0.5
	c0.3,0.3,0.5,0.8,0.5,1.2V-197z M1090.1-197.4c3.1-1.6,4.6-4.9,4.6-9.8v-5.5c0-8.2-3.3-12.3-10-12.3c-6.7,0-13.4,0-20.1,0.1v66.2
	c6.9-1.6,13.8-3.1,20.7-4.4c6.6-1.3,9.9-5.7,10-13.7v-10.7C1095.4-192.9,1093.6-196.2,1090.1-197.4z M1075.9-215.6
	c2-0.1,3.9-0.1,6-0.2c0.4,0,0.8,0.2,1.1,0.5c0.4,0.5,0.5,1.2,0.4,2c0,3.8,0,7.5-0.1,11.3c0.2,0.8,0.1,1.6-0.3,2.2
	c-0.3,0.4-0.7,0.6-1.1,0.7c-2,0.2-4,0.3-6,0.5V-215.6z M1084-174c0,0.5-0.1,1-0.4,1.4c-0.3,0.4-0.7,0.7-1.1,0.8
	c-2.2,0.4-4.4,0.8-6.6,1.1v-18.2c2.2-0.2,4.4-0.5,6.6-0.8c0.4,0,0.8,0.1,1.1,0.5c0.3,0.3,0.4,0.8,0.4,1.3V-174z"/>
<path class="st1" d="M1431.1-200.6c0-2.7,0-5.5,0-8.2c0.7-10.7-2.6-16.1-9.9-16.1c-6.8,0-13.6-0.1-20.4-0.1v60.1
	c3.7,0.6,7.5,1.3,11.3,2v-24.4c3,0.4,6.1,0.7,9.1,1.1C1428.3-185.2,1431.7-190,1431.1-200.6z M1419.8-213.4v15.5c0,0.1,0,0.2,0,0.3
	c0,0.1,0,0.2,0,0.3c0,0,0,0.1,0,0.1c-0.1,0.3-0.2,0.6-0.4,0.8c-0.3,0.4-0.7,0.5-1.1,0.5c-2.1-0.2-4.2-0.4-6.3-0.6v-19.3
	c2.1,0.1,4.2,0.1,6.3,0.2c0.4,0,0.8,0.2,1.1,0.6c0.1,0.1,0.1,0.2,0.2,0.3c0.1,0.3,0.2,0.6,0.2,0.9
	C1419.8-213.6,1419.8-213.5,1419.8-213.4z"/>
<rect x="846.5" y="-199.5" class="st1" width="204.7" height="5.8"/>
<rect x="1444.6" y="-199.5" class="st1" width="197.9" height="5.8"/>
<rect x="839.5" y="-74" class="st2" width="819" height="358"/>
<g>
	<g>
		<g>
			
				<text transform="matrix(1 0 0 1 842.2388 181.8369)" class="st1" style="font-family:'OpenSans-Extrabold'; font-size:150.3177px;">V  RTUOSO</text>
		</g>
		<g>
			<path class="st1" d="M990.5,198.9c9.7,0,17.6-7.3,18.7-16.7h-37.4C972.9,191.6,980.8,198.9,990.5,198.9z"/>
			<path class="st1" d="M1016,166.2h-3.2V90.8h3.2V75h-10.2c-2.1-2.5-4.3-6.4-5.1-11.1c0,0-0.1,0-0.1,0.1c5.3-3.3,8.8-9.2,8.8-15.9
				c0-10.4-8.4-18.8-18.8-18.8c-10.4,0-18.8,8.4-18.8,18.8c0,6.7,3.5,12.7,8.9,16c-0.1,0-0.1-0.1-0.2-0.1c-0.8,4.7-3.1,8.5-5.1,11.1
				H965v15.8h3.2v75.3H965V182h51.1V166.2z M990.5,66.9C990.5,66.9,990.6,66.9,990.5,66.9C990.6,66.9,990.5,66.9,990.5,66.9
				C990.5,66.9,990.5,66.9,990.5,66.9C990.5,66.9,990.5,66.9,990.5,66.9z M988.3,31.7c1,0,1.9,0.8,1.9,1.9c0,1-0.8,1.9-1.9,1.9
				c-1,0-1.9-0.8-1.9-1.9C986.4,32.5,987.2,31.7,988.3,31.7z M978.3,48.1c0,1-0.8,1.8-1.8,1.8s-1.8-0.8-1.8-1.8
				c0-5.6,2.8-10.7,7.6-13.6c0.8-0.5,1.9-0.3,2.4,0.6c0.5,0.8,0.3,1.9-0.6,2.4C980.5,39.8,978.3,43.7,978.3,48.1z M974.4,112.6
				l32.1-7.8v12.4l-32.1,7.8V112.6z M974.4,137.8l32.1-7.8v12.4l-32.1,7.8V137.8z M971.2,81.3h38.6v3.3h-38.6V81.3z M1006.6,90.8
				v1.3l-32.1,7.8v-9H1006.6z M974.4,163l32.1-7.8v11h-32.1V163z M1009.8,175.7h-38.6v-3.2h38.6V175.7z"/>
		</g>
	</g>
	<g>
		<path class="st1" d="M1372-15.9h-10.7c-6.7,0-10,3.7-10,11.3v34.4c0,7.5,3.3,11.6,10,12.3c3.5,0.4,7.1,0.8,10.7,1.3
			c6.7,0.9,10-2.6,10-10.6V-3.9C1382-11.9,1378.7-15.9,1372-15.9z M1370.7,32.9c0,0.5-0.2,0.9-0.4,1.2c-0.3,0.3-0.7,0.5-1.1,0.4
			c-1.7-0.2-3.4-0.3-5-0.5c-0.4,0-0.8-0.3-1.1-0.6c-0.3-0.4-0.4-0.8-0.4-1.3v-38c0-0.5,0.2-0.9,0.4-1.2c0.3-0.3,0.7-0.5,1.1-0.5
			c1.7,0,3.4,0.1,5,0.1c0.4,0,0.8,0.2,1.1,0.6c0.3,0.4,0.4,0.8,0.4,1.2V32.9z M1332-15.1V7.5c-3-0.1-6-0.2-8.9-0.2v-22.4h-11.3v52.9
			c3.7,0.2,7.5,0.3,11.3,0.5v-21c3,0.1,5.9,0.2,8.9,0.3v21.1c3.7,0.3,7.5,0.5,11.3,0.8V-15C1339.5-15,1335.7-15,1332-15.1z
			 M1294.4,5.5c-2.4,0-4.8,0-7.2,0c-0.4,0-0.8-0.2-1.1-0.5c-0.3-0.3-0.5-0.8-0.4-1.3c0-3,0-6,0-9c0-0.5,0.1-0.9,0.4-1.3
			c0.3-0.3,0.7-0.5,1.1-0.5c1.5,0,2.9,0,4.4,0c0.4,0,0.8,0.2,1,0.5c0.8,0.9,0.4,2.2-0.5,3.5c0.5,1,0.4,0.8,0.9,1.8
			c3.6,0,7.2,0,10.8,0.1v-3.9c0-7.2-3.3-10.7-10-10.7h-8.9c-6.6,0-10,3.5-10,10.6V5.2c0,7.1,3.3,10.6,10,10.7c2.4,0,4.8,0,7.3,0.1
			c0.4,0,0.8,0.2,1.1,0.5c0.3,0.4,0.5,0.9,0.4,1.4c0,3.2,0,6.3,0,9.6c0.1,0.6,0,1.1-0.4,1.6c-0.3,0.3-0.7,0.5-1.1,0.5
			c-1.7,0-3.3,0-5-0.1c-0.4,0-0.8-0.2-1.1-0.5c-0.9-1-0.4-2.5,1-3.9c-0.9-2-0.5-1.1-1.4-3c-3.6,0-7.2,0-10.7-0.1v5.4
			c0,7.1,3.3,10.6,10,10.7c3.1,0,6.3,0.1,9.5,0.2c6.7,0.1,10-3.4,10-10.7v-11C1304.4,9.3,1301.1,5.7,1294.4,5.5z M1267.7,1.8v-6.3
			c0-7.1-3.3-10.6-10-10.6h-20.1V37h11.3V15.7h5.4c1,0,1.5,0.5,1.5,1.6V37c3.7,0,7.5,0,11.2,0V16.4c0-3.4-1.3-5.6-4-6.6
			C1266.1,8.7,1267.6,6,1267.7,1.8z M1255.9,7.3c-0.3,0.3-0.7,0.5-1.1,0.5h-5.9V-7.4h5.9c0.4,0,0.8,0.2,1.1,0.5
			c0.3,0.4,0.5,0.8,0.4,1.3c0,3.8,0,7.5,0,11.4C1256.5,6.4,1256.3,6.9,1255.9,7.3z M1231.1-5.9v-9.2h-23.8v52.2c7.9,0,15.8,0,23.8,0
			v-9.3h-12.5V15.2h11.7V6.4h-11.7V-5.9H1231.1z M1194.4,8.6c3-1.2,4.6-3.9,4.6-8.2v-4.8c0-7.1-3.3-10.7-10-10.7
			c-6.7,0-13.4,0-20.1,0v52.7c6.9-0.2,13.8-0.3,20.7-0.4c6.6-0.1,9.9-3.5,10-10.4v-9.3C1199.7,12.8,1197.9,9.8,1194.4,8.6z
			 M1180.2-7.4c2,0,4,0,6,0c0.4,0,0.8,0.2,1.1,0.5c0.6,0.6,0.6,1.3,0.2,2.3c0,3.1,0.1,5.8,0.1,8.9c0.2,0.7,0.1,1.3-0.3,1.8
			c-0.3,0.3-0.7,0.5-1.1,0.5c-2,0-4,0-6,0V-7.4z M1187.9,29c-0.3,0.3-0.7,0.5-1.1,0.5c-2.2,0-4.4,0.1-6.6,0.1v-15
			c2.2,0,4.4,0,6.6-0.1c0.4,0,0.8,0.2,1.1,0.5c0.5,0.6,0.6,1.4,0.1,2.2c-0.1,3.2-0.2,5.6-0.3,8.8C1188.4,27.2,1188.6,28.2,1187.9,29
			z M1161.7,2.2v-6.4c0-7.2-3.3-10.8-10-10.8c-6.7,0-13.4,0-20,0v54.6c3.7-0.3,7.5-0.5,11.2-0.8v-22c1.8-0.1,3.6-0.1,5.4-0.2
			c1,0,1.5,0.5,1.5,1.6v20.2c3.7-0.2,7.5-0.3,11.3-0.5V17c0-3.5-1.3-5.7-4-6.6C1160.1,9.1,1161.6,6.4,1161.7,2.2z M1149.9,7.9
			c-0.3,0.3-0.7,0.5-1.1,0.5c-2,0-4,0.1-6,0.1V-7.2c2,0,4,0,6,0c0.4,0,0.8,0.2,1.1,0.5c0.4,0.4,0.5,0.8,0.4,1.3
			c0,3.9-0.1,7.6-0.1,11.5C1150.4,6.8,1150.4,7.4,1149.9,7.9z M1113.2-15.9h-10.7c-6.6,0-10,4-10,12v47.8c3.7-0.5,7.5-1.1,11.3-1.6
			V23.1c2.7-0.2,5.4-0.4,8.1-0.7v18.9c3.7-0.4,7.5-0.8,11.2-1.1V-4.6C1123.2-12.1,1119.9-15.9,1113.2-15.9z M1112,13.1
			c-2.7,0.2-5.4,0.3-8.1,0.5V-5.7c0-0.5,0.2-0.9,0.4-1.3c0.3-0.3,0.7-0.5,1.1-0.5c1.7,0,3.4-0.1,5.1-0.1c0.4,0,0.8,0.2,1.1,0.5
			c0.3,0.3,0.5,0.8,0.5,1.2V13.1z M1079.6,12.7c3.1-1.6,4.6-4.9,4.6-9.8v-5.5c0-8.2-3.3-12.3-10-12.3c-6.7,0-13.4,0-20.1,0.1v66.2
			c6.9-1.6,13.8-3.1,20.7-4.4c6.6-1.3,9.9-5.7,10-13.7V22.5C1084.9,17.1,1083.1,13.9,1079.6,12.7z M1065.4-5.5c2-0.1,3.9-0.1,6-0.2
			c0.4,0,0.8,0.2,1.1,0.5c0.4,0.5,0.5,1.2,0.4,2c0,3.8,0,7.5-0.1,11.3c0.2,0.8,0.1,1.6-0.3,2.2c-0.3,0.4-0.7,0.6-1.1,0.7
			c-2,0.2-4,0.3-6,0.5V-5.5z M1073.5,36c0,0.5-0.1,1-0.4,1.4c-0.3,0.4-0.7,0.7-1.1,0.8c-2.2,0.4-4.4,0.8-6.6,1.1V21.1
			c2.2-0.2,4.4-0.5,6.6-0.8c0.4,0,0.8,0.1,1.1,0.5c0.3,0.3,0.4,0.8,0.4,1.3V36z"/>
		<path class="st1" d="M1420.6,9.4c0-2.7,0-5.5,0-8.2c0.7-10.7-2.6-16.1-9.9-16.1c-6.8,0-13.6-0.1-20.4-0.1v60.1
			c3.7,0.6,7.5,1.3,11.3,2V22.8c3,0.4,6.1,0.7,9.1,1.1C1417.8,24.9,1421.2,20.1,1420.6,9.4z M1409.3-3.3v15.5c0,0.1,0,0.2,0,0.3
			c0,0.1,0,0.2,0,0.3c0,0,0,0.1,0,0.1c-0.1,0.3-0.2,0.6-0.4,0.8c-0.3,0.4-0.7,0.5-1.1,0.5c-2.1-0.2-4.2-0.4-6.3-0.6V-5.7
			c2.1,0.1,4.2,0.1,6.3,0.2c0.4,0,0.8,0.2,1.1,0.6c0.1,0.1,0.1,0.2,0.2,0.3c0.1,0.3,0.2,0.6,0.2,0.9
			C1409.3-3.5,1409.3-3.4,1409.3-3.3z"/>
		<rect x="898.1" y="10.6" class="st1" width="142.6" height="5.8"/>
		<rect x="1434.1" y="10.6" class="st1" width="142.6" height="5.8"/>
	</g>
</g>
<g>
	<g>
		<path class="st1" d="M75.1,52h32.4L72.4,159.3H38.2L3.2,52h32.6l14.6,54.4c3,12.1,4.7,20.5,5,25.2c0.3-3.4,1-7.7,2.1-12.8
			c1-5.1,1.9-9.2,2.7-12.1L75.1,52z"/>
		<path class="st1" d="M226.2,120.2v39h-29V52h35.2c29.2,0,43.7,10.6,43.7,31.7c0,12.4-6.1,22-18.2,28.8l31.3,46.8h-32.9l-22.8-39
			H226.2z M226.2,98.4h5.4c10.1,0,15.2-4.5,15.2-13.4c0-7.4-5-11.1-14.9-11.1h-5.7V98.4z"/>
		<path class="st1" d="M346.3,159.3h-29V75.7h-26.2V52h81.3v23.7h-26.1V159.3z"/>
		<path class="st1" d="M479,52v64.6c0,14-4,24.9-11.9,32.6c-8,7.7-19.4,11.6-34.4,11.6c-14.6,0-25.9-3.7-33.7-11.2
			c-7.9-7.5-11.8-18.3-11.8-32.3V52h29.1v63c0,7.6,1.4,13.1,4.3,16.5c2.8,3.4,7,5.1,12.6,5.1c5.9,0,10.2-1.7,12.9-5.1
			c2.7-3.4,4-9,4-16.7V52H479z"/>
		<path class="st1" d="M601.9,105.5c0,18.1-4.4,31.8-13.3,41.2s-21.8,14.1-38.9,14.1c-16.8,0-29.7-4.7-38.7-14.2
			c-9-9.4-13.5-23.2-13.5-41.2c0-17.9,4.5-31.5,13.4-40.9c8.9-9.4,21.9-14.1,38.9-14.1c17.1,0,30,4.7,38.8,14
			C597.5,73.6,601.9,87.4,601.9,105.5z M528.1,105.5c0,20.7,7.2,31.1,21.7,31.1c7.3,0,12.8-2.5,16.3-7.6c3.5-5,5.3-12.9,5.3-23.6
			c0-10.7-1.8-18.6-5.4-23.7c-3.6-5.1-9-7.7-16.1-7.7C535.4,74.1,528.1,84.5,528.1,105.5z"/>
		<path class="st1" d="M691.5,126.7c0,6.7-1.7,12.6-5.1,17.7c-3.4,5.2-8.2,9.2-14.6,12c-6.4,2.9-13.8,4.3-22.4,4.3
			c-7.1,0-13.1-0.5-18-1.5c-4.8-1-9.9-2.8-15.1-5.2v-25.8c5.5,2.8,11.3,5.1,17.2,6.6c6,1.6,11.5,2.4,16.4,2.4c4.3,0,7.5-0.7,9.5-2.2
			c2-1.5,3-3.4,3-5.8c0-1.5-0.4-2.8-1.2-3.9c-0.8-1.1-2.1-2.2-3.9-3.3c-1.8-1.1-6.5-3.4-14.3-6.9c-7-3.2-12.2-6.3-15.7-9.2
			c-3.5-3-6.1-6.4-7.8-10.3s-2.5-8.4-2.5-13.7c0-9.9,3.6-17.6,10.8-23.1c7.2-5.5,17.1-8.3,29.7-8.3c11.1,0,22.4,2.6,34,7.7
			l-8.9,22.4c-10-4.6-18.7-6.9-26-6.9c-3.8,0-6.5,0.7-8.2,2c-1.7,1.3-2.6,3-2.6,4.9c0,2.1,1.1,4,3.3,5.7c2.2,1.7,8.1,4.7,17.7,9.1
			c9.2,4.2,15.7,8.6,19.3,13.4C689.7,113.4,691.5,119.4,691.5,126.7z"/>
		<path class="st1" d="M808.5,105.5c0,18.1-4.4,31.8-13.3,41.2s-21.8,14.1-38.9,14.1c-16.8,0-29.7-4.7-38.7-14.2
			c-9-9.4-13.5-23.2-13.5-41.2c0-17.9,4.5-31.5,13.4-40.9c8.9-9.4,21.9-14.1,38.9-14.1c17.1,0,30,4.7,38.8,14
			C804.1,73.6,808.5,87.4,808.5,105.5z M734.6,105.5c0,20.7,7.2,31.1,21.7,31.1c7.3,0,12.8-2.5,16.3-7.6c3.5-5,5.3-12.9,5.3-23.6
			c0-10.7-1.8-18.6-5.4-23.7c-3.6-5.1-9-7.7-16.1-7.7C741.9,74.1,734.6,84.5,734.6,105.5z"/>
	</g>
</g>
<g>
	<path class="st1" d="M151.5,176.4c9.7,0,17.6-7.3,18.7-16.7h-37.4C133.9,169.1,141.8,176.4,151.5,176.4z"/>
	<path class="st1" d="M177,143.6h-3.2V68.3h3.2V52.5h-10.2c-2.1-2.5-4.3-6.4-5.1-11.1c0,0-0.1,0-0.1,0.1c5.3-3.3,8.8-9.2,8.8-15.9
		c0-10.4-8.4-18.8-18.8-18.8s-18.8,8.4-18.8,18.8c0,6.7,3.5,12.7,8.9,16c-0.1,0-0.1-0.1-0.2-0.1c-0.8,4.7-3.1,8.5-5.1,11.1H126v15.8
		h3.2v75.3H126v15.8H177V143.6z M151.5,44.4C151.5,44.4,151.6,44.4,151.5,44.4C151.6,44.4,151.5,44.4,151.5,44.4
		C151.5,44.4,151.5,44.4,151.5,44.4C151.5,44.4,151.5,44.4,151.5,44.4z M149.3,9.1c1,0,1.9,0.8,1.9,1.9c0,1-0.8,1.9-1.9,1.9
		c-1,0-1.9-0.8-1.9-1.9C147.4,10,148.2,9.1,149.3,9.1z M139.3,25.5c0,1-0.8,1.8-1.8,1.8s-1.8-0.8-1.8-1.8c0-5.6,2.8-10.7,7.6-13.6
		c0.8-0.5,1.9-0.3,2.4,0.6c0.5,0.8,0.3,1.9-0.6,2.4C141.5,17.2,139.3,21.2,139.3,25.5z M135.4,90l32.1-7.8v12.4l-32.1,7.8V90z
		 M135.4,115.2l32.1-7.8v12.4l-32.1,7.8V115.2z M132.2,58.7h38.6V62h-38.6V58.7z M167.6,68.3v1.3l-32.1,7.8v-9H167.6z M135.4,140.4
		l32.1-7.8v11h-32.1V140.4z M170.8,153.2h-38.6V150h38.6V153.2z"/>
</g>
<g>
	<g>
		<path class="st1" d="M75.1-290.8h32.4L72.4-183.4H38.2l-35-107.3h32.6l14.6,54.4c3,12.1,4.7,20.5,5,25.2c0.3-3.4,1-7.7,2.1-12.8
			c1-5.1,1.9-9.2,2.7-12.1L75.1-290.8z"/>
		<path class="st1" d="M226.2-222.5v39h-29v-107.3h35.2c29.2,0,43.7,10.6,43.7,31.7c0,12.4-6.1,22-18.2,28.8l31.3,46.8h-32.9
			l-22.8-39H226.2z M226.2-244.3h5.4c10.1,0,15.2-4.5,15.2-13.4c0-7.4-5-11.1-14.9-11.1h-5.7V-244.3z"/>
		<path class="st1" d="M346.3-183.4h-29V-267h-26.2v-23.7h81.3v23.7h-26.1V-183.4z"/>
		<path class="st1" d="M479-290.8v64.6c0,14-4,24.9-11.9,32.6c-8,7.7-19.4,11.6-34.4,11.6c-14.6,0-25.9-3.7-33.7-11.2
			c-7.9-7.5-11.8-18.3-11.8-32.3v-65.2h29.1v63c0,7.6,1.4,13.1,4.3,16.5c2.8,3.4,7,5.1,12.6,5.1c5.9,0,10.2-1.7,12.9-5.1
			c2.7-3.4,4-9,4-16.7v-62.8H479z"/>
		<path class="st1" d="M601.9-237.2c0,18.1-4.4,31.8-13.3,41.2S566.8-182,549.8-182c-16.8,0-29.7-4.7-38.7-14.2
			c-9-9.4-13.5-23.2-13.5-41.2c0-17.9,4.5-31.5,13.4-40.9c8.9-9.4,21.9-14.1,38.9-14.1c17.1,0,30,4.7,38.8,14
			C597.5-269.1,601.9-255.3,601.9-237.2z M528.1-237.2c0,20.7,7.2,31.1,21.7,31.1c7.3,0,12.8-2.5,16.3-7.6c3.5-5,5.3-12.9,5.3-23.6
			c0-10.7-1.8-18.6-5.4-23.7s-9-7.7-16.1-7.7C535.4-268.7,528.1-258.2,528.1-237.2z"/>
		<path class="st1" d="M691.5-216c0,6.7-1.7,12.6-5.1,17.7c-3.4,5.2-8.2,9.2-14.6,12c-6.4,2.9-13.8,4.3-22.4,4.3
			c-7.1,0-13.1-0.5-18-1.5c-4.8-1-9.9-2.8-15.1-5.2v-25.8c5.5,2.8,11.3,5.1,17.2,6.6c6,1.6,11.5,2.4,16.4,2.4c4.3,0,7.5-0.7,9.5-2.2
			c2-1.5,3-3.4,3-5.8c0-1.5-0.4-2.8-1.2-3.9c-0.8-1.1-2.1-2.2-3.9-3.3c-1.8-1.1-6.5-3.4-14.3-6.9c-7-3.2-12.2-6.3-15.7-9.2
			c-3.5-3-6.1-6.4-7.8-10.3c-1.7-3.9-2.5-8.4-2.5-13.7c0-9.9,3.6-17.6,10.8-23.1c7.2-5.5,17.1-8.3,29.7-8.3c11.1,0,22.4,2.6,34,7.7
			l-8.9,22.4c-10-4.6-18.7-6.9-26-6.9c-3.8,0-6.5,0.7-8.2,2c-1.7,1.3-2.6,3-2.6,4.9c0,2.1,1.1,4,3.3,5.7c2.2,1.7,8.1,4.7,17.7,9.1
			c9.2,4.2,15.7,8.6,19.3,13.4S691.5-223.3,691.5-216z"/>
		<path class="st1" d="M808.5-237.2c0,18.1-4.4,31.8-13.3,41.2S773.4-182,756.3-182c-16.8,0-29.7-4.7-38.7-14.2
			c-9-9.4-13.5-23.2-13.5-41.2c0-17.9,4.5-31.5,13.4-40.9c8.9-9.4,21.9-14.1,38.9-14.1c17.1,0,30,4.7,38.8,14
			C804.1-269.1,808.5-255.3,808.5-237.2z M734.6-237.2c0,20.7,7.2,31.1,21.7,31.1c7.3,0,12.8-2.5,16.3-7.6c3.5-5,5.3-12.9,5.3-23.6
			c0-10.7-1.8-18.6-5.4-23.7s-9-7.7-16.1-7.7C741.9-268.7,734.6-258.2,734.6-237.2z"/>
	</g>
</g>
<g>
	<g>
		<path class="st0" d="M490.3-448.4c5.8,2.4,9.1,8.3,7.8,16.1c-4.6,26.2-99.8,114-103.6,114c0,0-17.1-16.3-17.4-16.6
			c-0.8-0.4,38.5-30.2,71.1-72.5C469.6-434.8,475.7-454.7,490.3-448.4z M485.4-416.6c4-6.2-10.3,3.1-13.9-13.3c-1-3-2,5.3,3.5,9.8
			c2.5,1.9,2.6,0.9,1.7,1.8c-24.1,25.5-103.5,107.4-78.1,83.5C459-390.1,478-418,479.3-418c3.6,1.1,3.4,0.9-2.2,7.7
			c-44.2,53.3-85.6,84.8-82.5,85.6C398-323.8,472.3-395.4,485.4-416.6z M346.6-353.6c-12.7-10.7,15.9,15.6,19.3,19.1
			c5,5.3,5.2,8.1,0.1,3.7c-29.1-24.6-30.7-30.7-43.9-44.2c-18.9-19-81.2-76.1-40.8-38.1c37.2,34.4,49.2,50.6,56.1,58.7
			c17.5,20.7,30.5,26.8,30,30c-0.2,0.7-0.4,1.5-1.2,1.2c-1.3-0.3-11.2-7.9-13-9.4c-18.9-16.3-25.3-31.3-62-67.7
			c-35.1-35.1-31.8-25.4-23.7-38.2c2-3.7-4.8,2.6-7,6.1c-4.2,6.2,2.5,6.9,19.9,24.2c57.5,57.1,46.3,57.4,85.7,89.2
			c8.3,6.7-1.9-2.8,7-7.2C376.9-327.9,382.5-323.8,346.6-353.6z M287.6-432.9c33.6,31.9,68.6,67.3,58.1,54.9
			c-8.3-9.5-66.6-68.3-69.9-68.9c-1.1,0-4.5,3.6-5.2,4.4c97.1,97.9,96.6,91.9,26.6,24.4c-65.4-63.5,35.4,31.3,50.3,47
			c0.7-2.7,0.3-1.9-7.5-9.6C338.6-380.7,244.9-473.5,287.6-432.9z M490.6-430c-1.8,8.7-15,7.6-15-1.7c0-4.6,4.2-8.2,9.1-7.4
			c-5.6-1.7-11.3,2.3-11.3,8.2C473.4-419.8,489.7-419.2,490.6-430L490.6-430z M485-423.5c-8.5,3-14.4-7.2-8.5-13
			C472.7-431.3,476.2-422.2,485-423.5z M477.2-431.7c0,8,12,8.2,12,0C489.3-439.6,477.2-439.6,477.2-431.7L477.2-431.7z
			 M487.7-431.6c0,6.1-9.1,6-9,0C478.7-437.6,487.8-437.6,487.7-431.6L487.7-431.6z M378.4-323.6c-3-3-8.8-0.3-7.1,4.8
			C369.5-318.9,373.4-327.4,378.4-323.6z M373.3-319.9c0,3.3,4.9,3.3,5,0C378.3-323.2,373.3-323.2,373.3-319.9L373.3-319.9z
			 M371.6-319.9c0-6.4,10.1-4.6,8.2,0.8c2.6-6.5-9.2-8.9-9.2-1.5c0,2.5,1.8,4.5,4.2,4.7C371.9-316.4,371.4-319.9,371.6-319.9z
			 M375.8-323.2c4.5,0,4.4,6.7,0,6.6C371.5-316.5,371.4-323.2,375.8-323.2z M345.1-360.1c26.2,26.4,69.2,57.7,63.1,72.3
			c-0.5,1.2-1.3,2.6-2.6,3.1c0,0-2.9,1.1-4.9,0.5c-8.6-2,1.7-19.9-17-22.9c-5.5-1-6.3,0.4-10.5-3.2c-23.3-20.3-28.1-23.4-42.2-39.1
			c-68.2-80.5-76.5-71.5-74.3-80.8c1-4.1,14.6-21.1,19.6-20.3c3.2,0.3,16.6,13.8,33.7,30.7c42,42,41.6,41.4,41.3,47.8
			C351-364.7,344.3-360.1,345.1-360.1z M378.5-304.5c-3,2.6-7.4,6.2-10.7,7.2c-10.3,3.1-20.6-10.6-11.3-21
			C359.8-321.4,370.5-304.5,378.5-304.5z"/>
	</g>
</g>
<g>
	<path class="st1" d="M151.5-166.4c9.7,0,17.6-7.3,18.7-16.7h-37.4C133.9-173.7,141.8-166.4,151.5-166.4z"/>
	<path class="st1" d="M177-199.1h-3.2v-75.3h3.2v-15.8h-10.2c-2.1-2.5-4.3-6.4-5.1-11.1c0,0-0.1,0-0.1,0.1c5.3-3.3,8.8-9.2,8.8-15.9
		c0-10.4-8.4-18.8-18.8-18.8s-18.8,8.4-18.8,18.8c0,6.7,3.5,12.7,8.9,16c-0.1,0-0.1-0.1-0.2-0.1c-0.8,4.7-3.1,8.5-5.1,11.1H126v15.8
		h3.2v75.3H126v15.8H177V-199.1z M151.5-298.3C151.5-298.3,151.6-298.4,151.5-298.3C151.6-298.4,151.5-298.3,151.5-298.3
		C151.5-298.3,151.5-298.4,151.5-298.3C151.5-298.4,151.5-298.3,151.5-298.3z M149.3-333.6c1,0,1.9,0.8,1.9,1.9c0,1-0.8,1.9-1.9,1.9
		c-1,0-1.9-0.8-1.9-1.9C147.4-332.7,148.2-333.6,149.3-333.6z M139.3-317.2c0,1-0.8,1.8-1.8,1.8s-1.8-0.8-1.8-1.8
		c0-5.6,2.8-10.7,7.6-13.6c0.8-0.5,1.9-0.3,2.4,0.6c0.5,0.8,0.3,1.9-0.6,2.4C141.5-325.5,139.3-321.5,139.3-317.2z M135.4-252.7
		l32.1-7.8v12.4l-32.1,7.8V-252.7z M135.4-227.5l32.1-7.8v12.4l-32.1,7.8V-227.5z M132.2-284h38.6v3.3h-38.6V-284z M167.6-274.4v1.3
		l-32.1,7.8v-9H167.6z M135.4-202.3l32.1-7.8v11h-32.1V-202.3z M170.8-189.5h-38.6v-3.2h38.6V-189.5z"/>
</g>
<path class="st1" d="M543.5-168.7h-10.7c-6.7,0-10,3.7-10,11.3v34.4c0,7.5,3.3,11.6,10,12.3c3.5,0.4,7.1,0.8,10.7,1.3
	c6.7,0.9,10-2.6,10-10.6v-36.6C553.5-164.7,550.2-168.7,543.5-168.7z M542.2-119.9c0,0.5-0.2,0.9-0.4,1.2c-0.3,0.3-0.7,0.5-1.1,0.4
	c-1.7-0.2-3.4-0.3-5-0.5c-0.4,0-0.8-0.3-1.1-0.6c-0.3-0.4-0.4-0.8-0.4-1.3v-38c0-0.5,0.2-0.9,0.4-1.2c0.3-0.3,0.7-0.5,1.1-0.5
	c1.7,0,3.4,0.1,5,0.1c0.4,0,0.8,0.2,1.1,0.6c0.3,0.4,0.4,0.8,0.4,1.2V-119.9z M503.5-167.8v22.6c-3-0.1-6-0.2-8.9-0.2v-22.4h-11.3
	v52.9c3.7,0.2,7.5,0.3,11.3,0.5v-21c3,0.1,5.9,0.2,8.9,0.3v21.1c3.7,0.3,7.5,0.5,11.3,0.8v-54.6C511-167.8,507.2-167.8,503.5-167.8z
	 M465.9-147.3c-2.4,0-4.8,0-7.2,0c-0.4,0-0.8-0.2-1.1-0.5c-0.3-0.3-0.5-0.8-0.4-1.3c0-3,0-6,0-9c0-0.5,0.1-0.9,0.4-1.3
	c0.3-0.3,0.7-0.5,1.1-0.5c1.5,0,2.9,0,4.4,0c0.4,0,0.8,0.2,1,0.5c0.8,0.9,0.4,2.2-0.5,3.5c0.5,1,0.4,0.8,0.9,1.8
	c3.6,0,7.2,0,10.8,0.1v-3.9c0-7.2-3.3-10.7-10-10.7h-8.9c-6.6,0-10,3.5-10,10.6v10.4c0,7.1,3.3,10.6,10,10.7c2.4,0,4.8,0,7.3,0.1
	c0.4,0,0.8,0.2,1.1,0.5c0.3,0.4,0.5,0.9,0.4,1.4c0,3.2,0,6.3,0,9.6c0.1,0.6,0,1.1-0.4,1.6c-0.3,0.3-0.7,0.5-1.1,0.5
	c-1.7,0-3.3,0-5-0.1c-0.4,0-0.8-0.2-1.1-0.5c-0.9-1-0.4-2.5,1-3.9c-0.9-2-0.5-1.1-1.4-3c-3.6,0-7.2,0-10.7-0.1v5.4
	c0,7.1,3.3,10.6,10,10.7c3.1,0,6.3,0.1,9.5,0.2c6.7,0.1,10-3.4,10-10.7v-11C475.9-143.4,472.6-147.1,465.9-147.3z M439.2-151v-6.3
	c0-7.1-3.3-10.6-10-10.6h-20.1v52.1h11.3v-21.3h5.4c1,0,1.5,0.5,1.5,1.6v19.7c3.7,0,7.5,0,11.2,0v-20.6c0-3.4-1.3-5.6-4-6.6
	C437.6-144.1,439.1-146.8,439.2-151z M427.4-145.5c-0.3,0.3-0.7,0.5-1.1,0.5h-5.9v-15.2h5.9c0.4,0,0.8,0.2,1.1,0.5
	c0.3,0.4,0.5,0.8,0.4,1.3c0,3.8,0,7.5,0,11.4C428-146.4,427.8-145.9,427.4-145.5z M402.6-158.7v-9.2h-23.8v52.2c7.9,0,15.8,0,23.8,0
	v-9.3h-12.5v-12.5h11.7v-8.9h-11.7v-12.2H402.6z M365.9-144.2c3-1.2,4.6-3.9,4.6-8.2v-4.8c0-7.1-3.3-10.7-10-10.7
	c-6.7,0-13.4,0-20.1,0v52.7c6.9-0.2,13.8-0.3,20.7-0.4c6.6-0.1,9.9-3.5,10-10.4v-9.3C371.2-140,369.4-143,365.9-144.2z M351.7-160.1
	c2,0,4,0,6,0c0.4,0,0.8,0.2,1.1,0.5c0.6,0.6,0.6,1.3,0.2,2.3c0,3.1,0.1,5.8,0.1,8.9c0.2,0.7,0.1,1.3-0.3,1.8
	c-0.3,0.3-0.7,0.5-1.1,0.5c-2,0-4,0-6,0V-160.1z M359.4-123.8c-0.3,0.3-0.7,0.5-1.1,0.5c-2.2,0-4.4,0.1-6.6,0.1v-15
	c2.2,0,4.4,0,6.6-0.1c0.4,0,0.8,0.2,1.1,0.5c0.5,0.6,0.6,1.4,0.1,2.2c-0.1,3.2-0.2,5.6-0.3,8.8C359.9-125.6,360.1-124.5,359.4-123.8
	z M333.2-150.6v-6.4c0-7.2-3.3-10.8-10-10.8c-6.7,0-13.4,0-20,0v54.6c3.7-0.3,7.5-0.5,11.2-0.8v-22c1.8-0.1,3.6-0.1,5.4-0.2
	c1,0,1.5,0.5,1.5,1.6v20.2c3.7-0.2,7.5-0.3,11.3-0.5v-21c0-3.5-1.3-5.7-4-6.6C331.6-143.7,333.1-146.4,333.2-150.6z M321.4-144.9
	c-0.3,0.3-0.7,0.5-1.1,0.5c-2,0-4,0.1-6,0.1v-15.7c2,0,4,0,6,0c0.4,0,0.8,0.2,1.1,0.5c0.4,0.4,0.5,0.8,0.4,1.3
	c0,3.9-0.1,7.6-0.1,11.5C321.9-145.9,321.9-145.3,321.4-144.9z M284.7-168.7H274c-6.6,0-10,4-10,12v47.8c3.7-0.5,7.5-1.1,11.3-1.6
	v-19.2c2.7-0.2,5.4-0.4,8.1-0.7v18.9c3.7-0.4,7.5-0.8,11.2-1.1v-44.9C294.7-164.9,291.4-168.7,284.7-168.7z M283.5-139.7
	c-2.7,0.2-5.4,0.3-8.1,0.5v-19.2c0-0.5,0.2-0.9,0.4-1.3c0.3-0.3,0.7-0.5,1.1-0.5c1.7,0,3.4-0.1,5.1-0.1c0.4,0,0.8,0.2,1.1,0.5
	c0.3,0.3,0.5,0.8,0.5,1.2V-139.7z M251.1-140.1c3.1-1.6,4.6-4.9,4.6-9.8v-5.5c0-8.2-3.3-12.3-10-12.3c-6.7,0-13.4,0-20.1,0.1v66.2
	c6.9-1.6,13.8-3.1,20.7-4.4c6.6-1.3,9.9-5.7,10-13.7v-10.7C256.4-135.7,254.6-138.9,251.1-140.1z M236.9-158.3c2-0.1,3.9-0.1,6-0.2
	c0.4,0,0.8,0.2,1.1,0.5c0.4,0.5,0.5,1.2,0.4,2c0,3.8,0,7.5-0.1,11.3c0.2,0.8,0.1,1.6-0.3,2.2c-0.3,0.4-0.7,0.6-1.1,0.7
	c-2,0.2-4,0.3-6,0.5V-158.3z M245-116.8c0,0.5-0.1,1-0.4,1.4c-0.3,0.4-0.7,0.7-1.1,0.8c-2.2,0.4-4.4,0.8-6.6,1.1v-18.2
	c2.2-0.2,4.4-0.5,6.6-0.8c0.4,0,0.8,0.1,1.1,0.5c0.3,0.3,0.4,0.8,0.4,1.3V-116.8z"/>
<path class="st1" d="M592.1-143.3c0-2.7,0-5.5,0-8.2c0.7-10.7-2.6-16.1-9.9-16.1c-6.8,0-13.6-0.1-20.4-0.1v60.1
	c3.7,0.6,7.5,1.3,11.3,2V-130c3,0.4,6.1,0.7,9.1,1.1C589.3-127.9,592.7-132.7,592.1-143.3z M580.8-156.1v15.5c0,0.1,0,0.2,0,0.3
	c0,0.1,0,0.2,0,0.3c0,0,0,0.1,0,0.1c-0.1,0.3-0.2,0.6-0.4,0.8c-0.3,0.4-0.7,0.5-1.1,0.5c-2.1-0.2-4.2-0.4-6.3-0.6v-19.3
	c2.1,0.1,4.2,0.1,6.3,0.2c0.4,0,0.8,0.2,1.1,0.6c0.1,0.1,0.1,0.2,0.2,0.3c0.1,0.3,0.2,0.6,0.2,0.9
	C580.8-156.3,580.8-156.2,580.8-156.1z"/>
<rect x="69.6" y="-142.2" class="st1" width="142.6" height="5.8"/>
<rect x="605.6" y="-142.2" class="st1" width="142.6" height="5.8"/>
</svg>
