<?xml version="1.0" encoding="utf-8"?>
<!-- Generator: Adobe Illustrator 28.2.0, SVG Export Plug-In . SVG Version: 6.00 Build 0)  -->
<svg version="1.1" id="Layer_1" xmlns="http://www.w3.org/2000/svg" xmlns:xlink="http://www.w3.org/1999/xlink" x="0px" y="0px"
	 viewBox="0 0 819.5 239.5" style="enable-background:new 0 0 819.5 239.5;" xml:space="preserve">
<style type="text/css">
	.st0{fill-rule:evenodd;clip-rule:evenodd;fill:#FFFFFF;}
	.st1{fill:#FFFFFF;}
	.st2{fill:#777777;}
</style>
<g>
	<g>
		<path class="st0" d="M477.4-273.8c5.8,2.4,9.1,8.3,7.8,16.1c-4.6,26.2-99.8,114-103.6,114c0,0-17.1-16.3-17.4-16.6
			c-0.8-0.4,38.5-30.2,71.1-72.5C456.7-260.2,462.8-280.1,477.4-273.8z M472.5-242c4-6.2-10.3,3.1-13.9-13.3c-1-3-2,5.3,3.5,9.8
			c2.5,1.9,2.6,0.9,1.7,1.8c-24.1,25.5-103.5,107.4-78.1,83.5c60.4-55.3,79.4-83.2,80.7-83.2c3.6,1.1,3.4,0.9-2.2,7.7
			c-44.2,53.3-85.6,84.8-82.5,85.6C385.1-149.3,459.4-220.8,472.5-242z M333.7-179.1c-12.7-10.7,15.9,15.6,19.3,19.1
			c5,5.3,5.2,8.1,0.1,3.7c-29.1-24.6-30.7-30.7-43.9-44.2c-18.9-19-81.2-76.1-40.8-38.1c37.2,34.4,49.2,50.6,56.1,58.7
			c17.5,20.7,30.5,26.8,30,30c-0.2,0.7-0.4,1.5-1.2,1.2c-1.3-0.3-11.2-7.9-13-9.4c-18.9-16.3-25.3-31.3-62-67.7
			c-35.1-35.1-31.8-25.4-23.7-38.2c2-3.7-4.8,2.6-7,6.1c-4.2,6.2,2.5,6.9,19.9,24.2c57.5,57.1,46.3,57.4,85.7,89.2
			c8.3,6.7-1.9-2.8,7-7.2C364-153.4,369.6-149.3,333.7-179.1z M274.7-258.3c33.6,31.9,68.6,67.3,58.1,54.9
			c-8.3-9.5-66.6-68.3-69.9-68.9c-1.1,0-4.5,3.6-5.2,4.4c97.1,97.9,96.6,91.9,26.6,24.4c-65.4-63.5,35.4,31.3,50.3,47
			c0.7-2.7,0.3-1.9-7.5-9.6C325.7-206.2,232-299,274.7-258.3z M477.7-255.5c-1.8,8.7-15,7.6-15-1.7c0-4.6,4.2-8.2,9.1-7.4
			c-5.6-1.7-11.3,2.3-11.3,8.2C460.5-245.3,476.8-244.6,477.7-255.5L477.7-255.5z M472.1-248.9c-8.5,3-14.4-7.2-8.5-13
			C459.8-256.8,463.3-247.7,472.1-248.9z M464.3-257.1c0,8,12,8.2,12,0C476.4-265.1,464.3-265,464.3-257.1L464.3-257.1z
			 M474.8-257.1c0,6.1-9.1,6-9,0C465.8-263,474.9-263.1,474.8-257.1L474.8-257.1z M365.5-149.1c-3-3-8.8-0.3-7.1,4.8
			C356.6-144.3,360.5-152.9,365.5-149.1z M360.4-145.4c0,3.3,4.9,3.3,5,0C365.4-148.6,360.4-148.6,360.4-145.4L360.4-145.4z
			 M358.7-145.4c0-6.4,10.1-4.6,8.2,0.8c2.6-6.5-9.2-8.9-9.2-1.5c0,2.5,1.8,4.5,4.2,4.7C359-141.9,358.5-145.4,358.7-145.4z
			 M362.9-148.6c4.5,0,4.4,6.7,0,6.6C358.6-142,358.5-148.7,362.9-148.6z M332.2-185.5c26.2,26.4,69.2,57.7,63.1,72.3
			c-0.5,1.2-1.3,2.6-2.6,3.1c0,0-2.9,1.1-4.9,0.5c-8.6-2,1.7-19.9-17-22.9c-5.5-1-6.3,0.4-10.5-3.2c-23.3-20.3-28.1-23.4-42.2-39.1
			c-68.2-80.5-76.5-71.5-74.3-80.8c1-4.1,14.6-21.1,19.6-20.3c3.2,0.3,16.6,13.8,33.7,30.7c42,42,41.6,41.4,41.3,47.8
			C338.1-190.2,331.4-185.5,332.2-185.5z M365.6-129.9c-3,2.6-7.4,6.2-10.7,7.2c-10.3,3.1-20.6-10.6-11.3-21
			C346.9-146.9,357.6-129.9,365.6-129.9z"/>
	</g>
</g>
<g>
	<g>
		<g>
			<path class="st1" d="M75.1,47.5h32.4L72.4,154.8H38.2L3.2,47.5h32.6l14.6,54.4c3,12.1,4.7,20.5,5,25.2c0.3-3.4,1-7.7,2.1-12.8
				c1-5.1,1.9-9.2,2.7-12.1L75.1,47.5z"/>
			<path class="st1" d="M226.2,115.7v39h-29V47.5h35.2c29.2,0,43.7,10.6,43.7,31.7c0,12.4-6.1,22-18.2,28.8l31.3,46.8h-32.9
				l-22.8-39H226.2z M226.2,93.9h5.4c10.1,0,15.2-4.5,15.2-13.4c0-7.4-5-11.1-14.9-11.1h-5.7V93.9z"/>
			<path class="st1" d="M346.3,154.8h-29V71.2h-26.2V47.5h81.3v23.7h-26.1V154.8z"/>
			<path class="st1" d="M479,47.5v64.6c0,14-4,24.9-11.9,32.6c-8,7.7-19.4,11.6-34.4,11.6c-14.6,0-25.9-3.7-33.7-11.2
				c-7.9-7.5-11.8-18.3-11.8-32.3V47.5h29.1v63c0,7.6,1.4,13.1,4.3,16.5c2.8,3.4,7,5.1,12.6,5.1c5.9,0,10.2-1.7,12.9-5.1
				c2.7-3.4,4-9,4-16.7V47.5H479z"/>
			<path class="st1" d="M601.9,101c0,18.1-4.4,31.8-13.3,41.2c-8.9,9.4-21.8,14.1-38.9,14.1c-16.8,0-29.7-4.7-38.7-14.2
				c-9-9.4-13.5-23.2-13.5-41.2c0-17.9,4.5-31.5,13.4-40.9c8.9-9.4,21.9-14.1,38.9-14.1c17.1,0,30,4.7,38.8,14
				C597.5,69.1,601.9,82.9,601.9,101z M528.1,101c0,20.7,7.2,31.1,21.7,31.1c7.3,0,12.8-2.5,16.3-7.6c3.5-5,5.3-12.9,5.3-23.6
				c0-10.7-1.8-18.6-5.4-23.7c-3.6-5.1-9-7.7-16.1-7.7C535.4,69.6,528.1,80,528.1,101z"/>
			<path class="st1" d="M691.5,122.2c0,6.7-1.7,12.6-5.1,17.7c-3.4,5.2-8.2,9.2-14.6,12s-13.8,4.3-22.4,4.3c-7.1,0-13.1-0.5-18-1.5
				c-4.8-1-9.9-2.8-15.1-5.2v-25.8c5.5,2.8,11.3,5.1,17.2,6.6c6,1.6,11.5,2.4,16.4,2.4c4.3,0,7.5-0.7,9.5-2.2c2-1.5,3-3.4,3-5.8
				c0-1.5-0.4-2.8-1.2-3.9c-0.8-1.1-2.1-2.2-3.9-3.3c-1.8-1.1-6.5-3.4-14.3-6.9c-7-3.2-12.2-6.3-15.7-9.2c-3.5-3-6.1-6.4-7.8-10.3
				c-1.7-3.9-2.5-8.4-2.5-13.7c0-9.9,3.6-17.6,10.8-23.1c7.2-5.5,17.1-8.3,29.7-8.3c11.1,0,22.4,2.6,34,7.7L682.6,76
				c-10-4.6-18.7-6.9-26-6.9c-3.8,0-6.5,0.7-8.2,2s-2.6,3-2.6,4.9c0,2.1,1.1,4,3.3,5.7c2.2,1.7,8.1,4.7,17.7,9.1
				c9.2,4.2,15.7,8.6,19.3,13.4C689.7,108.9,691.5,114.9,691.5,122.2z"/>
			<path class="st1" d="M808.5,101c0,18.1-4.4,31.8-13.3,41.2c-8.9,9.4-21.8,14.1-38.9,14.1c-16.8,0-29.7-4.7-38.7-14.2
				c-9-9.4-13.5-23.2-13.5-41.2c0-17.9,4.5-31.5,13.4-40.9c8.9-9.4,21.9-14.1,38.9-14.1c17.1,0,30,4.7,38.8,14
				C804.1,69.1,808.5,82.9,808.5,101z M734.6,101c0,20.7,7.2,31.1,21.7,31.1c7.3,0,12.8-2.5,16.3-7.6c3.5-5,5.3-12.9,5.3-23.6
				c0-10.7-1.8-18.6-5.4-23.7c-3.6-5.1-9-7.7-16.1-7.7C741.9,69.6,734.6,80,734.6,101z"/>
		</g>
	</g>
	<g>
		<path class="st1" d="M151.5,171.9c9.7,0,17.6-7.3,18.7-16.7h-37.4C133.9,164.6,141.8,171.9,151.5,171.9z"/>
		<path class="st1" d="M177,139.1h-3.2V63.8h3.2V48h-10.2c-2.1-2.5-4.3-6.4-5.1-11.1c0,0-0.1,0-0.1,0.1c5.3-3.3,8.8-9.2,8.8-15.9
			c0-10.4-8.4-18.8-18.8-18.8s-18.8,8.4-18.8,18.8c0,6.7,3.5,12.7,8.9,16c-0.1,0-0.1-0.1-0.2-0.1c-0.8,4.7-3.1,8.5-5.1,11.1H126
			v15.8h3.2v75.3H126v15.8H177V139.1z M151.5,39.9C151.5,39.9,151.6,39.9,151.5,39.9C151.6,39.9,151.5,39.9,151.5,39.9
			C151.5,39.9,151.5,39.9,151.5,39.9C151.5,39.9,151.5,39.9,151.5,39.9z M149.3,4.6c1,0,1.9,0.8,1.9,1.9c0,1-0.8,1.9-1.9,1.9
			c-1,0-1.9-0.8-1.9-1.9C147.4,5.5,148.2,4.6,149.3,4.6z M139.3,21c0,1-0.8,1.8-1.8,1.8s-1.8-0.8-1.8-1.8c0-5.6,2.8-10.7,7.6-13.6
			c0.8-0.5,1.9-0.3,2.4,0.6c0.5,0.8,0.3,1.9-0.6,2.4C141.5,12.7,139.3,16.7,139.3,21z M135.4,85.6l32.1-7.8v12.4L135.4,98V85.6z
			 M135.4,110.7l32.1-7.8v12.4l-32.1,7.8V110.7z M132.2,54.2h38.6v3.3h-38.6V54.2z M167.6,63.8V65l-32.1,7.8v-9H167.6z M135.4,135.9
			l32.1-7.8v11h-32.1V135.9z M170.8,148.7h-38.6v-3.2h38.6V148.7z"/>
	</g>
</g>
<path class="st1" d="M543.5,169.6h-10.7c-6.7,0-10,3.7-10,11.3v34.4c0,7.5,3.3,11.6,10,12.3c3.5,0.4,7.1,0.8,10.7,1.3
	c6.7,0.9,10-2.6,10-10.6v-36.6C553.5,173.6,550.2,169.6,543.5,169.6z M542.2,218.4c0,0.5-0.2,0.9-0.4,1.2c-0.3,0.3-0.7,0.5-1.1,0.4
	c-1.7-0.2-3.4-0.3-5-0.5c-0.4,0-0.8-0.3-1.1-0.6c-0.3-0.4-0.4-0.8-0.4-1.3v-38c0-0.5,0.2-0.9,0.4-1.2c0.3-0.3,0.7-0.5,1.1-0.5
	c1.7,0,3.4,0.1,5,0.1c0.4,0,0.8,0.2,1.1,0.6c0.3,0.4,0.4,0.8,0.4,1.2V218.4z M503.5,170.4V193c-3-0.1-6-0.2-8.9-0.2v-22.4h-11.3
	v52.9c3.7,0.2,7.5,0.3,11.3,0.5v-21c3,0.1,5.9,0.2,8.9,0.3v21.1c3.7,0.3,7.5,0.5,11.3,0.8v-54.6C511,170.4,507.2,170.4,503.5,170.4z
	 M465.9,191c-2.4,0-4.8,0-7.2,0c-0.4,0-0.8-0.2-1.1-0.5c-0.3-0.3-0.5-0.8-0.4-1.3c0-3,0-6,0-9c0-0.5,0.1-0.9,0.4-1.3
	c0.3-0.3,0.7-0.5,1.1-0.5c1.5,0,2.9,0,4.4,0c0.4,0,0.8,0.2,1,0.5c0.8,0.9,0.4,2.2-0.5,3.5c0.5,1,0.4,0.8,0.9,1.8
	c3.6,0,7.2,0,10.8,0.1v-3.9c0-7.2-3.3-10.7-10-10.7h-8.9c-6.6,0-10,3.5-10,10.6v10.4c0,7.1,3.3,10.6,10,10.7c2.4,0,4.8,0,7.3,0.1
	c0.4,0,0.8,0.2,1.1,0.5c0.3,0.4,0.5,0.9,0.4,1.4c0,3.2,0,6.3,0,9.6c0.1,0.6,0,1.1-0.4,1.6c-0.3,0.3-0.7,0.5-1.1,0.5
	c-1.7,0-3.3,0-5-0.1c-0.4,0-0.8-0.2-1.1-0.5c-0.9-1-0.4-2.5,1-3.9c-0.9-2-0.5-1.1-1.4-3c-3.6,0-7.2,0-10.7-0.1v5.4
	c0,7.1,3.3,10.6,10,10.7c3.1,0,6.3,0.1,9.5,0.2c6.7,0.1,10-3.4,10-10.7v-11C475.9,194.8,472.6,191.1,465.9,191z M439.2,187.3V181
	c0-7.1-3.3-10.6-10-10.6h-20.1v52.1h11.3v-21.3h5.4c1,0,1.5,0.5,1.5,1.6v19.7c3.7,0,7.5,0,11.2,0v-20.6c0-3.4-1.3-5.6-4-6.6
	C437.6,194.1,439.1,191.4,439.2,187.3z M427.4,192.8c-0.3,0.3-0.7,0.5-1.1,0.5h-5.9V178h5.9c0.4,0,0.8,0.2,1.1,0.5
	c0.3,0.4,0.5,0.8,0.4,1.3c0,3.8,0,7.5,0,11.4C428,191.8,427.8,192.3,427.4,192.8z M402.6,179.6v-9.2h-23.8v52.2c7.9,0,15.8,0,23.8,0
	v-9.3h-12.5v-12.5h11.7v-8.9h-11.7v-12.2H402.6z M365.9,194c3-1.2,4.6-3.9,4.6-8.2V181c0-7.1-3.3-10.7-10-10.7c-6.7,0-13.4,0-20.1,0
	v52.7c6.9-0.2,13.8-0.3,20.7-0.4c6.6-0.1,9.9-3.5,10-10.4v-9.3C371.2,198.2,369.4,195.3,365.9,194z M351.7,178.1c2,0,4,0,6,0
	c0.4,0,0.8,0.2,1.1,0.5c0.6,0.6,0.6,1.3,0.2,2.3c0,3.1,0.1,5.8,0.1,8.9c0.2,0.7,0.1,1.3-0.3,1.8c-0.3,0.3-0.7,0.5-1.1,0.5
	c-2,0-4,0-6,0V178.1z M359.4,214.4c-0.3,0.3-0.7,0.5-1.1,0.5c-2.2,0-4.4,0.1-6.6,0.1v-15c2.2,0,4.4,0,6.6-0.1c0.4,0,0.8,0.2,1.1,0.5
	c0.5,0.6,0.6,1.4,0.1,2.2c-0.1,3.2-0.2,5.6-0.3,8.8C359.9,212.6,360.1,213.7,359.4,214.4z M333.2,187.6v-6.4c0-7.2-3.3-10.8-10-10.8
	c-6.7,0-13.4,0-20,0V225c3.7-0.3,7.5-0.5,11.2-0.8v-22c1.8-0.1,3.6-0.1,5.4-0.2c1,0,1.5,0.5,1.5,1.6v20.2c3.7-0.2,7.5-0.3,11.3-0.5
	v-21c0-3.5-1.3-5.7-4-6.6C331.6,194.5,333.1,191.8,333.2,187.6z M321.4,193.4c-0.3,0.3-0.7,0.5-1.1,0.5c-2,0-4,0.1-6,0.1v-15.7
	c2,0,4,0,6,0c0.4,0,0.8,0.2,1.1,0.5c0.4,0.4,0.5,0.8,0.4,1.3c0,3.9-0.1,7.6-0.1,11.5C321.9,192.3,321.9,192.9,321.4,193.4z
	 M284.7,169.6H274c-6.6,0-10,4-10,12v47.8c3.7-0.5,7.5-1.1,11.3-1.6v-19.2c2.7-0.2,5.4-0.4,8.1-0.7v18.9c3.7-0.4,7.5-0.8,11.2-1.1
	v-44.9C294.7,173.3,291.4,169.6,284.7,169.6z M283.5,198.5c-2.7,0.2-5.4,0.3-8.1,0.5v-19.2c0-0.5,0.2-0.9,0.4-1.3
	c0.3-0.3,0.7-0.5,1.1-0.5c1.7,0,3.4-0.1,5.1-0.1c0.4,0,0.8,0.2,1.1,0.5c0.3,0.3,0.5,0.8,0.5,1.2V198.5z M251.1,198.1
	c3.1-1.6,4.6-4.9,4.6-9.8v-5.5c0-8.2-3.3-12.3-10-12.3c-6.7,0-13.4,0-20.1,0.1v66.2c6.9-1.6,13.8-3.1,20.7-4.4
	c6.6-1.3,9.9-5.7,10-13.7v-10.7C256.4,202.6,254.6,199.3,251.1,198.1z M236.9,179.9c2-0.1,3.9-0.1,6-0.2c0.4,0,0.8,0.2,1.1,0.5
	c0.4,0.5,0.5,1.2,0.4,2c0,3.8,0,7.5-0.1,11.3c0.2,0.8,0.1,1.6-0.3,2.2c-0.3,0.4-0.7,0.6-1.1,0.7c-2,0.2-4,0.3-6,0.5V179.9z
	 M245,221.5c0,0.5-0.1,1-0.4,1.4c-0.3,0.4-0.7,0.7-1.1,0.8c-2.2,0.4-4.4,0.8-6.6,1.1v-18.2c2.2-0.2,4.4-0.5,6.6-0.8
	c0.4,0,0.8,0.1,1.1,0.5c0.3,0.3,0.4,0.8,0.4,1.3V221.5z"/>
<path class="st1" d="M592.1,194.9c0-2.7,0-5.5,0-8.2c0.7-10.7-2.6-16.1-9.9-16.1c-6.8,0-13.6-0.1-20.4-0.1v60.1
	c3.7,0.6,7.5,1.3,11.3,2v-24.4c3,0.4,6.1,0.7,9.1,1.1C589.3,210.3,592.7,205.5,592.1,194.9z M580.8,182.1v15.5c0,0.1,0,0.2,0,0.3
	c0,0.1,0,0.2,0,0.3c0,0,0,0.1,0,0.1c-0.1,0.3-0.2,0.6-0.4,0.8c-0.3,0.4-0.7,0.5-1.1,0.5c-2.1-0.2-4.2-0.4-6.3-0.6v-19.3
	c2.1,0.1,4.2,0.1,6.3,0.2c0.4,0,0.8,0.2,1.1,0.6c0.1,0.1,0.1,0.2,0.2,0.3c0.1,0.3,0.2,0.6,0.2,0.9
	C580.8,181.9,580.8,182,580.8,182.1z"/>
<rect x="7.5" y="196" class="st1" width="204.7" height="5.8"/>
<rect x="605.6" y="196" class="st1" width="197.9" height="5.8"/>
<rect x="0.5" y="321.5" class="st2" width="819" height="358"/>
<g>
	<g>
		<g>
			
				<text transform="matrix(1 0 0 1 3.2388 577.3369)" class="st1" style="font-family:'OpenSans-Extrabold'; font-size:150.3177px;">V  RTUOSO</text>
		</g>
		<g>
			<path class="st1" d="M151.5,594.4c9.7,0,17.6-7.3,18.7-16.7h-37.4C133.9,587.1,141.8,594.4,151.5,594.4z"/>
			<path class="st1" d="M177,561.7h-3.2v-75.3h3.2v-15.8h-10.2c-2.1-2.5-4.3-6.4-5.1-11.1c0,0-0.1,0-0.1,0.1
				c5.3-3.3,8.8-9.2,8.8-15.9c0-10.4-8.4-18.8-18.8-18.8s-18.8,8.4-18.8,18.8c0,6.7,3.5,12.7,8.9,16c-0.1,0-0.1-0.1-0.2-0.1
				c-0.8,4.7-3.1,8.5-5.1,11.1H126v15.8h3.2v75.3H126v15.8H177V561.7z M151.5,462.4C151.5,462.4,151.6,462.4,151.5,462.4
				C151.6,462.4,151.5,462.4,151.5,462.4C151.5,462.4,151.5,462.4,151.5,462.4C151.5,462.4,151.5,462.4,151.5,462.4z M149.3,427.2
				c1,0,1.9,0.8,1.9,1.9c0,1-0.8,1.9-1.9,1.9c-1,0-1.9-0.8-1.9-1.9C147.4,428,148.2,427.2,149.3,427.2z M139.3,443.6
				c0,1-0.8,1.8-1.8,1.8s-1.8-0.8-1.8-1.8c0-5.6,2.8-10.7,7.6-13.6c0.8-0.5,1.9-0.3,2.4,0.6c0.5,0.8,0.3,1.9-0.6,2.4
				C141.5,435.3,139.3,439.2,139.3,443.6z M135.4,508.1l32.1-7.8v12.4l-32.1,7.8V508.1z M135.4,533.3l32.1-7.8v12.4l-32.1,7.8V533.3
				z M132.2,476.8h38.6v3.3h-38.6V476.8z M167.6,486.3v1.3l-32.1,7.8v-9H167.6z M135.4,558.5l32.1-7.8v11h-32.1V558.5z M170.8,571.2
				h-38.6v-3.2h38.6V571.2z"/>
		</g>
	</g>
	<g>
		<path class="st1" d="M533,379.6h-10.7c-6.7,0-10,3.7-10,11.3v34.4c0,7.5,3.3,11.6,10,12.3c3.5,0.4,7.1,0.8,10.7,1.3
			c6.7,0.9,10-2.6,10-10.6v-36.6C543,383.6,539.7,379.6,533,379.6z M531.7,428.4c0,0.5-0.2,0.9-0.4,1.2c-0.3,0.3-0.7,0.5-1.1,0.4
			c-1.7-0.2-3.4-0.3-5-0.5c-0.4,0-0.8-0.3-1.1-0.6c-0.3-0.4-0.4-0.8-0.4-1.3v-38c0-0.5,0.2-0.9,0.4-1.2c0.3-0.3,0.7-0.5,1.1-0.5
			c1.7,0,3.4,0.1,5,0.1c0.4,0,0.8,0.2,1.1,0.6c0.3,0.4,0.4,0.8,0.4,1.2V428.4z M493,380.4V403c-3-0.1-6-0.2-8.9-0.2v-22.4h-11.3
			v52.9c3.7,0.2,7.5,0.3,11.3,0.5v-21c3,0.1,5.9,0.2,8.9,0.3v21.1c3.7,0.3,7.5,0.5,11.3,0.8v-54.6
			C500.5,380.5,496.7,380.5,493,380.4z M455.4,401c-2.4,0-4.8,0-7.2,0c-0.4,0-0.8-0.2-1.1-0.5c-0.3-0.3-0.5-0.8-0.4-1.3c0-3,0-6,0-9
			c0-0.5,0.1-0.9,0.4-1.3c0.3-0.3,0.7-0.5,1.1-0.5c1.5,0,2.9,0,4.4,0c0.4,0,0.8,0.2,1,0.5c0.8,0.9,0.4,2.2-0.5,3.5
			c0.5,1,0.4,0.8,0.9,1.8c3.6,0,7.2,0,10.8,0.1v-3.9c0-7.2-3.3-10.7-10-10.7h-8.9c-6.6,0-10,3.5-10,10.6v10.4
			c0,7.1,3.3,10.6,10,10.7c2.4,0,4.8,0,7.3,0.1c0.4,0,0.8,0.2,1.1,0.5c0.3,0.4,0.5,0.9,0.4,1.4c0,3.2,0,6.3,0,9.6
			c0.1,0.6,0,1.1-0.4,1.6c-0.3,0.3-0.7,0.5-1.1,0.5c-1.7,0-3.3,0-5-0.1c-0.4,0-0.8-0.2-1.1-0.5c-0.9-1-0.4-2.5,1-3.9
			c-0.9-2-0.5-1.1-1.4-3c-3.6,0-7.2,0-10.7-0.1v5.4c0,7.1,3.3,10.6,10,10.7c3.1,0,6.3,0.1,9.5,0.2c6.7,0.1,10-3.4,10-10.7v-11
			C465.4,404.8,462.1,401.2,455.4,401z M428.7,397.3V391c0-7.1-3.3-10.6-10-10.6h-20.1v52.1h11.3v-21.3h5.4c1,0,1.5,0.5,1.5,1.6
			v19.7c3.7,0,7.5,0,11.2,0v-20.6c0-3.4-1.3-5.6-4-6.6C427.1,404.2,428.6,401.5,428.7,397.3z M416.9,402.8c-0.3,0.3-0.7,0.5-1.1,0.5
			h-5.9v-15.2h5.9c0.4,0,0.8,0.2,1.1,0.5c0.3,0.4,0.5,0.8,0.4,1.3c0,3.8,0,7.5,0,11.4C417.5,401.9,417.3,402.4,416.9,402.8z
			 M392.1,389.6v-9.2h-23.8v52.2c7.9,0,15.8,0,23.8,0v-9.3h-12.5v-12.5h11.7v-8.9h-11.7v-12.2H392.1z M355.4,404.1
			c3-1.2,4.6-3.9,4.6-8.2v-4.8c0-7.1-3.3-10.7-10-10.7c-6.7,0-13.4,0-20.1,0v52.7c6.9-0.2,13.8-0.3,20.7-0.4
			c6.6-0.1,9.9-3.5,10-10.4v-9.3C360.7,408.3,358.9,405.3,355.4,404.1z M341.2,388.1c2,0,4,0,6,0c0.4,0,0.8,0.2,1.1,0.5
			c0.6,0.6,0.6,1.3,0.2,2.3c0,3.1,0.1,5.8,0.1,8.9c0.2,0.7,0.1,1.3-0.3,1.8c-0.3,0.3-0.7,0.5-1.1,0.5c-2,0-4,0-6,0V388.1z
			 M348.9,424.5c-0.3,0.3-0.7,0.5-1.1,0.5c-2.2,0-4.4,0.1-6.6,0.1v-15c2.2,0,4.4,0,6.6-0.1c0.4,0,0.8,0.2,1.1,0.5
			c0.5,0.6,0.6,1.4,0.1,2.2c-0.1,3.2-0.2,5.6-0.3,8.8C349.4,422.7,349.6,423.7,348.9,424.5z M322.7,397.7v-6.4
			c0-7.2-3.3-10.8-10-10.8c-6.7,0-13.4,0-20,0v54.6c3.7-0.3,7.5-0.5,11.2-0.8v-22c1.8-0.1,3.6-0.1,5.4-0.2c1,0,1.5,0.5,1.5,1.6v20.2
			c3.7-0.2,7.5-0.3,11.3-0.5v-21c0-3.5-1.3-5.7-4-6.6C321.1,404.6,322.6,401.9,322.7,397.7z M310.9,403.4c-0.3,0.3-0.7,0.5-1.1,0.5
			c-2,0-4,0.1-6,0.1v-15.7c2,0,4,0,6,0c0.4,0,0.8,0.2,1.1,0.5c0.4,0.4,0.5,0.8,0.4,1.3c0,3.9-0.1,7.6-0.1,11.5
			C311.4,402.3,311.4,402.9,310.9,403.4z M274.2,379.6h-10.7c-6.6,0-10,4-10,12v47.8c3.7-0.5,7.5-1.1,11.3-1.6v-19.2
			c2.7-0.2,5.4-0.4,8.1-0.7v18.9c3.7-0.4,7.5-0.8,11.2-1.1v-44.9C284.2,383.4,280.9,379.6,274.2,379.6z M273,408.6
			c-2.7,0.2-5.4,0.3-8.1,0.5v-19.2c0-0.5,0.2-0.9,0.4-1.3c0.3-0.3,0.7-0.5,1.1-0.5c1.7,0,3.4-0.1,5.1-0.1c0.4,0,0.8,0.2,1.1,0.5
			c0.3,0.3,0.5,0.8,0.5,1.2V408.6z M240.6,408.2c3.1-1.6,4.6-4.9,4.6-9.8v-5.5c0-8.2-3.3-12.3-10-12.3c-6.7,0-13.4,0-20.1,0.1v66.2
			c6.9-1.6,13.8-3.1,20.7-4.4c6.6-1.3,9.9-5.7,10-13.7V418C245.9,412.6,244.1,409.4,240.6,408.2z M226.4,390c2-0.1,3.9-0.1,6-0.2
			c0.4,0,0.8,0.2,1.1,0.5c0.4,0.5,0.5,1.2,0.4,2c0,3.8,0,7.5-0.1,11.3c0.2,0.8,0.1,1.6-0.3,2.2c-0.3,0.4-0.7,0.6-1.1,0.7
			c-2,0.2-4,0.3-6,0.5V390z M234.5,431.5c0,0.5-0.1,1-0.4,1.4c-0.3,0.4-0.7,0.7-1.1,0.8c-2.2,0.4-4.4,0.8-6.6,1.1v-18.2
			c2.2-0.2,4.4-0.5,6.6-0.8c0.4,0,0.8,0.1,1.1,0.5c0.3,0.3,0.4,0.8,0.4,1.3V431.5z"/>
		<path class="st1" d="M581.6,404.9c0-2.7,0-5.5,0-8.2c0.7-10.7-2.6-16.1-9.9-16.1c-6.8,0-13.6-0.1-20.4-0.1v60.1
			c3.7,0.6,7.5,1.3,11.3,2v-24.4c3,0.4,6.1,0.7,9.1,1.1C578.8,420.4,582.2,415.6,581.6,404.9z M570.3,392.2v15.5c0,0.1,0,0.2,0,0.3
			c0,0.1,0,0.2,0,0.3c0,0,0,0.1,0,0.1c-0.1,0.3-0.2,0.6-0.4,0.8c-0.3,0.4-0.7,0.5-1.1,0.5c-2.1-0.2-4.2-0.4-6.3-0.6v-19.3
			c2.1,0.1,4.2,0.1,6.3,0.2c0.4,0,0.8,0.2,1.1,0.6c0.1,0.1,0.1,0.2,0.2,0.3c0.1,0.3,0.2,0.6,0.2,0.9
			C570.3,392,570.3,392.1,570.3,392.2z"/>
		<rect x="59.1" y="406.1" class="st1" width="142.6" height="5.8"/>
		<rect x="595.1" y="406.1" class="st1" width="142.6" height="5.8"/>
	</g>
</g>
<rect x="-838.5" y="321.5" class="st2" width="819" height="358"/>
<g>
	<g>
		
			<text transform="matrix(1 0 0 1 -835.761 554.769)" class="st1" style="font-family:'OpenSans-Extrabold'; font-size:150.3177px;">V  RTUOSO</text>
	</g>
	<g>
		<path class="st1" d="M-687.5,571.9c9.7,0,17.6-7.3,18.7-16.7h-37.4C-705.1,564.6-697.2,571.9-687.5,571.9z"/>
		<path class="st1" d="M-662,539.1h-3.2v-75.3h3.2V448h-10.2c-2.1-2.5-4.3-6.4-5.1-11.1c0,0-0.1,0-0.1,0.1c5.3-3.3,8.8-9.2,8.8-15.9
			c0-10.4-8.4-18.8-18.8-18.8c-10.4,0-18.8,8.4-18.8,18.8c0,6.7,3.5,12.7,8.9,16c-0.1,0-0.1-0.1-0.2-0.1c-0.8,4.7-3.1,8.5-5.1,11.1
			H-713v15.8h3.2v75.3h-3.2v15.8h51.1V539.1z M-687.5,439.9C-687.5,439.9-687.4,439.9-687.5,439.9
			C-687.4,439.9-687.5,439.9-687.5,439.9C-687.5,439.9-687.5,439.9-687.5,439.9C-687.5,439.9-687.5,439.9-687.5,439.9z
			 M-689.7,404.6c1,0,1.9,0.8,1.9,1.9c0,1-0.8,1.9-1.9,1.9c-1,0-1.9-0.8-1.9-1.9C-691.6,405.5-690.8,404.6-689.7,404.6z M-699.7,421
			c0,1-0.8,1.8-1.8,1.8s-1.8-0.8-1.8-1.8c0-5.6,2.8-10.7,7.6-13.6c0.8-0.5,1.9-0.3,2.4,0.6c0.5,0.8,0.3,1.9-0.6,2.4
			C-697.5,412.7-699.7,416.7-699.7,421z M-703.6,485.5l32.1-7.8v12.4l-32.1,7.8V485.5z M-703.6,510.7l32.1-7.8v12.4l-32.1,7.8V510.7
			z M-706.8,454.2h38.6v3.3h-38.6V454.2z M-671.4,463.8v1.3l-32.1,7.8v-9H-671.4z M-703.6,535.9l32.1-7.8v11h-32.1V535.9z
			 M-668.2,548.7h-38.6v-3.2h38.6V548.7z"/>
	</g>
</g>
<rect x="-838.5" y="-59.5" class="st2" width="819" height="358"/>
<g>
	<g>
		
			<text transform="matrix(1 0 0 1 -835.761 212.0557)" class="st1" style="font-family:'OpenSans-Extrabold'; font-size:150.3177px;">V  RTUOSO</text>
	</g>
	<g>
		<g>
			<path class="st0" d="M-348.7-52.9c5.8,2.4,9.1,8.3,7.8,16.1c-4.6,26.2-99.8,114-103.6,114c0,0-17.1-16.3-17.4-16.6
				c-0.8-0.4,38.5-30.2,71.1-72.5C-369.4-39.3-363.3-59.2-348.7-52.9z M-353.6-21.1c4-6.2-10.3,3.1-13.9-13.3c-1-3-2,5.3,3.5,9.8
				c2.5,1.9,2.6,0.9,1.7,1.8c-24.1,25.5-103.5,107.4-78.1,83.5C-380,5.4-361-22.5-359.7-22.5c3.6,1.1,3.4,0.9-2.2,7.7
				c-44.2,53.3-85.6,84.8-82.5,85.6C-441,71.7-366.7,0.1-353.6-21.1z M-492.4,41.9c-12.7-10.7,15.9,15.6,19.3,19.1
				c5,5.3,5.2,8.1,0.1,3.7c-29.1-24.6-30.7-30.7-43.9-44.2c-18.9-19-81.2-76.1-40.8-38.1c37.2,34.4,49.2,50.6,56.1,58.7
				c17.5,20.7,30.5,26.8,30,30c-0.2,0.7-0.4,1.5-1.2,1.2c-1.3-0.3-11.2-7.9-13-9.4c-18.9-16.3-25.3-31.3-62-67.7
				C-583-39.9-579.6-30.1-571.5-43c2-3.7-4.8,2.6-7,6.1c-4.2,6.2,2.5,6.9,19.9,24.2c57.5,57.1,46.3,57.4,85.7,89.2
				c8.3,6.7-1.9-2.8,7-7.2C-462.1,67.6-456.5,71.7-492.4,41.9z M-551.4-37.4c33.6,31.9,68.6,67.3,58.1,54.9
				c-8.3-9.5-66.6-68.3-69.9-68.9c-1.1,0-4.5,3.6-5.2,4.4c97.1,97.9,96.6,91.9,26.6,24.4c-65.4-63.5,35.4,31.3,50.3,47
				c0.7-2.7,0.3-1.9-7.5-9.6C-500.4,14.8-594.1-78-551.4-37.4z M-348.4-34.5c-1.8,8.7-15,7.6-15-1.7c0-4.6,4.2-8.2,9.1-7.4
				c-5.6-1.7-11.3,2.3-11.3,8.2C-365.6-24.3-349.3-23.7-348.4-34.5L-348.4-34.5z M-354-28c-8.5,3-14.4-7.2-8.5-13
				C-366.3-35.8-362.8-26.7-354-28z M-361.8-36.2c0,8,12,8.2,12,0C-349.7-44.1-361.8-44.1-361.8-36.2L-361.8-36.2z M-351.3-36.1
				c0,6.1-9.1,6-9,0C-360.3-42.1-351.2-42.1-351.3-36.1L-351.3-36.1z M-460.6,71.9c-3-3-8.8-0.3-7.1,4.8
				C-469.5,76.6-465.6,68.1-460.6,71.9z M-465.7,75.6c0,3.3,4.9,3.3,5,0C-460.7,72.3-465.7,72.3-465.7,75.6L-465.7,75.6z
				 M-467.4,75.6c0-6.4,10.1-4.6,8.2,0.8c2.6-6.5-9.2-8.9-9.2-1.5c0,2.5,1.8,4.5,4.2,4.7C-467.1,79.1-467.6,75.6-467.4,75.6z
				 M-463.2,72.3c4.5,0,4.4,6.7,0,6.6C-467.5,79-467.6,72.3-463.2,72.3z M-493.9,35.4c26.2,26.4,69.2,57.7,63.1,72.3
				c-0.5,1.2-1.3,2.6-2.6,3.1c0,0-2.9,1.1-4.9,0.5c-8.6-2,1.7-19.9-17-22.9c-5.5-1-6.3,0.4-10.5-3.2c-23.3-20.3-28.1-23.4-42.2-39.1
				c-68.2-80.5-76.5-71.5-74.3-80.8c1-4.1,14.6-21.1,19.6-20.3c3.2,0.3,16.6,13.8,33.7,30.7c42,42,41.6,41.4,41.3,47.8
				C-488,30.8-494.7,35.4-493.9,35.4z M-460.5,91c-3,2.6-7.4,6.2-10.7,7.2c-10.3,3.1-20.6-10.6-11.3-21
				C-479.2,74.1-468.5,91-460.5,91z"/>
		</g>
	</g>
	<g>
		<path class="st1" d="M-687.5,229.1c9.7,0,17.6-7.3,18.7-16.7h-37.4C-705.1,221.8-697.2,229.1-687.5,229.1z"/>
		<path class="st1" d="M-662,196.4h-3.2v-75.3h3.2v-15.8h-10.2c-2.1-2.5-4.3-6.4-5.1-11.1c0,0-0.1,0-0.1,0.1
			c5.3-3.3,8.8-9.2,8.8-15.9c0-10.4-8.4-18.8-18.8-18.8c-10.4,0-18.8,8.4-18.8,18.8c0,6.7,3.5,12.7,8.9,16c-0.1,0-0.1-0.1-0.2-0.1
			c-0.8,4.7-3.1,8.5-5.1,11.1H-713v15.8h3.2v75.3h-3.2v15.8h51.1V196.4z M-687.5,97.2C-687.5,97.2-687.4,97.1-687.5,97.2
			C-687.4,97.1-687.5,97.2-687.5,97.2C-687.5,97.2-687.5,97.1-687.5,97.2C-687.5,97.1-687.5,97.2-687.5,97.2z M-689.7,61.9
			c1,0,1.9,0.8,1.9,1.9c0,1-0.8,1.9-1.9,1.9c-1,0-1.9-0.8-1.9-1.9C-691.6,62.8-690.8,61.9-689.7,61.9z M-699.7,78.3
			c0,1-0.8,1.8-1.8,1.8s-1.8-0.8-1.8-1.8c0-5.6,2.8-10.7,7.6-13.6c0.8-0.5,1.9-0.3,2.4,0.6c0.5,0.8,0.3,1.9-0.6,2.4
			C-697.5,70-699.7,74-699.7,78.3z M-703.6,142.8l32.1-7.8v12.4l-32.1,7.8V142.8z M-703.6,168l32.1-7.8v12.4l-32.1,7.8V168z
			 M-706.8,111.5h38.6v3.3h-38.6V111.5z M-671.4,121.1v1.3l-32.1,7.8v-9H-671.4z M-703.6,193.2l32.1-7.8v11h-32.1V193.2z
			 M-668.2,206h-38.6v-3.2h38.6V206z"/>
	</g>
	<path class="st1" d="M-295.5,226.8h-10.7c-6.7,0-10,3.7-10,11.3v34.4c0,7.5,3.3,11.6,10,12.3c3.5,0.4,7.1,0.8,10.7,1.3
		c6.7,0.9,10-2.6,10-10.6v-36.6C-285.5,230.8-288.8,226.8-295.5,226.8z M-296.8,275.6c0,0.5-0.2,0.9-0.4,1.2
		c-0.3,0.3-0.7,0.5-1.1,0.4c-1.7-0.2-3.4-0.3-5-0.5c-0.4,0-0.8-0.3-1.1-0.6c-0.3-0.4-0.4-0.8-0.4-1.3v-38c0-0.5,0.2-0.9,0.4-1.2
		c0.3-0.3,0.7-0.5,1.1-0.5c1.7,0,3.4,0.1,5,0.1c0.4,0,0.8,0.2,1.1,0.6c0.3,0.4,0.4,0.8,0.4,1.2V275.6z M-335.5,227.7v22.6
		c-3-0.1-6-0.2-8.9-0.2v-22.4h-11.3v52.9c3.7,0.2,7.5,0.3,11.3,0.5v-21c3,0.1,5.9,0.2,8.9,0.3v21.1c3.7,0.3,7.5,0.5,11.3,0.8v-54.6
		C-328,227.7-331.8,227.7-335.5,227.7z M-373.1,248.2c-2.4,0-4.8,0-7.2,0c-0.4,0-0.8-0.2-1.1-0.5c-0.3-0.3-0.5-0.8-0.4-1.3
		c0-3,0-6,0-9c0-0.5,0.1-0.9,0.4-1.3c0.3-0.3,0.7-0.5,1.1-0.5c1.5,0,2.9,0,4.4,0c0.4,0,0.8,0.2,1,0.5c0.8,0.9,0.4,2.2-0.5,3.5
		c0.5,1,0.4,0.8,0.9,1.8c3.6,0,7.2,0,10.8,0.1v-3.9c0-7.2-3.3-10.7-10-10.7h-8.9c-6.6,0-10,3.5-10,10.6v10.4c0,7.1,3.3,10.6,10,10.7
		c2.4,0,4.8,0,7.3,0.1c0.4,0,0.8,0.2,1.1,0.5c0.3,0.4,0.5,0.9,0.4,1.4c0,3.2,0,6.3,0,9.6c0.1,0.6,0,1.1-0.4,1.6
		c-0.3,0.3-0.7,0.5-1.1,0.5c-1.7,0-3.3,0-5-0.1c-0.4,0-0.8-0.2-1.1-0.5c-0.9-1-0.4-2.5,1-3.9c-0.9-2-0.5-1.1-1.4-3
		c-3.6,0-7.2,0-10.7-0.1v5.4c0,7.1,3.3,10.6,10,10.7c3.1,0,6.3,0.1,9.5,0.2c6.7,0.1,10-3.4,10-10.7v-11
		C-363.1,252.1-366.4,248.4-373.1,248.2z M-399.8,244.5v-6.3c0-7.1-3.3-10.6-10-10.6h-20.1v52.1h11.3v-21.3h5.4c1,0,1.5,0.5,1.5,1.6
		v19.7c3.7,0,7.5,0,11.2,0v-20.6c0-3.4-1.3-5.6-4-6.6C-401.4,251.4-399.9,248.7-399.8,244.5z M-411.6,250c-0.3,0.3-0.7,0.5-1.1,0.5
		h-5.9v-15.2h5.9c0.4,0,0.8,0.2,1.1,0.5c0.3,0.4,0.5,0.8,0.4,1.3c0,3.8,0,7.5,0,11.4C-411,249.1-411.2,249.6-411.6,250z
		 M-436.4,236.8v-9.2h-23.8v52.2c7.9,0,15.8,0,23.8,0v-9.3h-12.5v-12.5h11.7v-8.9h-11.7v-12.2H-436.4z M-473.1,251.3
		c3-1.2,4.6-3.9,4.6-8.2v-4.8c0-7.1-3.3-10.7-10-10.7c-6.7,0-13.4,0-20.1,0v52.7c6.9-0.2,13.8-0.3,20.7-0.4c6.6-0.1,9.9-3.5,10-10.4
		v-9.3C-467.8,255.5-469.6,252.5-473.1,251.3z M-487.3,235.4c2,0,4,0,6,0c0.4,0,0.8,0.2,1.1,0.5c0.6,0.6,0.6,1.3,0.2,2.3
		c0,3.1,0.1,5.8,0.1,8.9c0.2,0.7,0.1,1.3-0.3,1.8c-0.3,0.3-0.7,0.5-1.1,0.5c-2,0-4,0-6,0V235.4z M-479.6,271.7
		c-0.3,0.3-0.7,0.5-1.1,0.5c-2.2,0-4.4,0.1-6.6,0.1v-15c2.2,0,4.4,0,6.6-0.1c0.4,0,0.8,0.2,1.1,0.5c0.5,0.6,0.6,1.4,0.1,2.2
		c-0.1,3.2-0.2,5.6-0.3,8.8C-479.1,269.9-478.9,271-479.6,271.7z M-505.8,244.9v-6.4c0-7.2-3.3-10.8-10-10.8c-6.7,0-13.4,0-20,0
		v54.6c3.7-0.3,7.5-0.5,11.2-0.8v-22c1.8-0.1,3.6-0.1,5.4-0.2c1,0,1.5,0.5,1.5,1.6v20.2c3.7-0.2,7.5-0.3,11.3-0.5v-21
		c0-3.5-1.3-5.7-4-6.6C-507.4,251.8-505.9,249.1-505.8,244.9z M-517.6,250.6c-0.3,0.3-0.7,0.5-1.1,0.5c-2,0-4,0.1-6,0.1v-15.7
		c2,0,4,0,6,0c0.4,0,0.8,0.2,1.1,0.5c0.4,0.4,0.5,0.8,0.4,1.3c0,3.9-0.1,7.6-0.1,11.5C-517.1,249.6-517.1,250.2-517.6,250.6z
		 M-554.3,226.8H-565c-6.6,0-10,4-10,12v47.8c3.7-0.5,7.5-1.1,11.3-1.6v-19.2c2.7-0.2,5.4-0.4,8.1-0.7v18.9
		c3.7-0.4,7.5-0.8,11.2-1.1v-44.9C-544.3,230.6-547.6,226.8-554.3,226.8z M-555.5,255.8c-2.7,0.2-5.4,0.3-8.1,0.5V237
		c0-0.5,0.2-0.9,0.4-1.3c0.3-0.3,0.7-0.5,1.1-0.5c1.7,0,3.4-0.1,5.1-0.1c0.4,0,0.8,0.2,1.1,0.5c0.3,0.3,0.5,0.8,0.5,1.2V255.8z
		 M-587.9,255.4c3.1-1.6,4.6-4.9,4.6-9.8v-5.5c0-8.2-3.3-12.3-10-12.3c-6.7,0-13.4,0-20.1,0.1v66.2c6.9-1.6,13.8-3.1,20.7-4.4
		c6.6-1.3,9.9-5.7,10-13.7v-10.7C-582.6,259.8-584.4,256.6-587.9,255.4z M-602.1,237.2c2-0.1,3.9-0.1,6-0.2c0.4,0,0.8,0.2,1.1,0.5
		c0.4,0.5,0.5,1.2,0.4,2c0,3.8,0,7.5-0.1,11.3c0.2,0.8,0.1,1.6-0.3,2.2c-0.3,0.4-0.7,0.6-1.1,0.7c-2,0.2-4,0.3-6,0.5V237.2z
		 M-594,278.7c0,0.5-0.1,1-0.4,1.4c-0.3,0.4-0.7,0.7-1.1,0.8c-2.2,0.4-4.4,0.8-6.6,1.1v-18.2c2.2-0.2,4.4-0.5,6.6-0.8
		c0.4,0,0.8,0.1,1.1,0.5c0.3,0.3,0.4,0.8,0.4,1.3V278.7z"/>
	<path class="st1" d="M-246.9,252.2c0-2.7,0-5.5,0-8.2c0.7-10.7-2.6-16.1-9.9-16.1c-6.8,0-13.6-0.1-20.4-0.1v60.1
		c3.7,0.6,7.5,1.3,11.3,2v-24.4c3,0.4,6.1,0.7,9.1,1.1C-249.7,267.6-246.3,262.8-246.9,252.2z M-258.2,239.4v15.5c0,0.1,0,0.2,0,0.3
		c0,0.1,0,0.2,0,0.3c0,0,0,0.1,0,0.1c-0.1,0.3-0.2,0.6-0.4,0.8c-0.3,0.4-0.7,0.5-1.1,0.5c-2.1-0.2-4.2-0.4-6.3-0.6V237
		c2.1,0.1,4.2,0.1,6.3,0.2c0.4,0,0.8,0.2,1.1,0.6c0.1,0.1,0.1,0.2,0.2,0.3c0.1,0.3,0.2,0.6,0.2,0.9
		C-258.2,239.2-258.2,239.3-258.2,239.4z"/>
	<rect x="-769.4" y="253.3" class="st1" width="142.6" height="5.8"/>
	<rect x="-233.4" y="253.3" class="st1" width="142.6" height="5.8"/>
</g>
</svg>
