<?xml version="1.0" encoding="utf-8"?>
<!-- Generator: Adobe Illustrator 28.2.0, SVG Export Plug-In . SVG Version: 6.00 Build 0)  -->
<svg version="1.1" id="Layer_1" xmlns="http://www.w3.org/2000/svg" xmlns:xlink="http://www.w3.org/1999/xlink" x="0px" y="0px"
	 viewBox="0 0 298.9 299" style="enable-background:new 0 0 298.9 299;" xml:space="preserve">
<style type="text/css">
	.st0{fill:#FFFFFF;}
	.st1{fill-rule:evenodd;clip-rule:evenodd;fill:#FFFFFF;}
</style>
<g>
	<path class="st0" d="M143.2,241.3l-2.8,0.7c2.5,2.2,4.3,3.8,5.4,5h3.6C147.4,245.1,145.3,243.2,143.2,241.3z M175.8,246.9h7.5
		c4.1-3.7,8.9-8.1,14-12.8v-6.8C188.8,235.4,181.2,242.3,175.8,246.9z M116.5,222c-6.6-5.6-2.7-1.8,3.3,4v-1.2
		C118.8,223.8,117.6,222.8,116.5,222z M107.2,231.2v3c4.3,4.5,8.1,8.1,12.6,12v-2.3C114.8,239.2,110.8,235.2,107.2,231.2z
		 M107.2,221.7v6.1c4,4.7,8,8.9,12.6,13.3v-5.9C116,231.5,111.7,227.1,107.2,221.7z M183.2,95c-4.2-5.1-8.8-12.8-10.4-22.3
		c-0.1,0-0.2,0.1-0.2,0.1c10.6-6.7,17.8-18.6,17.8-32.2c0-21-17-38.1-38.1-38.1c-21,0-38.1,17-38.1,38.1c0,13.6,7.2,25.6,18,32.3
		c-0.2-0.1-0.3-0.2-0.4-0.3c-1.6,9.5-6.2,17.3-10.4,22.3h-20.8v32h6.6v41.4c5.5,5.5,9.6,9.7,12.6,13v-10.4l64.9-15.7v25.1
		l-55.6,13.5c1.3,2.9,1.5,5.5,1.3,8.8v0.2c-0.2,4.6-1.9,8.5-3.7,11.5c1.6,1.6,3.3,3.1,5,4.7l40.7-9.8c7.6-7.3,16.1-15.8,24.8-25.2
		V127h6.6v-32L183.2,95L183.2,95z M147.8,7.4c2.1,0,3.8,1.7,3.8,3.8s-1.7,3.8-3.8,3.8c-2.1,0-3.8-1.7-3.8-3.8S145.6,7.4,147.8,7.4z
		 M127.6,40.5c0,1.9-1.6,3.5-3.5,3.5s-3.5-1.6-3.5-3.5c0-11.3,5.8-21.6,15.4-27.5c1.7-1.1,3.9-0.5,4.9,1.2c1.1,1.7,0.5,3.9-1.2,4.9
		C132.1,23.7,127.6,31.8,127.6,40.5z M184.8,129.5l-64.9,15.8V127h64.9V129.5z M191.2,114.3h-78v-6.7h78V114.3z M122.4,246.3l-2,0.5
		l-0.5,0.2h3.4C123,246.7,122.7,246.5,122.4,246.3z"/>
</g>
<g>
	<g>
		<text transform="matrix(1 0 0 1 -112.7428 -105.9065)" class="st0" style="font-family:'ArialMT'; font-size:116.0626px;">V  RTUOSO</text>
	</g>
	<g>
		<g>
			<path class="st1" d="M263.3-310.4c4.5,1.9,7,6.4,6,12.4c-3.5,20.2-77.1,88.1-80,88.1c0,0-13.2-12.6-13.4-12.8
				c-0.6-0.3,29.7-23.3,54.9-55.9C247.4-300,252.1-315.3,263.3-310.4z M259.5-285.9c3.1-4.8-7.9,2.4-10.7-10.3
				c-0.8-2.3-1.6,4.1,2.7,7.6c1.9,1.4,2,0.7,1.3,1.4c-18.6,19.7-79.9,83-60.3,64.5c46.6-42.7,61.3-64.3,62.3-64.3
				c2.8,0.8,2.6,0.7-1.7,5.9C219-239.9,187-215.6,189.5-215C192.1-214.3,249.4-269.5,259.5-285.9z M152.4-237.3
				c-9.8-8.3,12.3,12.1,14.9,14.8c3.9,4.1,4.1,6.3,0.1,2.9c-22.5-19-23.7-23.7-33.9-34.1c-14.6-14.7-62.7-58.8-31.5-29.4
				c28.7,26.5,38,39,43.3,45.3c13.5,16,23.5,20.7,23.2,23.1c-0.1,0.5-0.3,1.2-1,1c-1-0.2-8.6-6.1-10-7.3
				c-14.6-12.6-19.5-24.2-47.9-52.3c-27.1-27.1-24.5-19.6-18.3-29.5c1.5-2.9-3.7,2-5.4,4.7c-3.2,4.8,2,5.3,15.4,18.7
				c44.4,44.1,35.8,44.3,66.2,68.9c6.4,5.2-1.5-2.2,5.4-5.6C175.8-217.5,180.1-214.3,152.4-237.3z M106.9-298.5
				c26,24.7,52.9,51.9,44.8,42.4c-6.4-7.3-51.4-52.7-53.9-53.2c-0.8,0-3.5,2.8-4,3.4c74.9,75.6,74.6,70.9,20.5,18.8
				c-50.5-49,27.3,24.1,38.8,36.3c0.5-2.1,0.2-1.5-5.8-7.4C146.2-258.2,73.8-329.9,106.9-298.5z M263.6-296.3
				c-1.4,6.7-11.6,5.9-11.6-1.3c0-3.6,3.2-6.4,7-5.7c-4.3-1.3-8.7,1.8-8.7,6.3C250.3-288.4,262.9-287.9,263.6-296.3L263.6-296.3z
				 M259.3-291.2c-6.5,2.4-11.1-5.5-6.6-10C249.7-297.3,252.4-290.3,259.3-291.2z M253.2-297.6c0,6.2,9.3,6.3,9.3,0
				C262.5-303.7,253.2-303.7,253.2-297.6L253.2-297.6z M261.3-297.5c0,4.7-7,4.7-7,0C254.4-302.1,261.4-302.2,261.3-297.5
				L261.3-297.5z M177-214.1c-2.3-2.3-6.8-0.3-5.5,3.7C170-210.5,173.1-217.1,177-214.1z M173-211.3c0,2.5,3.8,2.6,3.8,0
				C176.8-213.8,173-213.8,173-211.3L173-211.3z M171.7-211.3c0-4.9,7.8-3.6,6.4,0.6c2-5-7.1-6.9-7.1-1.1c0,1.9,1.4,3.5,3.3,3.6
				C171.9-208.6,171.5-211.3,171.7-211.3z M174.9-213.8c3.5,0,3.4,5.1,0,5.1C171.6-208.7,171.5-213.8,174.9-213.8z M151.2-242.3
				c20.2,20.4,53.4,44.5,48.7,55.8c-0.4,0.9-1,2-2,2.4c0,0-2.3,0.8-3.8,0.4c-6.7-1.5,1.3-15.4-13.1-17.7c-4.3-0.8-4.8,0.3-8.1-2.5
				c-18-15.7-21.7-18.1-32.6-30.2c-52.7-62.2-59.1-55.2-57.3-62.4c0.7-3.2,11.3-16.3,15.1-15.7c2.5,0.2,12.8,10.6,26,23.7
				c32.5,32.5,32.1,32,31.9,36.9C155.8-245.9,150.6-242.3,151.2-242.3z M177-199.4c-2.3,2-5.7,4.8-8.2,5.6
				c-7.9,2.4-15.9-8.2-8.7-16.2C162.5-212.4,170.8-199.4,177-199.4z"/>
		</g>
	</g>
	<g>
		<path class="st0" d="M-19.7-92.7c7.5,0,13.6-5.6,14.4-12.9h-28.9C-33.3-98.4-27.2-92.7-19.7-92.7z"/>
		<path class="st0" d="M0-118h-2.5v-58.2H0v-12.2h-7.9c-1.6-2-3.4-4.9-4-8.5c0,0-0.1,0-0.1,0.1c4.1-2.6,6.8-7.1,6.8-12.3
			c0-8-6.5-14.5-14.5-14.5s-14.5,6.5-14.5,14.5c0,5.2,2.7,9.8,6.9,12.3l-0.1-0.1c-0.6,3.6-2.4,6.6-4,8.5h-7.9v12.2h2.5v58.2h-2.5
			v12.2H0V-118z M-19.7-194.6L-19.7-194.6L-19.7-194.6C-19.7-194.6-19.8-194.6-19.7-194.6C-19.8-194.6-19.7-194.6-19.7-194.6z
			 M-21.5-221.8c0.8,0,1.5,0.7,1.5,1.5s-0.7,1.5-1.5,1.5s-1.5-0.7-1.5-1.5C-22.9-221.2-22.3-221.8-21.5-221.8z M-29.2-209.2
			c0,0.8-0.6,1.4-1.4,1.4s-1.4-0.6-1.4-1.4c0-4.3,2.2-8.2,5.9-10.5c0.6-0.4,1.5-0.2,1.9,0.4c0.4,0.6,0.2,1.5-0.4,1.9
			C-27.4-215.6-29.2-212.5-29.2-209.2z M-32.1-159.4l24.8-6v9.6l-24.8,6V-159.4z M-32.1-139.9l24.8-6v9.6l-24.8,6V-139.9z
			 M-34.6-183.6h29.8v2.6h-29.8V-183.6z M-7.3-176.2v1l-24.8,6v-7H-7.3z M-32.1-120.5l24.8-6v8.5h-24.8V-120.5z M-4.8-110.6h-29.8
			v-2.5h29.8C-4.8-113.1-4.8-110.6-4.8-110.6z"/>
	</g>
	<g>
		<g>
			<path class="st0" d="M291.3-76c0-2.1,0-4.2,0-6.4c0.5-8.3-2-12.4-7.7-12.4c-5.3,0-10.5,0-15.7,0v46.4c2.9,0.5,5.8,1,8.7,1.6
				v-18.8c2.3,0.3,4.7,0.6,7,0.9C289.2-64.1,291.8-67.8,291.3-76z M282.7-85.8v12c0,0.1,0,0.1,0,0.2s0,0.1,0,0.2c0,0,0,0,0,0.1
				c0,0.2-0.2,0.5-0.3,0.6c-0.2,0.3-0.5,0.4-0.9,0.4c-1.6-0.2-3.2-0.3-4.8-0.5v-14.9c1.6,0,3.2,0.1,4.8,0.2c0.3,0,0.6,0.2,0.9,0.5
				c0.1,0.1,0.1,0.2,0.2,0.2c0.1,0.2,0.2,0.5,0.2,0.7C282.7-86,282.7-85.9,282.7-85.8z"/>
			<path class="st0" d="M253.8-95.5h-8.3c-5.2,0-7.7,2.9-7.7,8.7v26.6c0,5.8,2.6,8.9,7.7,9.5c2.7,0.3,5.5,0.6,8.3,1
				c5.1,0.7,7.7-2,7.7-8.2v-28.3C261.6-92.4,259-95.5,253.8-95.5z M252.9-57.9c0,0.4-0.1,0.7-0.3,0.9c-0.2,0.3-0.5,0.4-0.9,0.3
				c-1.3-0.1-2.6-0.3-3.9-0.4c-0.3,0-0.6-0.2-0.9-0.5c-0.2-0.3-0.3-0.6-0.3-1v-29.3c0-0.4,0.1-0.7,0.3-0.9c0.2-0.3,0.5-0.4,0.9-0.4
				c1.3,0,2.6,0,3.9,0.1c0.3,0,0.6,0.2,0.9,0.4c0.2,0.3,0.3,0.6,0.3,1V-57.9z M222.9-94.9v17.4c-2.3-0.1-4.6-0.1-6.9-0.2V-95h-8.7
				v40.8c2.9,0.1,5.8,0.2,8.7,0.4V-70c2.3,0.1,4.6,0.1,6.9,0.2v16.3c2.9,0.2,5.8,0.4,8.7,0.6v-42.2
				C228.7-94.9,225.8-94.9,222.9-94.9z M193.9-79c-1.9,0-3.7,0-5.6,0c-0.3,0-0.6-0.1-0.9-0.4c-0.3-0.3-0.4-0.6-0.3-1
				c0-2.3,0-4.6,0-6.9c0-0.4,0.1-0.7,0.3-1c0.2-0.2,0.5-0.4,0.9-0.4c1.1,0,2.3,0,3.4,0c0.3,0,0.6,0.1,0.8,0.4
				c0.6,0.7,0.3,1.7-0.4,2.7c0.4,0.8,0.3,0.6,0.7,1.4c2.7,0,5.5,0,8.3,0v-3c0-5.5-2.6-8.3-7.7-8.3h-6.9c-5.1,0-7.7,2.7-7.7,8.2v8.1
				c0,5.5,2.6,8.2,7.7,8.2c1.9,0,3.7,0,5.6,0c0.3,0,0.6,0.1,0.9,0.4c0.3,0.3,0.4,0.7,0.3,1.1c0,2.5,0,4.9,0,7.4
				c0.1,0.5,0,0.9-0.3,1.2c-0.2,0.3-0.5,0.4-0.9,0.4c-1.3,0-2.6,0-3.8,0c-0.3,0-0.6-0.1-0.9-0.4c-0.7-0.8-0.3-1.9,0.8-3
				c-0.7-1.5-0.4-0.8-1.1-2.3c-2.8,0-5.5,0-8.3-0.1v4.2c0,5.5,2.6,8.2,7.7,8.3c2.4,0,4.9,0.1,7.3,0.1c5.2,0.1,7.7-2.6,7.7-8.3v-8.5
				C201.6-76.1,199-78.9,193.9-79z M173.3-81.9v-4.8c0-5.5-2.6-8.2-7.7-8.2H150v40.2h8.7v-16.5h4.2c0.8,0,1.2,0.4,1.2,1.2v15.2
				c2.9,0,5.8,0,8.7,0v-15.9c0-2.6-1-4.4-3.1-5.1C172-76.6,173.2-78.7,173.3-81.9z M164.2-77.6c-0.2,0.3-0.5,0.4-0.9,0.4h-4.6V-89
				h4.6c0.3,0,0.6,0.1,0.9,0.4c0.3,0.3,0.4,0.6,0.3,1c0,3,0,5.8,0,8.8C164.6-78.3,164.5-78,164.2-77.6z M145-87.8v-7.1h-18.3v40.3
				c6.1,0,12.2,0,18.3,0v-7.2h-9.7v-9.6h9v-6.8h-9v-9.4h9.7V-87.8z M116.7-76.7c2.3-0.9,3.5-3,3.5-6.4v-3.7c0-5.5-2.6-8.2-7.7-8.2
				c-5.2,0-10.4,0-15.5,0v40.7c5.3-0.1,10.7-0.3,16-0.3c5.1-0.1,7.7-2.7,7.7-8.1v-7.2C120.8-73.4,119.4-75.7,116.7-76.7z M105.7-89
				c1.5,0,3.1,0,4.6,0c0.3,0,0.6,0.1,0.8,0.4c0.4,0.5,0.4,1,0.1,1.8c0,2.4,0.1,4.5,0.1,6.9c0.2,0.6,0.1,1-0.2,1.4
				c-0.2,0.3-0.5,0.4-0.8,0.4c-1.6,0-3.1,0-4.6,0V-89z M111.6-60.9c-0.2,0.3-0.5,0.4-0.8,0.4c-1.7,0-3.4,0-5.1,0.1V-72
				c1.7,0,3.4,0,5.1,0c0.3,0,0.6,0.1,0.8,0.4c0.4,0.4,0.5,1.1,0.1,1.7c-0.1,2.5-0.1,4.3-0.2,6.8C112-62.3,112.2-61.5,111.6-60.9z
				 M91.4-81.6v-5c0-5.5-2.6-8.3-7.7-8.3c-5.2,0-10.3,0-15.5,0v42.2c2.9-0.2,5.8-0.4,8.7-0.6v-17c1.4-0.1,2.8-0.1,4.2-0.2
				c0.8,0,1.2,0.4,1.2,1.2v15.6c2.9-0.1,5.8-0.3,8.7-0.4v-16.2c0-2.7-1-4.4-3.1-5.1C90.2-76.3,91.4-78.3,91.4-81.6z M82.4-77.2
				c-0.2,0.3-0.5,0.4-0.8,0.4c-1.6,0-3.1,0.1-4.6,0.1v-12.1c1.5,0,3.1,0,4.6,0c0.3,0,0.6,0.1,0.8,0.4c0.3,0.3,0.4,0.6,0.3,1
				c0,3,0,5.9-0.1,8.9C82.8-78,82.7-77.5,82.4-77.2z M54-95.5h-8.3c-5.1,0-7.7,3.1-7.7,9.3v36.9c2.9-0.4,5.8-0.8,8.7-1.2v-14.9
				c2.1-0.2,4.2-0.3,6.3-0.5v14.6c2.9-0.3,5.8-0.6,8.7-0.9v-34.6C61.7-92.6,59.2-95.5,54-95.5z M53-73.2c-2.1,0.1-4.2,0.3-6.3,0.4
				v-14.8c0-0.4,0.1-0.7,0.3-1s0.5-0.4,0.8-0.4c1.3,0,2.6,0,3.9-0.1c0.3,0,0.6,0.1,0.8,0.4s0.4,0.6,0.4,0.9L53-73.2L53-73.2z
				 M28-73.5c2.4-1.2,3.5-3.8,3.5-7.6v-4.2c0-6.3-2.6-9.5-7.7-9.5c-5.2,0-10.3,0-15.5,0v51.1c5.3-1.2,10.6-2.4,16-3.4
				c5.1-1,7.7-4.4,7.7-10.6V-66C32.1-70.1,30.8-72.6,28-73.5z M17.1-87.6c1.5,0,3-0.1,4.6-0.2c0.3,0,0.6,0.1,0.8,0.4
				c0.3,0.4,0.4,0.9,0.3,1.5c0,2.9,0,5.8,0,8.7c0.2,0.6,0.1,1.2-0.3,1.7C22.3-75.2,22-75,21.7-75c-1.6,0.1-3.1,0.3-4.6,0.4V-87.6z
				 M23.4-55.5c0,0.4-0.1,0.8-0.3,1.1c-0.2,0.3-0.5,0.5-0.8,0.6c-1.7,0.3-3.4,0.6-5.1,0.9V-67c1.7-0.2,3.4-0.4,5.1-0.6
				c0.3,0,0.6,0.1,0.8,0.4c0.2,0.3,0.3,0.6,0.3,1V-55.5z"/>
		</g>
		<rect x="-112.3" y="-75.1" class="st0" width="110.1" height="4.5"/>
		<rect x="302" y="-75.1" class="st0" width="110.1" height="4.5"/>
	</g>
</g>
<g>
	<g>
		<path class="st1" d="M150.7,274.4c-3.3,2.8-7.9,6.6-11.4,7.7c-11,3.4-22-11.3-12-22.5C130.6,256.3,142.1,274.4,150.7,274.4z"/>
		<path class="st1" d="M175.8,246.9h-21.5c5.5,5.2,13.4,12.8,13.4,12.8c0.9,0,6.9-4.9,15.7-12.8c4.1-3.7,8.9-8.1,14-12.8v-6.8
			C188.8,235.4,181.2,242.3,175.8,246.9z M90.3,199.1c-20.2-20.4-86.7-81.3-43.6-40.6c39.8,36.7,52.6,54,59.9,62.7
			c0.2,0.2,0.4,0.4,0.5,0.6v-3.6C101.3,211.4,97.3,206.3,90.3,199.1z M57.3,172.1c-37.5-37.5-33.9-27.1-25.2-40.8
			c2.1-4-5.1,2.7-7.5,6.5c-4.4,6.6,2.7,7.3,21.3,25.9c39.5,39.3,48.7,53.4,61.4,67.6v-3.4C96,214.8,84.4,198.8,57.3,172.1z
			 M107.2,221.7v6.1c4,4.7,8,8.9,12.6,13.3v-5.9C116,231.5,111.7,227.1,107.2,221.7z M149.4,246.9c-2-1.9-4.2-3.7-6.2-5.7l-2.8,0.7
			c2.5,2.2,4.3,3.8,5.4,5c4,4.1,1.2,3.3-0.9,4.3c-9.6,4.7,1.4,14.9-7.5,7.7c-5.6-4.5-10.2-8.4-14.2-12c-0.3-0.2-0.4-0.4-0.7-0.6
			c-0.9-0.8-1.8-1.6-2.7-2.4c-5-4.6-8.9-8.7-12.6-12.8v3c4.3,4.5,8.1,8.1,12.6,12v0.6h0.7c5.9,5.2,13.2,11.3,24.4,21.2
			c4.5,3.8,5.3,2.3,11.2,3.5c20,3.3,8.9,22.3,18.2,24.5c2,0.6,5.1-0.5,5.2-0.5c1.3-0.5,2.2-2,2.7-3.3
			C186.4,282.3,169.5,265.3,149.4,246.9z M119.9,195.1v1l0.5-0.1C120.2,195.7,120,195.4,119.9,195.1z M116.5,222
			c-6.6-5.6-2.7-1.8,3.3,4v-1.2C118.8,223.8,117.6,222.8,116.5,222z M254.4,138.5c0-5,4.4-8.8,9.7-7.9c-5.9-1.8-12,2.4-12,8.8
			c-0.1,11.9,17.4,12.5,18.3,0.9C268.4,149.6,254.4,148.5,254.4,138.5z M256,138.5c0,8.6,12.8,8.8,12.8,0.1
			C268.9,130,256,130.1,256,138.5z"/>
		<path class="st1" d="M127.2,259.6c-10,11.2,1.1,25.9,12,22.5c3.5-1.1,8.1-4.9,11.4-7.7C142.1,274.4,130.6,256.3,127.2,259.6z
			 M142.6,257.4c-0.4,1-0.3,1.7,0.4,1.7C142.8,258.4,142.6,257.9,142.6,257.4z M142.6,257.4c0.8-2.4,4.1-6.3,7.9-3.4
			C147.7,251.1,142.5,253,142.6,257.4z M145,257.9c0,3.5,5.3,3.5,5.3,0C150.3,254.4,145.1,254.5,145,257.9z M142.6,257.4
			c0.8-2.4,4.1-6.3,7.9-3.4C147.7,251.1,142.5,253,142.6,257.4z M142.6,257.4c-0.4,1-0.3,1.7,0.4,1.7
			C142.8,258.4,142.6,257.9,142.6,257.4z M145,257.9c0,3.5,5.3,3.5,5.3,0C150.3,254.4,145.1,254.5,145,257.9z M142.6,257.4
			c-0.4,1-0.3,1.7,0.4,1.7C142.8,258.4,142.6,257.9,142.6,257.4z M142.6,257.4c0.8-2.4,4.1-6.3,7.9-3.4
			C147.7,251.1,142.5,253,142.6,257.4z M145,257.9c0,3.5,5.3,3.5,5.3,0C150.3,254.4,145.1,254.5,145,257.9z M142.6,257.4
			c0.8-2.4,4.1-6.3,7.9-3.4C147.7,251.1,142.5,253,142.6,257.4z M142.6,257.4c-0.4,1-0.3,1.7,0.4,1.7
			C142.8,258.4,142.6,257.9,142.6,257.4z M145,257.9c0,3.5,5.3,3.5,5.3,0C150.3,254.4,145.1,254.5,145,257.9z M142.6,257.4
			c-0.4,1-0.3,1.7,0.4,1.7C142.8,258.4,142.6,257.9,142.6,257.4z M142.6,257.4c0.8-2.4,4.1-6.3,7.9-3.4
			C147.7,251.1,142.5,253,142.6,257.4z M145,257.9c0,3.5,5.3,3.5,5.3,0C150.3,254.4,145.1,254.5,145,257.9z M142.6,257.4
			c0.8-2.4,4.1-6.3,7.9-3.4C147.7,251.1,142.5,253,142.6,257.4z M142.6,257.4c-0.4,1-0.3,1.7,0.4,1.7
			C142.8,258.4,142.6,257.9,142.6,257.4z M145,257.9c0,3.5,5.3,3.5,5.3,0C150.3,254.4,145.1,254.5,145,257.9z M142.6,257.4
			c-0.4,1-0.3,1.7,0.4,1.7C142.8,258.4,142.6,257.9,142.6,257.4z M142.6,257.4c0.8-2.4,4.1-6.3,7.9-3.4
			C147.7,251.1,142.5,253,142.6,257.4z M145,257.9c0,3.5,5.3,3.5,5.3,0C150.3,254.4,145.1,254.5,145,257.9z M142.6,257.4
			c0.8-2.4,4.1-6.3,7.9-3.4C147.7,251.1,142.5,253,142.6,257.4z M142.6,257.4c-0.4,1-0.3,1.7,0.4,1.7
			C142.8,258.4,142.6,257.9,142.6,257.4z M145,257.9c0,3.5,5.3,3.5,5.3,0C150.3,254.4,145.1,254.5,145,257.9z M142.6,257.4
			c-0.4,1-0.3,1.7,0.4,1.7C142.8,258.4,142.6,257.9,142.6,257.4z M142.6,257.4c0.8-2.4,4.1-6.3,7.9-3.4
			C147.7,251.1,142.5,253,142.6,257.4z M145,257.9c0,3.5,5.3,3.5,5.3,0C150.3,254.4,145.1,254.5,145,257.9z M142.6,257.4
			c0.8-2.4,4.1-6.3,7.9-3.4C147.7,251.1,142.5,253,142.6,257.4z M142.6,257.4c-0.4,1-0.3,1.7,0.4,1.7
			C142.8,258.4,142.6,257.9,142.6,257.4z M145,257.9c0,3.5,5.3,3.5,5.3,0C150.3,254.4,145.1,254.5,145,257.9z M142.6,257.4
			c-0.4,1-0.3,1.7,0.4,1.7C142.8,258.4,142.6,257.9,142.6,257.4z M142.6,257.4c0.8-2.4,4.1-6.3,7.9-3.4
			C147.7,251.1,142.5,253,142.6,257.4z M145,257.9c0,3.5,5.3,3.5,5.3,0C150.3,254.4,145.1,254.5,145,257.9z M142.6,257.4
			c0.8-2.4,4.1-6.3,7.9-3.4C147.7,251.1,142.5,253,142.6,257.4z M142.6,257.4c-0.4,1-0.3,1.7,0.4,1.7
			C142.8,258.4,142.6,257.9,142.6,257.4z M145,257.9c0,3.5,5.3,3.5,5.3,0C150.3,254.4,145.1,254.5,145,257.9z M142.6,257.4
			c-0.4,1-0.3,1.7,0.4,1.7C142.8,258.4,142.6,257.9,142.6,257.4z M142.6,257.4c0.8-2.4,4.1-6.3,7.9-3.4
			C147.7,251.1,142.5,253,142.6,257.4z M145,257.9c0,3.5,5.3,3.5,5.3,0C150.3,254.4,145.1,254.5,145,257.9z M142.6,257.4
			c0.8-2.4,4.1-6.3,7.9-3.4C147.7,251.1,142.5,253,142.6,257.4z M142.6,257.4c-0.4,1-0.3,1.7,0.4,1.7
			C142.8,258.4,142.6,257.9,142.6,257.4z M145,257.9c0,3.5,5.3,3.5,5.3,0C150.3,254.4,145.1,254.5,145,257.9z M142.6,257.4
			c-0.4,1-0.3,1.7,0.4,1.7C142.8,258.4,142.6,257.9,142.6,257.4z M142.6,257.4c0.8-2.4,4.1-6.3,7.9-3.4
			C147.7,251.1,142.5,253,142.6,257.4z M145,257.9c0,3.5,5.3,3.5,5.3,0C150.3,254.4,145.1,254.5,145,257.9z M142.6,257.4
			c0.8-2.4,4.1-6.3,7.9-3.4C147.7,251.1,142.5,253,142.6,257.4z M142.6,257.4c-0.4,1-0.3,1.7,0.4,1.7
			C142.8,258.4,142.6,257.9,142.6,257.4z M145,257.9c0,3.5,5.3,3.5,5.3,0C150.3,254.4,145.1,254.5,145,257.9z M142.6,257.4
			c-0.4,1-0.3,1.7,0.4,1.7C142.8,258.4,142.6,257.9,142.6,257.4z M142.6,257.4c0.8-2.4,4.1-6.3,7.9-3.4
			C147.7,251.1,142.5,253,142.6,257.4z M145,257.9c0,3.5,5.3,3.5,5.3,0C150.3,254.4,145.1,254.5,145,257.9z M142.6,257.4
			c0.8-2.4,4.1-6.3,7.9-3.4C147.7,251.1,142.5,253,142.6,257.4z M142.6,257.4c-0.4,1-0.3,1.7,0.4,1.7
			C142.8,258.4,142.6,257.9,142.6,257.4z M145,257.9c0,3.5,5.3,3.5,5.3,0C150.3,254.4,145.1,254.5,145,257.9z M107.2,221.7v6.1
			c4,4.7,8,8.9,12.6,13.3v-5.9C116,231.5,111.7,227.1,107.2,221.7z M142.6,257.4c-0.4,1-0.3,1.7,0.4,1.7
			C142.8,258.4,142.6,257.9,142.6,257.4z M142.6,257.4c0.8-2.4,4.1-6.3,7.9-3.4C147.7,251.1,142.5,253,142.6,257.4z M145,257.9
			c0,3.5,5.3,3.5,5.3,0C150.3,254.4,145.1,254.5,145,257.9z M142.6,257.4c0.8-2.4,4.1-6.3,7.9-3.4
			C147.7,251.1,142.5,253,142.6,257.4z M142.6,257.4c-0.4,1-0.3,1.7,0.4,1.7C142.8,258.4,142.6,257.9,142.6,257.4z M145,257.9
			c0,3.5,5.3,3.5,5.3,0C150.3,254.4,145.1,254.5,145,257.9z M142.6,257.4c-0.4,1-0.3,1.7,0.4,1.7
			C142.8,258.4,142.6,257.9,142.6,257.4z M142.6,257.4c0.8-2.4,4.1-6.3,7.9-3.4C147.7,251.1,142.5,253,142.6,257.4z M145,257.9
			c0,3.5,5.3,3.5,5.3,0C150.3,254.4,145.1,254.5,145,257.9z M142.6,257.4c0.8-2.4,4.1-6.3,7.9-3.4
			C147.7,251.1,142.5,253,142.6,257.4z M142.6,257.4c-0.4,1-0.3,1.7,0.4,1.7C142.8,258.4,142.6,257.9,142.6,257.4z M145,257.9
			c0,3.5,5.3,3.5,5.3,0C150.3,254.4,145.1,254.5,145,257.9z M142.6,257.4c-0.4,1-0.3,1.7,0.4,1.7
			C142.8,258.4,142.6,257.9,142.6,257.4z M142.6,257.4c0.8-2.4,4.1-6.3,7.9-3.4C147.7,251.1,142.5,253,142.6,257.4z M145,257.9
			c0,3.5,5.3,3.5,5.3,0C150.3,254.4,145.1,254.5,145,257.9z M142.6,257.4c0.8-2.4,4.1-6.3,7.9-3.4
			C147.7,251.1,142.5,253,142.6,257.4z M143,259.1c-0.2-0.6-0.3-1.2-0.4-1.7C142.4,258.3,142.4,259.1,143,259.1z M145,257.9
			c0,3.5,5.3,3.5,5.3,0C150.3,254.4,145.1,254.5,145,257.9z M149.4,246.9c-2-1.9-4.2-3.7-6.2-5.7l-2.8,0.7c2.5,2.2,4.3,3.8,5.4,5
			c4,4.1,1.2,3.3-0.9,4.3c-9.6,4.7,1.4,14.9-7.5,7.7c-5.6-4.5-10.2-8.4-14.2-12c-0.3-0.2-0.4-0.4-0.7-0.6c-0.9-0.8-1.8-1.6-2.7-2.4
			c-5-4.6-8.9-8.7-12.6-12.8v3c4.3,4.5,8.1,8.1,12.6,12c0.2,0.2,0.4,0.4,0.5,0.5c0.1,0,0.1,0.1,0.2,0.2c5.9,5.2,13.2,11.3,24.4,21.2
			c4.5,3.8,5.3,2.3,11.2,3.5c20,3.3,8.9,22.3,18.2,24.5c2,0.6,5.1-0.5,5.2-0.5c1.3-0.5,2.2-2,2.7-3.3
			C186.4,282.3,169.5,265.3,149.4,246.9z M147.7,261.5c-4.5,0-4.7-7.1,0-7.1C152.5,254.5,152.4,261.5,147.7,261.5z M152,258.8
			c1.9-5.8-8.8-7.7-8.8-0.9c-0.3,0,0.3,3.7,3.5,4.3c-2.6-0.2-4.5-2.4-4.5-5C142.3,249.2,154.8,251.9,152,258.8z M145,257.9
			c0,3.5,5.3,3.5,5.3,0C150.3,254.4,145.1,254.5,145,257.9z M142.6,257.4c0.8-2.4,4.1-6.3,7.9-3.4
			C147.7,251.1,142.5,253,142.6,257.4z M143,259.1c-0.2-0.6-0.3-1.2-0.4-1.7C142.4,258.3,142.4,259.1,143,259.1z M145,257.9
			c0,3.5,5.3,3.5,5.3,0C150.3,254.4,145.1,254.5,145,257.9z M142.6,257.4c-0.4,1-0.3,1.7,0.4,1.7
			C142.8,258.4,142.6,257.9,142.6,257.4z M142.6,257.4c0.8-2.4,4.1-6.3,7.9-3.4C147.7,251.1,142.5,253,142.6,257.4z M145,257.9
			c0,3.5,5.3,3.5,5.3,0C150.3,254.4,145.1,254.5,145,257.9z M142.6,257.4c0.8-2.4,4.1-6.3,7.9-3.4
			C147.7,251.1,142.5,253,142.6,257.4z M142.6,257.4c-0.4,1-0.3,1.7,0.4,1.7C142.8,258.4,142.6,257.9,142.6,257.4z M145,257.9
			c0,3.5,5.3,3.5,5.3,0C150.3,254.4,145.1,254.5,145,257.9z M142.6,257.4c-0.4,1-0.3,1.7,0.4,1.7
			C142.8,258.4,142.6,257.9,142.6,257.4z M142.6,257.4c0.8-2.4,4.1-6.3,7.9-3.4C147.7,251.1,142.5,253,142.6,257.4z M145,257.9
			c0,3.5,5.3,3.5,5.3,0C150.3,254.4,145.1,254.5,145,257.9z M142.6,257.4c0.8-2.4,4.1-6.3,7.9-3.4
			C147.7,251.1,142.5,253,142.6,257.4z M142.6,257.4c-0.4,1-0.3,1.7,0.4,1.7C142.8,258.4,142.6,257.9,142.6,257.4z M145,257.9
			c0,3.5,5.3,3.5,5.3,0C150.3,254.4,145.1,254.5,145,257.9z M142.6,257.4c-0.4,1-0.3,1.7,0.4,1.7
			C142.8,258.4,142.6,257.9,142.6,257.4z M142.6,257.4c0.8-2.4,4.1-6.3,7.9-3.4C147.7,251.1,142.5,253,142.6,257.4z M145,257.9
			c0,3.5,5.3,3.5,5.3,0C150.3,254.4,145.1,254.5,145,257.9z M142.6,257.4c0.8-2.4,4.1-6.3,7.9-3.4
			C147.7,251.1,142.5,253,142.6,257.4z M142.6,257.4c-0.4,1-0.3,1.7,0.4,1.7C142.8,258.4,142.6,257.9,142.6,257.4z M119.9,195.1v1
			l0.5-0.1C120.2,195.7,120,195.4,119.9,195.1z M145,257.9c0,3.5,5.3,3.5,5.3,0C150.3,254.4,145.1,254.5,145,257.9z M142.6,257.4
			c-0.4,1-0.3,1.7,0.4,1.7C142.8,258.4,142.6,257.9,142.6,257.4z M142.6,257.4c0.8-2.4,4.1-6.3,7.9-3.4
			C147.7,251.1,142.5,253,142.6,257.4z M145,257.9c0,3.5,5.3,3.5,5.3,0C150.3,254.4,145.1,254.5,145,257.9z M142.6,257.4
			c0.8-2.4,4.1-6.3,7.9-3.4C147.7,251.1,142.5,253,142.6,257.4z M142.6,257.4c-0.4,1-0.3,1.7,0.4,1.7
			C142.8,258.4,142.6,257.9,142.6,257.4z M145,257.9c0,3.5,5.3,3.5,5.3,0C150.3,254.4,145.1,254.5,145,257.9z M142.6,257.4
			c-0.4,1-0.3,1.7,0.4,1.7C142.8,258.4,142.6,257.9,142.6,257.4z M142.6,257.4c0.8-2.4,4.1-6.3,7.9-3.4
			C147.7,251.1,142.5,253,142.6,257.4z M145,257.9c0,3.5,5.3,3.5,5.3,0C150.3,254.4,145.1,254.5,145,257.9z M142.6,257.4
			c0.8-2.4,4.1-6.3,7.9-3.4C147.7,251.1,142.5,253,142.6,257.4z M142.6,257.4c-0.4,1-0.3,1.7,0.4,1.7
			C142.8,258.4,142.6,257.9,142.6,257.4z M145,257.9c0,3.5,5.3,3.5,5.3,0C150.3,254.4,145.1,254.5,145,257.9z M142.6,257.4
			c-0.4,1-0.3,1.7,0.4,1.7C142.8,258.4,142.6,257.9,142.6,257.4z M142.6,257.4c0.8-2.4,4.1-6.3,7.9-3.4
			C147.7,251.1,142.5,253,142.6,257.4z M145,257.9c0,3.5,5.3,3.5,5.3,0C150.3,254.4,145.1,254.5,145,257.9z M142.6,257.4
			c0.8-2.4,4.1-6.3,7.9-3.4C147.7,251.1,142.5,253,142.6,257.4z M142.6,257.4c-0.4,1-0.3,1.7,0.4,1.7
			C142.8,258.4,142.6,257.9,142.6,257.4z M145,257.9c0,3.5,5.3,3.5,5.3,0C150.3,254.4,145.1,254.5,145,257.9z M142.6,257.4
			c-0.4,1-0.3,1.7,0.4,1.7C142.8,258.4,142.6,257.9,142.6,257.4z M142.6,257.4c0.8-2.4,4.1-6.3,7.9-3.4
			C147.7,251.1,142.5,253,142.6,257.4z M145,257.9c0,3.5,5.3,3.5,5.3,0C150.3,254.4,145.1,254.5,145,257.9z M142.6,257.4
			c0.8-2.4,4.1-6.3,7.9-3.4C147.7,251.1,142.5,253,142.6,257.4z M142.6,257.4c-0.4,1-0.3,1.7,0.4,1.7
			C142.8,258.4,142.6,257.9,142.6,257.4z M145,257.9c0,3.5,5.3,3.5,5.3,0C150.3,254.4,145.1,254.5,145,257.9z M142.6,257.4
			c-0.4,1-0.3,1.7,0.4,1.7C142.8,258.4,142.6,257.9,142.6,257.4z M142.6,257.4c0.8-2.4,4.1-6.3,7.9-3.4
			C147.7,251.1,142.5,253,142.6,257.4z M145,257.9c0,3.5,5.3,3.5,5.3,0C150.3,254.4,145.1,254.5,145,257.9z M142.6,257.4
			c0.8-2.4,4.1-6.3,7.9-3.4C147.7,251.1,142.5,253,142.6,257.4z M142.6,257.4c-0.4,1-0.3,1.7,0.4,1.7
			C142.8,258.4,142.6,257.9,142.6,257.4z M145,257.9c0,3.5,5.3,3.5,5.3,0C150.3,254.4,145.1,254.5,145,257.9z M142.6,257.4
			c-0.4,1-0.3,1.7,0.4,1.7C142.8,258.4,142.6,257.9,142.6,257.4z M142.6,257.4c0.8-2.4,4.1-6.3,7.9-3.4
			C147.7,251.1,142.5,253,142.6,257.4z M145,257.9c0,3.5,5.3,3.5,5.3,0C150.3,254.4,145.1,254.5,145,257.9z M142.6,257.4
			c0.8-2.4,4.1-6.3,7.9-3.4C147.7,251.1,142.5,253,142.6,257.4z M142.6,257.4c-0.4,1-0.3,1.7,0.4,1.7
			C142.8,258.4,142.6,257.9,142.6,257.4z M145,257.9c0,3.5,5.3,3.5,5.3,0C150.3,254.4,145.1,254.5,145,257.9z M142.6,257.4
			c-0.4,1-0.3,1.7,0.4,1.7C142.8,258.4,142.6,257.9,142.6,257.4z M142.6,257.4c0.8-2.4,4.1-6.3,7.9-3.4
			C147.7,251.1,142.5,253,142.6,257.4z M145,257.9c0,3.5,5.3,3.5,5.3,0C150.3,254.4,145.1,254.5,145,257.9z M142.6,257.4
			c0.8-2.4,4.1-6.3,7.9-3.4C147.7,251.1,142.5,253,142.6,257.4z M142.6,257.4c-0.4,1-0.3,1.7,0.4,1.7
			C142.8,258.4,142.6,257.9,142.6,257.4z M145,257.9c0,3.5,5.3,3.5,5.3,0C150.3,254.4,145.1,254.5,145,257.9z M142.6,257.4
			c-0.4,1-0.3,1.7,0.4,1.7C142.8,258.4,142.6,257.9,142.6,257.4z M142.6,257.4c0.8-2.4,4.1-6.3,7.9-3.4
			C147.7,251.1,142.5,253,142.6,257.4z M145,257.9c0,3.5,5.3,3.5,5.3,0C150.3,254.4,145.1,254.5,145,257.9z M142.6,257.4
			c0.8-2.4,4.1-6.3,7.9-3.4C147.7,251.1,142.5,253,142.6,257.4z M142.6,257.4c-0.4,1-0.3,1.7,0.4,1.7
			C142.8,258.4,142.6,257.9,142.6,257.4z M145,257.9c0,3.5,5.3,3.5,5.3,0C150.3,254.4,145.1,254.5,145,257.9z M142.6,257.4
			c-0.4,1-0.3,1.7,0.4,1.7C142.8,258.4,142.6,257.9,142.6,257.4z M142.6,257.4c0.8-2.4,4.1-6.3,7.9-3.4
			C147.7,251.1,142.5,253,142.6,257.4z M145,257.9c0,3.5,5.3,3.5,5.3,0C150.3,254.4,145.1,254.5,145,257.9z M142.6,257.4
			c0.8-2.4,4.1-6.3,7.9-3.4C147.7,251.1,142.5,253,142.6,257.4z M142.6,257.4c-0.4,1-0.3,1.7,0.4,1.7
			C142.8,258.4,142.6,257.9,142.6,257.4z M145,257.9c0,3.5,5.3,3.5,5.3,0C150.3,254.4,145.1,254.5,145,257.9z M142.6,257.4
			c0.8-2.4,4.1-6.3,7.9-3.4C147.7,251.1,142.5,253,142.6,257.4z M142.6,257.4c-0.4,1-0.3,1.7,0.4,1.7
			C142.8,258.4,142.6,257.9,142.6,257.4z M145,257.9c0,3.5,5.3,3.5,5.3,0C150.3,254.4,145.1,254.5,145,257.9z M142.6,257.4
			c0.8-2.4,4.1-6.3,7.9-3.4C147.7,251.1,142.5,253,142.6,257.4z M142.6,257.4c-0.4,1-0.3,1.7,0.4,1.7
			C142.8,258.4,142.6,257.9,142.6,257.4z M257.6,138.5c0,6.5,9.7,6.6,9.7,0C267.3,132.2,257.6,132.3,257.6,138.5z M257.6,138.5
			c0,6.5,9.7,6.6,9.7,0C267.3,132.2,257.6,132.3,257.6,138.5z M255.2,133.4c-6.2,6.2,0.1,17.1,9.1,13.9
			C254.9,148.6,251.3,138.9,255.2,133.4z M255.2,133.4c-6.2,6.2,0.1,17.1,9.1,13.9C254.9,148.6,251.3,138.9,255.2,133.4z
			 M255.2,133.4c-6.2,6.2,0.1,17.1,9.1,13.9C254.9,148.6,251.3,138.9,255.2,133.4z M257.6,138.5c0,6.5,9.7,6.6,9.7,0
			C267.3,132.2,257.6,132.3,257.6,138.5z M255.2,133.4c-6.2,6.2,0.1,17.1,9.1,13.9C254.9,148.6,251.3,138.9,255.2,133.4z
			 M257.6,138.5c0,6.5,9.7,6.6,9.7,0C267.3,132.2,257.6,132.3,257.6,138.5z M255.2,133.4c-6.2,6.2,0.1,17.1,9.1,13.9
			C254.9,148.6,251.3,138.9,255.2,133.4z M257.6,138.5c0,6.5,9.7,6.6,9.7,0C267.3,132.2,257.6,132.3,257.6,138.5z M255.2,133.4
			c-6.2,6.2,0.1,17.1,9.1,13.9C254.9,148.6,251.3,138.9,255.2,133.4z M257.6,138.5c0,6.5,9.7,6.6,9.7,0
			C267.3,132.2,257.6,132.3,257.6,138.5z M255.2,133.4c-6.2,6.2,0.1,17.1,9.1,13.9C254.9,148.6,251.3,138.9,255.2,133.4z
			 M257.6,138.5c0,6.5,9.7,6.6,9.7,0C267.3,132.2,257.6,132.3,257.6,138.5z M255.2,133.4c-6.2,6.2,0.1,17.1,9.1,13.9
			C254.9,148.6,251.3,138.9,255.2,133.4z M257.6,138.5c0,6.5,9.7,6.6,9.7,0C267.3,132.2,257.6,132.3,257.6,138.5z M255.2,133.4
			c-6.2,6.2,0.1,17.1,9.1,13.9C254.9,148.6,251.3,138.9,255.2,133.4z M257.6,138.5c0,6.5,9.7,6.6,9.7,0
			C267.3,132.2,257.6,132.3,257.6,138.5z M255.2,133.4c-6.2,6.2,0.1,17.1,9.1,13.9C254.9,148.6,251.3,138.9,255.2,133.4z
			 M257.6,138.5c0,6.5,9.7,6.6,9.7,0C267.3,132.2,257.6,132.3,257.6,138.5z M255.2,133.4c-6.2,6.2,0.1,17.1,9.1,13.9
			C254.9,148.6,251.3,138.9,255.2,133.4z M257.6,138.5c0,6.5,9.7,6.6,9.7,0C267.3,132.2,257.6,132.3,257.6,138.5z M255.2,133.4
			c-6.2,6.2,0.1,17.1,9.1,13.9C254.9,148.6,251.3,138.9,255.2,133.4z M257.6,138.5c0,6.5,9.7,6.6,9.7,0
			C267.3,132.2,257.6,132.3,257.6,138.5z M255.2,133.4c-6.2,6.2,0.1,17.1,9.1,13.9C254.9,148.6,251.3,138.9,255.2,133.4z
			 M257.6,138.5c0,6.5,9.7,6.6,9.7,0C267.3,132.2,257.6,132.3,257.6,138.5z M255.2,133.4c-6.2,6.2,0.1,17.1,9.1,13.9
			C254.9,148.6,251.3,138.9,255.2,133.4z M257.6,138.5c0,6.5,9.7,6.6,9.7,0C267.3,132.2,257.6,132.3,257.6,138.5z M255.2,133.4
			c-6.2,6.2,0.1,17.1,9.1,13.9C254.9,148.6,251.3,138.9,255.2,133.4z M257.6,138.5c0,6.5,9.7,6.6,9.7,0
			C267.3,132.2,257.6,132.3,257.6,138.5z M255.2,133.4c-6.2,6.2,0.1,17.1,9.1,13.9C254.9,148.6,251.3,138.9,255.2,133.4z
			 M257.6,138.5c0,6.5,9.7,6.6,9.7,0C267.3,132.2,257.6,132.3,257.6,138.5z M175.8,246.9c-4.4,3.8-7.3,6-8,5.8
			c-0.8-0.2,1-2.2,4.9-5.8h-18.3c5.5,5.2,13.4,12.8,13.4,12.8c0.9,0,6.9-4.9,15.7-12.8c4.1-3.7,8.9-8.1,14-12.8v-6.8
			C188.8,235.4,181.2,242.3,175.8,246.9z M255.2,133.4c-6.2,6.2,0.1,17.1,9.1,13.9C254.9,148.6,251.3,138.9,255.2,133.4z
			 M257.6,138.5c0,6.5,9.7,6.6,9.7,0C267.3,132.2,257.6,132.3,257.6,138.5z M257.6,138.5c0,6.5,9.7,6.6,9.7,0
			C267.3,132.2,257.6,132.3,257.6,138.5z M255.2,133.4c-6.2,6.2,0.1,17.1,9.1,13.9C254.9,148.6,251.3,138.9,255.2,133.4z
			 M257.6,138.5c0,6.5,9.7,6.6,9.7,0C267.3,132.2,257.6,132.3,257.6,138.5z M255.2,133.4c-6.2,6.2,0.1,17.1,9.1,13.9
			C254.9,148.6,251.3,138.9,255.2,133.4z M257.6,138.5c0,6.5,9.7,6.6,9.7,0C267.3,132.2,257.6,132.3,257.6,138.5z M255.2,133.4
			c-6.2,6.2,0.1,17.1,9.1,13.9C254.9,148.6,251.3,138.9,255.2,133.4z M257.6,138.5c0,6.5,9.7,6.6,9.7,0
			C267.3,132.2,257.6,132.3,257.6,138.5z M255.2,133.4c-6.2,6.2,0.1,17.1,9.1,13.9C254.9,148.6,251.3,138.9,255.2,133.4z
			 M257.6,138.5c0,6.5,9.7,6.6,9.7,0C267.3,132.2,257.6,132.3,257.6,138.5z M255.2,133.4c-6.2,6.2,0.1,17.1,9.1,13.9
			C254.9,148.6,251.3,138.9,255.2,133.4z M257.6,138.5c0,6.5,9.7,6.6,9.7,0C267.3,132.2,257.6,132.3,257.6,138.5z M255.2,133.4
			c-6.2,6.2,0.1,17.1,9.1,13.9C254.9,148.6,251.3,138.9,255.2,133.4z M257.6,138.5c0,6.5,9.7,6.6,9.7,0
			C267.3,132.2,257.6,132.3,257.6,138.5z M255.2,133.4c-6.2,6.2,0.1,17.1,9.1,13.9C254.9,148.6,251.3,138.9,255.2,133.4z
			 M257.6,138.5c0,6.5,9.7,6.6,9.7,0C267.3,132.2,257.6,132.3,257.6,138.5z M255.2,133.4c-6.2,6.2,0.1,17.1,9.1,13.9
			C254.9,148.6,251.3,138.9,255.2,133.4z M257.6,138.5c0,6.5,9.7,6.6,9.7,0C267.3,132.2,257.6,132.3,257.6,138.5z M255.2,133.4
			c-6.2,6.2,0.1,17.1,9.1,13.9C254.9,148.6,251.3,138.9,255.2,133.4z M257.6,138.5c0,6.5,9.7,6.6,9.7,0
			C267.3,132.2,257.6,132.3,257.6,138.5z M255.2,133.4c-6.2,6.2,0.1,17.1,9.1,13.9C254.9,148.6,251.3,138.9,255.2,133.4z
			 M257.6,138.5c0,6.5,9.7,6.6,9.7,0C267.3,132.2,257.6,132.3,257.6,138.5z M255.2,133.4c-6.2,6.2,0.1,17.1,9.1,13.9
			C254.9,148.6,251.3,138.9,255.2,133.4z M257.6,138.5c0,6.5,9.7,6.6,9.7,0C267.3,132.2,257.6,132.3,257.6,138.5z M255.2,133.4
			c-6.2,6.2,0.1,17.1,9.1,13.9C254.9,148.6,251.3,138.9,255.2,133.4z M257.6,138.5c0,6.5,9.7,6.6,9.7,0
			C267.3,132.2,257.6,132.3,257.6,138.5z M255.2,133.4c-6.2,6.2,0.1,17.1,9.1,13.9C254.9,148.6,251.3,138.9,255.2,133.4z
			 M257.6,138.5c0,6.5,9.7,6.6,9.7,0C267.3,132.2,257.6,132.3,257.6,138.5z M255.2,133.4c-6.2,6.2,0.1,17.1,9.1,13.9
			C254.9,148.6,251.3,138.9,255.2,133.4z M257.6,138.5c0,6.5,9.7,6.6,9.7,0C267.3,132.2,257.6,132.3,257.6,138.5z M255.2,133.4
			c-6.2,6.2,0.1,17.1,9.1,13.9C254.9,148.6,251.3,138.9,255.2,133.4z M257.6,138.5c0,6.5,9.7,6.6,9.7,0
			C267.3,132.2,257.6,132.3,257.6,138.5z M255.2,133.4c-6.2,6.2,0.1,17.1,9.1,13.9C254.9,148.6,251.3,138.9,255.2,133.4z"/>
		<path class="st1" d="M121.5,221.4c-2.2-2.1-4.4-4.3-6.6-6.4c-0.9,0,6.3-5,6.6-12.8c0.1-2.3,0.3-3.7-1.3-6.3l-0.5,0.1v-1
			c-1.9-2.8-5.5-6.9-12.6-14.2c-6.6-6.7-16-16.1-29.7-29.8c-18.2-18.1-32.5-32.5-36-32.8c-5.3-0.8-19.9,17.3-20.9,21.7
			c-2.4,10,6.5,0.4,79.3,86.3c2.7,2.9,5,5.5,7.3,7.8v-3c-12.8-14.2-21.9-28.2-61.4-67.6c-18.6-18.5-25.7-19.2-21.3-25.9
			c2.4-3.7,9.7-10.4,7.5-6.5c-8.7,13.7-12.2,3.3,25.2,40.8c27,26.7,38.6,42.7,49.9,55.7v-6.1c-0.2-0.2-0.4-0.4-0.5-0.6
			c-7.3-8.7-20.2-26-59.9-62.7C3.5,117.7,70.1,178.7,90.3,199c7,7.2,10.9,12.3,16.9,18.9c3.3,3.6,7.3,7.7,12.6,12.8v-5
			c-6-5.8-9.8-9.5-3.3-4c1.2,1,2.2,1.9,3.3,2.7c9.7,8.1,16.2,13.5,20.5,17.3l2.8-0.7C135.9,234.7,128.4,228,121.5,221.4z
			 M107.2,197.9c-12-11.3-35.6-34.4-71.8-70.9c0.8-0.8,4.4-4.7,5.6-4.7c2.9,0.6,46.6,44.3,66.2,64.7c3.9,4.1,6.9,7.3,8.4,8.9
			c4.8,5.7,0.7,1.9-8.4-6.8c-12.1-11.7-33.1-32.3-53.7-51.8c-41.9-39.8,38.8,40.3,53.7,53.7c1.3,1.2,2.1,1.9,2.2,1.9
			c8.3,8.1,8.8,7.3,8,10.3c-2-2.2-5.7-5.8-10.3-10.3C76.5,163,2.9,94,63.6,153c19.9,19.2,34.6,33.8,43.5,42.8
			C119.9,208.8,120.4,210.4,107.2,197.9z"/>
		<path class="st1" d="M269.9,120.7c-15.5-6.7-22,14.5-44.9,43.9c-9,11.7-18.6,22.6-27.7,32.1c-4.3,4.5-8.6,8.9-12.6,12.8
			c-14.7,14.3-26.9,24.7-32.5,29.5c-2.1,1.9-3.3,2.8-3.1,2.9c0.1,0.1,2.3,2.2,5.1,5h18.3c5-4.9,13.7-12.7,24.7-23.1v-5.7
			c-4,3.8-8.1,7.9-12.6,12v1l-1.4,0.4c-3.6,3.4-7.3,6.8-11.2,10.4c-10.1,9.6-4.7,3.4,7.4-9.5c1.6-1.8,3.4-3.6,5.2-5.6
			c3.8-4.1,8.1-8.6,12.6-13.3c20.5-21.5,46-47.9,58.1-60.8c1-1,0.9,0.1-1.8-1.9c-5.9-4.9-4.8-13.7-3.7-10.5
			c3.8,17.6,19.1,7.6,14.8,14.3c-8.6,14-42.1,48.4-67.4,72.5v6.8c31.7-29.9,77.7-77.6,81-96.2C279.7,129.5,276.1,123.3,269.9,120.7z
			 M268.9,138.6c0,8.7-12.9,8.5-12.8-0.1C256,130.1,268.9,130,268.9,138.6z M252.1,139.4c0-6.4,6.1-10.5,12-8.8
			c-5.2-0.9-9.7,2.9-9.7,7.9c0,9.9,14,11.1,15.9,1.8C269.4,151.9,252,151.2,252.1,139.4z"/>
	</g>
</g>
</svg>
