<?xml version="1.0" encoding="utf-8"?>
<!-- Generator: Adobe Illustrator 28.2.0, SVG Export Plug-In . SVG Version: 6.00 Build 0)  -->
<svg version="1.1" id="Layer_1" xmlns="http://www.w3.org/2000/svg" xmlns:xlink="http://www.w3.org/1999/xlink" x="0px" y="0px"
	 viewBox="0 0 819.5 358" style="enable-background:new 0 0 819.5 358;" xml:space="preserve">
<style type="text/css">
	.st0{fill-rule:evenodd;clip-rule:evenodd;fill:#FFFFFF;}
	.st1{fill:#FFFFFF;}
	.st2{fill:#777777;}
</style>
<g>
	<g>
		<path class="st0" d="M1316.4-214.3c5.8,2.4,9.1,8.3,7.8,16.1c-4.6,26.2-99.8,114-103.6,114c0,0-17.1-16.3-17.4-16.6
			c-0.8-0.4,38.5-30.2,71.1-72.5C1295.7-200.7,1301.8-220.6,1316.4-214.3z M1311.5-182.5c4-6.2-10.3,3.1-13.9-13.3
			c-1-3-2,5.3,3.5,9.8c2.5,1.9,2.6,0.9,1.7,1.8c-24.1,25.5-103.5,107.4-78.1,83.5c60.4-55.3,79.4-83.2,80.7-83.2
			c3.6,1.1,3.4,0.9-2.2,7.7c-44.2,53.3-85.6,84.8-82.5,85.6C1224.1-89.8,1298.4-161.3,1311.5-182.5z M1172.7-119.6
			c-12.7-10.7,15.9,15.6,19.3,19.1c5,5.3,5.2,8.1,0.1,3.7c-29.1-24.6-30.7-30.7-43.9-44.2c-18.9-19-81.2-76.1-40.8-38.1
			c37.2,34.4,49.2,50.6,56.1,58.7c17.5,20.7,30.5,26.8,30,30c-0.2,0.7-0.4,1.5-1.2,1.2c-1.3-0.3-11.2-7.9-13-9.4
			c-18.9-16.3-25.3-31.3-62-67.7c-35.1-35.1-31.8-25.4-23.7-38.2c2-3.7-4.8,2.6-7,6.1c-4.2,6.2,2.5,6.9,19.9,24.2
			c57.5,57.1,46.3,57.4,85.7,89.2c8.3,6.7-1.9-2.8,7-7.2C1203-93.9,1208.6-89.8,1172.7-119.6z M1113.7-198.8
			c33.6,31.9,68.6,67.3,58.1,54.9c-8.3-9.5-66.6-68.3-69.9-68.9c-1.1,0-4.5,3.6-5.2,4.4c97.1,97.9,96.6,91.9,26.6,24.4
			c-65.4-63.5,35.4,31.3,50.3,47c0.7-2.7,0.3-1.9-7.5-9.6C1164.7-146.7,1071-239.5,1113.7-198.8z M1316.7-196
			c-1.8,8.7-15,7.6-15-1.7c0-4.6,4.2-8.2,9.1-7.4c-5.6-1.7-11.3,2.3-11.3,8.2C1299.5-185.8,1315.8-185.1,1316.7-196L1316.7-196z
			 M1311.1-189.4c-8.5,3-14.4-7.2-8.5-13C1298.8-197.3,1302.3-188.2,1311.1-189.4z M1303.3-197.6c0,8,12,8.2,12,0
			C1315.4-205.6,1303.3-205.5,1303.3-197.6L1303.3-197.6z M1313.8-197.6c0,6.1-9.1,6-9,0C1304.8-203.5,1313.9-203.6,1313.8-197.6
			L1313.8-197.6z M1204.5-89.6c-3-3-8.8-0.3-7.1,4.8C1195.6-84.8,1199.5-93.4,1204.5-89.6z M1199.4-85.9c0,3.3,4.9,3.3,5,0
			C1204.4-89.1,1199.4-89.1,1199.4-85.9L1199.4-85.9z M1197.7-85.9c0-6.4,10.1-4.6,8.2,0.8c2.6-6.5-9.2-8.9-9.2-1.5
			c0,2.5,1.8,4.5,4.2,4.7C1198-82.4,1197.5-85.9,1197.7-85.9z M1201.9-89.1c4.5,0,4.4,6.7,0,6.6
			C1197.6-82.5,1197.5-89.2,1201.9-89.1z M1171.2-126c26.2,26.4,69.2,57.7,63.1,72.3c-0.5,1.2-1.3,2.6-2.6,3.1c0,0-2.9,1.1-4.9,0.5
			c-8.6-2,1.7-19.9-17-22.9c-5.5-1-6.3,0.4-10.5-3.2c-23.3-20.3-28.1-23.4-42.2-39.1c-68.2-80.5-76.5-71.5-74.3-80.8
			c1-4.1,14.6-21.1,19.6-20.3c3.2,0.3,16.6,13.8,33.7,30.7c42,42,41.6,41.4,41.3,47.8C1177.1-130.7,1170.4-126,1171.2-126z
			 M1204.6-70.4c-3,2.6-7.4,6.2-10.7,7.2c-10.3,3.1-20.6-10.6-11.3-21C1185.9-87.4,1196.6-70.4,1204.6-70.4z"/>
	</g>
</g>
<g>
	<g>
		<g>
			<path class="st1" d="M914.1,107h32.4l-35.2,107.3h-34.1l-35-107.3h32.6l14.6,54.4c3,12.1,4.7,20.5,5,25.2c0.3-3.4,1-7.7,2.1-12.8
				c1-5.1,1.9-9.2,2.7-12.1L914.1,107z"/>
			<path class="st1" d="M1065.2,175.2v39h-29V107h35.2c29.2,0,43.7,10.6,43.7,31.7c0,12.4-6.1,22-18.2,28.8l31.3,46.8h-32.9
				l-22.8-39H1065.2z M1065.2,153.4h5.4c10.1,0,15.2-4.5,15.2-13.4c0-7.4-5-11.1-14.9-11.1h-5.7V153.4z"/>
			<path class="st1" d="M1185.3,214.3h-29v-83.6h-26.2V107h81.3v23.7h-26.1V214.3z"/>
			<path class="st1" d="M1318,107v64.6c0,14-4,24.9-11.9,32.6c-8,7.7-19.4,11.6-34.4,11.6c-14.6,0-25.9-3.7-33.7-11.2
				c-7.9-7.5-11.8-18.3-11.8-32.3V107h29.1v63c0,7.6,1.4,13.1,4.3,16.5c2.8,3.4,7,5.1,12.6,5.1c5.9,0,10.2-1.7,12.9-5.1
				c2.7-3.4,4-9,4-16.7V107H1318z"/>
			<path class="st1" d="M1440.9,160.5c0,18.1-4.4,31.8-13.3,41.2c-8.9,9.4-21.8,14.1-38.9,14.1c-16.8,0-29.7-4.7-38.7-14.2
				c-9-9.4-13.5-23.2-13.5-41.2c0-17.9,4.5-31.5,13.4-40.9c8.9-9.4,21.9-14.1,38.9-14.1c17.1,0,30,4.7,38.8,14
				C1436.5,128.6,1440.9,142.4,1440.9,160.5z M1367.1,160.5c0,20.7,7.2,31.1,21.7,31.1c7.3,0,12.8-2.5,16.3-7.6
				c3.5-5,5.3-12.9,5.3-23.6c0-10.7-1.8-18.6-5.4-23.7c-3.6-5.1-9-7.7-16.1-7.7C1374.4,129.1,1367.1,139.5,1367.1,160.5z"/>
			<path class="st1" d="M1530.5,181.7c0,6.7-1.7,12.6-5.1,17.7c-3.4,5.2-8.2,9.2-14.6,12s-13.8,4.3-22.4,4.3c-7.1,0-13.1-0.5-18-1.5
				c-4.8-1-9.9-2.8-15.1-5.2v-25.8c5.5,2.8,11.3,5.1,17.2,6.6c6,1.6,11.5,2.4,16.4,2.4c4.3,0,7.5-0.7,9.5-2.2c2-1.5,3-3.4,3-5.8
				c0-1.5-0.4-2.8-1.2-3.9c-0.8-1.1-2.1-2.2-3.9-3.3c-1.8-1.1-6.5-3.4-14.3-6.9c-7-3.2-12.2-6.3-15.7-9.2c-3.5-3-6.1-6.4-7.8-10.3
				c-1.7-3.9-2.5-8.4-2.5-13.7c0-9.9,3.6-17.6,10.8-23.1c7.2-5.5,17.1-8.3,29.7-8.3c11.1,0,22.4,2.6,34,7.7l-8.9,22.4
				c-10-4.6-18.7-6.9-26-6.9c-3.8,0-6.5,0.7-8.2,2s-2.6,3-2.6,4.9c0,2.1,1.1,4,3.3,5.7c2.2,1.7,8.1,4.7,17.7,9.1
				c9.2,4.2,15.7,8.6,19.3,13.4C1528.7,168.4,1530.5,174.4,1530.5,181.7z"/>
			<path class="st1" d="M1647.5,160.5c0,18.1-4.4,31.8-13.3,41.2c-8.9,9.4-21.8,14.1-38.9,14.1c-16.8,0-29.7-4.7-38.7-14.2
				c-9-9.4-13.5-23.2-13.5-41.2c0-17.9,4.5-31.5,13.4-40.9c8.9-9.4,21.9-14.1,38.9-14.1c17.1,0,30,4.7,38.8,14
				C1643.1,128.6,1647.5,142.4,1647.5,160.5z M1573.6,160.5c0,20.7,7.2,31.1,21.7,31.1c7.3,0,12.8-2.5,16.3-7.6
				c3.5-5,5.3-12.9,5.3-23.6c0-10.7-1.8-18.6-5.4-23.7c-3.6-5.1-9-7.7-16.1-7.7C1580.9,129.1,1573.6,139.5,1573.6,160.5z"/>
		</g>
	</g>
	<g>
		<path class="st1" d="M990.5,231.4c9.7,0,17.6-7.3,18.7-16.7h-37.4C972.9,224.1,980.8,231.4,990.5,231.4z"/>
		<path class="st1" d="M1016,198.6h-3.2v-75.3h3.2v-15.8h-10.2c-2.1-2.5-4.3-6.4-5.1-11.1c0,0-0.1,0-0.1,0.1
			c5.3-3.3,8.8-9.2,8.8-15.9c0-10.4-8.4-18.8-18.8-18.8c-10.4,0-18.8,8.4-18.8,18.8c0,6.7,3.5,12.7,8.9,16c-0.1,0-0.1-0.1-0.2-0.1
			c-0.8,4.7-3.1,8.5-5.1,11.1H965v15.8h3.2v75.3H965v15.8h51.1V198.6z M990.5,99.4C990.5,99.4,990.6,99.4,990.5,99.4
			C990.6,99.4,990.5,99.4,990.5,99.4C990.5,99.4,990.5,99.4,990.5,99.4C990.5,99.4,990.5,99.4,990.5,99.4z M988.3,64.1
			c1,0,1.9,0.8,1.9,1.9c0,1-0.8,1.9-1.9,1.9c-1,0-1.9-0.8-1.9-1.9C986.4,65,987.2,64.1,988.3,64.1z M978.3,80.5c0,1-0.8,1.8-1.8,1.8
			s-1.8-0.8-1.8-1.8c0-5.6,2.8-10.7,7.6-13.6c0.8-0.5,1.9-0.3,2.4,0.6c0.5,0.8,0.3,1.9-0.6,2.4C980.5,72.2,978.3,76.2,978.3,80.5z
			 M974.4,145.1l32.1-7.8v12.4l-32.1,7.8V145.1z M974.4,170.2l32.1-7.8v12.4l-32.1,7.8V170.2z M971.2,113.7h38.6v3.3h-38.6V113.7z
			 M1006.6,123.3v1.3l-32.1,7.8v-9H1006.6z M974.4,195.4l32.1-7.8v11h-32.1V195.4z M1009.8,208.2h-38.6V205h38.6V208.2z"/>
	</g>
</g>
<path class="st1" d="M1382.5,229.1h-10.7c-6.7,0-10,3.7-10,11.3v34.4c0,7.5,3.3,11.6,10,12.3c3.5,0.4,7.1,0.8,10.7,1.3
	c6.7,0.9,10-2.6,10-10.6v-36.6C1392.5,233.1,1389.2,229.1,1382.5,229.1z M1381.2,277.9c0,0.5-0.2,0.9-0.4,1.2
	c-0.3,0.3-0.7,0.5-1.1,0.4c-1.7-0.2-3.4-0.3-5-0.5c-0.4,0-0.8-0.3-1.1-0.6c-0.3-0.4-0.4-0.8-0.4-1.3v-38c0-0.5,0.2-0.9,0.4-1.2
	c0.3-0.3,0.7-0.5,1.1-0.5c1.7,0,3.4,0.1,5,0.1c0.4,0,0.8,0.2,1.1,0.6c0.3,0.4,0.4,0.8,0.4,1.2V277.9z M1342.5,229.9v22.6
	c-3-0.1-6-0.2-8.9-0.2v-22.4h-11.3v52.9c3.7,0.2,7.5,0.3,11.3,0.5v-21c3,0.1,5.9,0.2,8.9,0.3v21.1c3.7,0.3,7.5,0.5,11.3,0.8v-54.6
	C1350,229.9,1346.2,229.9,1342.5,229.9z M1304.9,250.5c-2.4,0-4.8,0-7.2,0c-0.4,0-0.8-0.2-1.1-0.5c-0.3-0.3-0.5-0.8-0.4-1.3
	c0-3,0-6,0-9c0-0.5,0.1-0.9,0.4-1.3c0.3-0.3,0.7-0.5,1.1-0.5c1.5,0,2.9,0,4.4,0c0.4,0,0.8,0.2,1,0.5c0.8,0.9,0.4,2.2-0.5,3.5
	c0.5,1,0.4,0.8,0.9,1.8c3.6,0,7.2,0,10.8,0.1v-3.9c0-7.2-3.3-10.7-10-10.7h-8.9c-6.6,0-10,3.5-10,10.6v10.4c0,7.1,3.3,10.6,10,10.7
	c2.4,0,4.8,0,7.3,0.1c0.4,0,0.8,0.2,1.1,0.5c0.3,0.4,0.5,0.9,0.4,1.4c0,3.2,0,6.3,0,9.6c0.1,0.6,0,1.1-0.4,1.6
	c-0.3,0.3-0.7,0.5-1.1,0.5c-1.7,0-3.3,0-5-0.1c-0.4,0-0.8-0.2-1.1-0.5c-0.9-1-0.4-2.5,1-3.9c-0.9-2-0.5-1.1-1.4-3
	c-3.6,0-7.2,0-10.7-0.1v5.4c0,7.1,3.3,10.6,10,10.7c3.1,0,6.3,0.1,9.5,0.2c6.7,0.1,10-3.4,10-10.7v-11
	C1314.9,254.3,1311.6,250.6,1304.9,250.5z M1278.2,246.8v-6.3c0-7.1-3.3-10.6-10-10.6h-20.1V282h11.3v-21.3h5.4c1,0,1.5,0.5,1.5,1.6
	V282c3.7,0,7.5,0,11.2,0v-20.6c0-3.4-1.3-5.6-4-6.6C1276.6,253.6,1278.1,250.9,1278.2,246.8z M1266.4,252.3
	c-0.3,0.3-0.7,0.5-1.1,0.5h-5.9v-15.2h5.9c0.4,0,0.8,0.2,1.1,0.5c0.3,0.4,0.5,0.8,0.4,1.3c0,3.8,0,7.5,0,11.4
	C1267,251.3,1266.8,251.8,1266.4,252.3z M1241.6,239.1v-9.2h-23.8V282c7.9,0,15.8,0,23.8,0v-9.3h-12.5v-12.5h11.7v-8.9h-11.7v-12.2
	H1241.6z M1204.9,253.5c3-1.2,4.6-3.9,4.6-8.2v-4.8c0-7.1-3.3-10.7-10-10.7c-6.7,0-13.4,0-20.1,0v52.7c6.9-0.2,13.8-0.3,20.7-0.4
	c6.6-0.1,9.9-3.5,10-10.4v-9.3C1210.2,257.7,1208.4,254.8,1204.9,253.5z M1190.7,237.6c2,0,4,0,6,0c0.4,0,0.8,0.2,1.1,0.5
	c0.6,0.6,0.6,1.3,0.2,2.3c0,3.1,0.1,5.8,0.1,8.9c0.2,0.7,0.1,1.3-0.3,1.8c-0.3,0.3-0.7,0.5-1.1,0.5c-2,0-4,0-6,0V237.6z
	 M1198.4,273.9c-0.3,0.3-0.7,0.5-1.1,0.5c-2.2,0-4.4,0.1-6.6,0.1v-15c2.2,0,4.4,0,6.6-0.1c0.4,0,0.8,0.2,1.1,0.5
	c0.5,0.6,0.6,1.4,0.1,2.2c-0.1,3.2-0.2,5.6-0.3,8.8C1198.9,272.1,1199.1,273.2,1198.4,273.9z M1172.2,247.1v-6.4
	c0-7.2-3.3-10.8-10-10.8c-6.7,0-13.4,0-20,0v54.6c3.7-0.3,7.5-0.5,11.2-0.8v-22c1.8-0.1,3.6-0.1,5.4-0.2c1,0,1.5,0.5,1.5,1.6v20.2
	c3.7-0.2,7.5-0.3,11.3-0.5v-21c0-3.5-1.3-5.7-4-6.6C1170.6,254,1172.1,251.3,1172.2,247.1z M1160.4,252.9c-0.3,0.3-0.7,0.5-1.1,0.5
	c-2,0-4,0.1-6,0.1v-15.7c2,0,4,0,6,0c0.4,0,0.8,0.2,1.1,0.5c0.4,0.4,0.5,0.8,0.4,1.3c0,3.9-0.1,7.6-0.1,11.5
	C1160.9,251.8,1160.9,252.4,1160.4,252.9z M1123.7,229.1H1113c-6.6,0-10,4-10,12v47.8c3.7-0.5,7.5-1.1,11.3-1.6v-19.2
	c2.7-0.2,5.4-0.4,8.1-0.7v18.9c3.7-0.4,7.5-0.8,11.2-1.1v-44.9C1133.7,232.8,1130.4,229.1,1123.7,229.1z M1122.5,258
	c-2.7,0.2-5.4,0.3-8.1,0.5v-19.2c0-0.5,0.2-0.9,0.4-1.3c0.3-0.3,0.7-0.5,1.1-0.5c1.7,0,3.4-0.1,5.1-0.1c0.4,0,0.8,0.2,1.1,0.5
	c0.3,0.3,0.5,0.8,0.5,1.2V258z M1090.1,257.6c3.1-1.6,4.6-4.9,4.6-9.8v-5.5c0-8.2-3.3-12.3-10-12.3c-6.7,0-13.4,0-20.1,0.1v66.2
	c6.9-1.6,13.8-3.1,20.7-4.4c6.6-1.3,9.9-5.7,10-13.7v-10.7C1095.4,262.1,1093.6,258.8,1090.1,257.6z M1075.9,239.4
	c2-0.1,3.9-0.1,6-0.2c0.4,0,0.8,0.2,1.1,0.5c0.4,0.5,0.5,1.2,0.4,2c0,3.8,0,7.5-0.1,11.3c0.2,0.8,0.1,1.6-0.3,2.2
	c-0.3,0.4-0.7,0.6-1.1,0.7c-2,0.2-4,0.3-6,0.5V239.4z M1084,281c0,0.5-0.1,1-0.4,1.4c-0.3,0.4-0.7,0.7-1.1,0.8
	c-2.2,0.4-4.4,0.8-6.6,1.1v-18.2c2.2-0.2,4.4-0.5,6.6-0.8c0.4,0,0.8,0.1,1.1,0.5c0.3,0.3,0.4,0.8,0.4,1.3V281z"/>
<path class="st1" d="M1431.1,254.4c0-2.7,0-5.5,0-8.2c0.7-10.7-2.6-16.1-9.9-16.1c-6.8,0-13.6-0.1-20.4-0.1v60.1
	c3.7,0.6,7.5,1.3,11.3,2v-24.4c3,0.4,6.1,0.7,9.1,1.1C1428.3,269.8,1431.7,265,1431.1,254.4z M1419.8,241.6v15.5c0,0.1,0,0.2,0,0.3
	c0,0.1,0,0.2,0,0.3c0,0,0,0.1,0,0.1c-0.1,0.3-0.2,0.6-0.4,0.8c-0.3,0.4-0.7,0.5-1.1,0.5c-2.1-0.2-4.2-0.4-6.3-0.6v-19.3
	c2.1,0.1,4.2,0.1,6.3,0.2c0.4,0,0.8,0.2,1.1,0.6c0.1,0.1,0.1,0.2,0.2,0.3c0.1,0.3,0.2,0.6,0.2,0.9
	C1419.8,241.4,1419.8,241.5,1419.8,241.6z"/>
<rect x="846.5" y="255.5" class="st1" width="204.7" height="5.8"/>
<rect x="1444.6" y="255.5" class="st1" width="197.9" height="5.8"/>
<rect x="839.5" y="381" class="st2" width="819" height="358"/>
<g>
	<g>
		<g>
			
				<text transform="matrix(1 0 0 1 842.2388 636.8369)" class="st1" style="font-family:'OpenSans-Extrabold'; font-size:150.3177px;">V  RTUOSO</text>
		</g>
		<g>
			<path class="st1" d="M990.5,653.9c9.7,0,17.6-7.3,18.7-16.7h-37.4C972.9,646.6,980.8,653.9,990.5,653.9z"/>
			<path class="st1" d="M1016,621.2h-3.2v-75.3h3.2V530h-10.2c-2.1-2.5-4.3-6.4-5.1-11.1c0,0-0.1,0-0.1,0.1
				c5.3-3.3,8.8-9.2,8.8-15.9c0-10.4-8.4-18.8-18.8-18.8c-10.4,0-18.8,8.4-18.8,18.8c0,6.7,3.5,12.7,8.9,16c-0.1,0-0.1-0.1-0.2-0.1
				c-0.8,4.7-3.1,8.5-5.1,11.1H965v15.8h3.2v75.3H965V637h51.1V621.2z M990.5,521.9C990.5,521.9,990.6,521.9,990.5,521.9
				C990.6,521.9,990.5,521.9,990.5,521.9C990.5,521.9,990.5,521.9,990.5,521.9C990.5,521.9,990.5,521.9,990.5,521.9z M988.3,486.7
				c1,0,1.9,0.8,1.9,1.9c0,1-0.8,1.9-1.9,1.9c-1,0-1.9-0.8-1.9-1.9C986.4,487.5,987.2,486.7,988.3,486.7z M978.3,503.1
				c0,1-0.8,1.8-1.8,1.8s-1.8-0.8-1.8-1.8c0-5.6,2.8-10.7,7.6-13.6c0.8-0.5,1.9-0.3,2.4,0.6c0.5,0.8,0.3,1.9-0.6,2.4
				C980.5,494.8,978.3,498.7,978.3,503.1z M974.4,567.6l32.1-7.8v12.4l-32.1,7.8V567.6z M974.4,592.8l32.1-7.8v12.4l-32.1,7.8V592.8
				z M971.2,536.3h38.6v3.3h-38.6V536.3z M1006.6,545.8v1.3l-32.1,7.8v-9H1006.6z M974.4,618l32.1-7.8v11h-32.1V618z M1009.8,630.7
				h-38.6v-3.2h38.6V630.7z"/>
		</g>
	</g>
	<g>
		<path class="st1" d="M1372,439.1h-10.7c-6.7,0-10,3.7-10,11.3v34.4c0,7.5,3.3,11.6,10,12.3c3.5,0.4,7.1,0.8,10.7,1.3
			c6.7,0.9,10-2.6,10-10.6v-36.6C1382,443.1,1378.7,439.1,1372,439.1z M1370.7,487.9c0,0.5-0.2,0.9-0.4,1.2
			c-0.3,0.3-0.7,0.5-1.1,0.4c-1.7-0.2-3.4-0.3-5-0.5c-0.4,0-0.8-0.3-1.1-0.6c-0.3-0.4-0.4-0.8-0.4-1.3v-38c0-0.5,0.2-0.9,0.4-1.2
			c0.3-0.3,0.7-0.5,1.1-0.5c1.7,0,3.4,0.1,5,0.1c0.4,0,0.8,0.2,1.1,0.6c0.3,0.4,0.4,0.8,0.4,1.2V487.9z M1332,439.9v22.6
			c-3-0.1-6-0.2-8.9-0.2v-22.4h-11.3v52.9c3.7,0.2,7.5,0.3,11.3,0.5v-21c3,0.1,5.9,0.2,8.9,0.3v21.1c3.7,0.3,7.5,0.5,11.3,0.8V440
			C1339.5,440,1335.7,440,1332,439.9z M1294.4,460.5c-2.4,0-4.8,0-7.2,0c-0.4,0-0.8-0.2-1.1-0.5c-0.3-0.3-0.5-0.8-0.4-1.3
			c0-3,0-6,0-9c0-0.5,0.1-0.9,0.4-1.3c0.3-0.3,0.7-0.5,1.1-0.5c1.5,0,2.9,0,4.4,0c0.4,0,0.8,0.2,1,0.5c0.8,0.9,0.4,2.2-0.5,3.5
			c0.5,1,0.4,0.8,0.9,1.8c3.6,0,7.2,0,10.8,0.1v-3.9c0-7.2-3.3-10.7-10-10.7h-8.9c-6.6,0-10,3.5-10,10.6v10.4
			c0,7.1,3.3,10.6,10,10.7c2.4,0,4.8,0,7.3,0.1c0.4,0,0.8,0.2,1.1,0.5c0.3,0.4,0.5,0.9,0.4,1.4c0,3.2,0,6.3,0,9.6
			c0.1,0.6,0,1.1-0.4,1.6c-0.3,0.3-0.7,0.5-1.1,0.5c-1.7,0-3.3,0-5-0.1c-0.4,0-0.8-0.2-1.1-0.5c-0.9-1-0.4-2.5,1-3.9
			c-0.9-2-0.5-1.1-1.4-3c-3.6,0-7.2,0-10.7-0.1v5.4c0,7.1,3.3,10.6,10,10.7c3.1,0,6.3,0.1,9.5,0.2c6.7,0.1,10-3.4,10-10.7v-11
			C1304.4,464.3,1301.1,460.7,1294.4,460.5z M1267.7,456.8v-6.3c0-7.1-3.3-10.6-10-10.6h-20.1V492h11.3v-21.3h5.4
			c1,0,1.5,0.5,1.5,1.6V492c3.7,0,7.5,0,11.2,0v-20.6c0-3.4-1.3-5.6-4-6.6C1266.1,463.7,1267.6,461,1267.7,456.8z M1255.9,462.3
			c-0.3,0.3-0.7,0.5-1.1,0.5h-5.9v-15.2h5.9c0.4,0,0.8,0.2,1.1,0.5c0.3,0.4,0.5,0.8,0.4,1.3c0,3.8,0,7.5,0,11.4
			C1256.5,461.4,1256.3,461.9,1255.9,462.3z M1231.1,449.1v-9.2h-23.8v52.2c7.9,0,15.8,0,23.8,0v-9.3h-12.5v-12.5h11.7v-8.9h-11.7
			v-12.2H1231.1z M1194.4,463.6c3-1.2,4.6-3.9,4.6-8.2v-4.8c0-7.1-3.3-10.7-10-10.7c-6.7,0-13.4,0-20.1,0v52.7
			c6.9-0.2,13.8-0.3,20.7-0.4c6.6-0.1,9.9-3.5,10-10.4v-9.3C1199.7,467.8,1197.9,464.8,1194.4,463.6z M1180.2,447.6c2,0,4,0,6,0
			c0.4,0,0.8,0.2,1.1,0.5c0.6,0.6,0.6,1.3,0.2,2.3c0,3.1,0.1,5.8,0.1,8.9c0.2,0.7,0.1,1.3-0.3,1.8c-0.3,0.3-0.7,0.5-1.1,0.5
			c-2,0-4,0-6,0V447.6z M1187.9,484c-0.3,0.3-0.7,0.5-1.1,0.5c-2.2,0-4.4,0.1-6.6,0.1v-15c2.2,0,4.4,0,6.6-0.1
			c0.4,0,0.8,0.2,1.1,0.5c0.5,0.6,0.6,1.4,0.1,2.2c-0.1,3.2-0.2,5.6-0.3,8.8C1188.4,482.2,1188.6,483.2,1187.9,484z M1161.7,457.2
			v-6.4c0-7.2-3.3-10.8-10-10.8c-6.7,0-13.4,0-20,0v54.6c3.7-0.3,7.5-0.5,11.2-0.8v-22c1.8-0.1,3.6-0.1,5.4-0.2c1,0,1.5,0.5,1.5,1.6
			v20.2c3.7-0.2,7.5-0.3,11.3-0.5v-21c0-3.5-1.3-5.7-4-6.6C1160.1,464.1,1161.6,461.4,1161.7,457.2z M1149.9,462.9
			c-0.3,0.3-0.7,0.5-1.1,0.5c-2,0-4,0.1-6,0.1v-15.7c2,0,4,0,6,0c0.4,0,0.8,0.2,1.1,0.5c0.4,0.4,0.5,0.8,0.4,1.3
			c0,3.9-0.1,7.6-0.1,11.5C1150.4,461.8,1150.4,462.4,1149.9,462.9z M1113.2,439.1h-10.7c-6.6,0-10,4-10,12v47.8
			c3.7-0.5,7.5-1.1,11.3-1.6v-19.2c2.7-0.2,5.4-0.4,8.1-0.7v18.9c3.7-0.4,7.5-0.8,11.2-1.1v-44.9
			C1123.2,442.9,1119.9,439.1,1113.2,439.1z M1112,468.1c-2.7,0.2-5.4,0.3-8.1,0.5v-19.2c0-0.5,0.2-0.9,0.4-1.3
			c0.3-0.3,0.7-0.5,1.1-0.5c1.7,0,3.4-0.1,5.1-0.1c0.4,0,0.8,0.2,1.1,0.5c0.3,0.3,0.5,0.8,0.5,1.2V468.1z M1079.6,467.7
			c3.1-1.6,4.6-4.9,4.6-9.8v-5.5c0-8.2-3.3-12.3-10-12.3c-6.7,0-13.4,0-20.1,0.1v66.2c6.9-1.6,13.8-3.1,20.7-4.4
			c6.6-1.3,9.9-5.7,10-13.7v-10.7C1084.9,472.1,1083.1,468.9,1079.6,467.7z M1065.4,449.5c2-0.1,3.9-0.1,6-0.2
			c0.4,0,0.8,0.2,1.1,0.5c0.4,0.5,0.5,1.2,0.4,2c0,3.8,0,7.5-0.1,11.3c0.2,0.8,0.1,1.6-0.3,2.2c-0.3,0.4-0.7,0.6-1.1,0.7
			c-2,0.2-4,0.3-6,0.5V449.5z M1073.5,491c0,0.5-0.1,1-0.4,1.4c-0.3,0.4-0.7,0.7-1.1,0.8c-2.2,0.4-4.4,0.8-6.6,1.1v-18.2
			c2.2-0.2,4.4-0.5,6.6-0.8c0.4,0,0.8,0.1,1.1,0.5c0.3,0.3,0.4,0.8,0.4,1.3V491z"/>
		<path class="st1" d="M1420.6,464.4c0-2.7,0-5.5,0-8.2c0.7-10.7-2.6-16.1-9.9-16.1c-6.8,0-13.6-0.1-20.4-0.1v60.1
			c3.7,0.6,7.5,1.3,11.3,2v-24.4c3,0.4,6.1,0.7,9.1,1.1C1417.8,479.9,1421.2,475.1,1420.6,464.4z M1409.3,451.7v15.5
			c0,0.1,0,0.2,0,0.3c0,0.1,0,0.2,0,0.3c0,0,0,0.1,0,0.1c-0.1,0.3-0.2,0.6-0.4,0.8c-0.3,0.4-0.7,0.5-1.1,0.5
			c-2.1-0.2-4.2-0.4-6.3-0.6v-19.3c2.1,0.1,4.2,0.1,6.3,0.2c0.4,0,0.8,0.2,1.1,0.6c0.1,0.1,0.1,0.2,0.2,0.3c0.1,0.3,0.2,0.6,0.2,0.9
			C1409.3,451.5,1409.3,451.6,1409.3,451.7z"/>
		<rect x="898.1" y="465.6" class="st1" width="142.6" height="5.8"/>
		<rect x="1434.1" y="465.6" class="st1" width="142.6" height="5.8"/>
	</g>
</g>
<rect x="0.5" y="381" class="st2" width="819" height="358"/>
<g>
	<g>
		<text transform="matrix(1 0 0 1 3.239 614.269)" class="st1" style="font-family:'OpenSans-Extrabold'; font-size:150.3177px;">V  RTUOSO</text>
	</g>
	<g>
		<path class="st1" d="M151.5,631.4c9.7,0,17.6-7.3,18.7-16.7h-37.4C133.9,624.1,141.8,631.4,151.5,631.4z"/>
		<path class="st1" d="M177,598.6h-3.2v-75.3h3.2v-15.8h-10.2c-2.1-2.5-4.3-6.4-5.1-11.1c0,0-0.1,0-0.1,0.1
			c5.3-3.3,8.8-9.2,8.8-15.9c0-10.4-8.4-18.8-18.8-18.8s-18.8,8.4-18.8,18.8c0,6.7,3.5,12.7,8.9,16c-0.1,0-0.1-0.1-0.2-0.1
			c-0.8,4.7-3.1,8.5-5.1,11.1H126v15.8h3.2v75.3H126v15.8H177V598.6z M151.5,499.4C151.5,499.4,151.6,499.4,151.5,499.4
			C151.6,499.4,151.5,499.4,151.5,499.4C151.5,499.4,151.5,499.4,151.5,499.4C151.5,499.4,151.5,499.4,151.5,499.4z M149.3,464.1
			c1,0,1.9,0.8,1.9,1.9c0,1-0.8,1.9-1.9,1.9c-1,0-1.9-0.8-1.9-1.9C147.4,465,148.2,464.1,149.3,464.1z M139.3,480.5
			c0,1-0.8,1.8-1.8,1.8s-1.8-0.8-1.8-1.8c0-5.6,2.8-10.7,7.6-13.6c0.8-0.5,1.9-0.3,2.4,0.6c0.5,0.8,0.3,1.9-0.6,2.4
			C141.5,472.2,139.3,476.2,139.3,480.5z M135.4,545l32.1-7.8v12.4l-32.1,7.8V545z M135.4,570.2l32.1-7.8v12.4l-32.1,7.8V570.2z
			 M132.2,513.7h38.6v3.3h-38.6V513.7z M167.6,523.3v1.3l-32.1,7.8v-9H167.6z M135.4,595.4l32.1-7.8v11h-32.1V595.4z M170.8,608.2
			h-38.6V605h38.6V608.2z"/>
	</g>
</g>
<g>
	<g>
		<path class="st1" d="M75.1,164.2h32.4L72.4,271.6H38.2l-35-107.3h32.6l14.6,54.4c3,12.1,4.7,20.5,5,25.2c0.3-3.4,1-7.7,2.1-12.8
			c1-5.1,1.9-9.2,2.7-12.1L75.1,164.2z"/>
		<path class="st1" d="M226.2,232.5v39h-29V164.2h35.2c29.2,0,43.7,10.6,43.7,31.7c0,12.4-6.1,22-18.2,28.8l31.3,46.8h-32.9
			l-22.8-39H226.2z M226.2,210.7h5.4c10.1,0,15.2-4.5,15.2-13.4c0-7.4-5-11.1-14.9-11.1h-5.7V210.7z"/>
		<path class="st1" d="M346.3,271.6h-29V188h-26.2v-23.7h81.3V188h-26.1V271.6z"/>
		<path class="st1" d="M479,164.2v64.6c0,14-4,24.9-11.9,32.6c-8,7.7-19.4,11.6-34.4,11.6c-14.6,0-25.9-3.7-33.7-11.2
			c-7.9-7.5-11.8-18.3-11.8-32.3v-65.2h29.1v63c0,7.6,1.4,13.1,4.3,16.5c2.8,3.4,7,5.1,12.6,5.1c5.9,0,10.2-1.7,12.9-5.1
			c2.7-3.4,4-9,4-16.7v-62.8H479z"/>
		<path class="st1" d="M601.9,217.8c0,18.1-4.4,31.8-13.3,41.2S566.8,273,549.8,273c-16.8,0-29.7-4.7-38.7-14.2
			c-9-9.4-13.5-23.2-13.5-41.2c0-17.9,4.5-31.5,13.4-40.9c8.9-9.4,21.9-14.1,38.9-14.1c17.1,0,30,4.7,38.8,14
			C597.5,185.9,601.9,199.7,601.9,217.8z M528.1,217.8c0,20.7,7.2,31.1,21.7,31.1c7.3,0,12.8-2.5,16.3-7.6c3.5-5,5.3-12.9,5.3-23.6
			c0-10.7-1.8-18.6-5.4-23.7s-9-7.7-16.1-7.7C535.4,186.3,528.1,196.8,528.1,217.8z"/>
		<path class="st1" d="M691.5,239c0,6.7-1.7,12.6-5.1,17.7c-3.4,5.2-8.2,9.2-14.6,12c-6.4,2.9-13.8,4.3-22.4,4.3
			c-7.1,0-13.1-0.5-18-1.5c-4.8-1-9.9-2.8-15.1-5.2v-25.8c5.5,2.8,11.3,5.1,17.2,6.6c6,1.6,11.5,2.4,16.4,2.4c4.3,0,7.5-0.7,9.5-2.2
			c2-1.5,3-3.4,3-5.8c0-1.5-0.4-2.8-1.2-3.9c-0.8-1.1-2.1-2.2-3.9-3.3c-1.8-1.1-6.5-3.4-14.3-6.9c-7-3.2-12.2-6.3-15.7-9.2
			c-3.5-3-6.1-6.4-7.8-10.3c-1.7-3.9-2.5-8.4-2.5-13.7c0-9.9,3.6-17.6,10.8-23.1c7.2-5.5,17.1-8.3,29.7-8.3c11.1,0,22.4,2.6,34,7.7
			l-8.9,22.4c-10-4.6-18.7-6.9-26-6.9c-3.8,0-6.5,0.7-8.2,2c-1.7,1.3-2.6,3-2.6,4.9c0,2.1,1.1,4,3.3,5.7c2.2,1.7,8.1,4.7,17.7,9.1
			c9.2,4.2,15.7,8.6,19.3,13.4S691.5,231.7,691.5,239z"/>
		<path class="st1" d="M808.5,217.8c0,18.1-4.4,31.8-13.3,41.2S773.4,273,756.3,273c-16.8,0-29.7-4.7-38.7-14.2
			c-9-9.4-13.5-23.2-13.5-41.2c0-17.9,4.5-31.5,13.4-40.9c8.9-9.4,21.9-14.1,38.9-14.1c17.1,0,30,4.7,38.8,14
			C804.1,185.9,808.5,199.7,808.5,217.8z M734.6,217.8c0,20.7,7.2,31.1,21.7,31.1c7.3,0,12.8-2.5,16.3-7.6c3.5-5,5.3-12.9,5.3-23.6
			c0-10.7-1.8-18.6-5.4-23.7s-9-7.7-16.1-7.7C741.9,186.3,734.6,196.8,734.6,217.8z"/>
	</g>
</g>
<g>
	<g>
		<path class="st0" d="M490.3,6.6c5.8,2.4,9.1,8.3,7.8,16.1c-4.6,26.2-99.8,114-103.6,114c0,0-17.1-16.3-17.4-16.6
			c-0.8-0.4,38.5-30.2,71.1-72.5C469.6,20.2,475.7,0.3,490.3,6.6z M485.4,38.4c4-6.2-10.3,3.1-13.9-13.3c-1-3-2,5.3,3.5,9.8
			c2.5,1.9,2.6,0.9,1.7,1.8c-24.1,25.5-103.5,107.4-78.1,83.5C459,64.9,478,37,479.3,37c3.6,1.1,3.4,0.9-2.2,7.7
			c-44.2,53.3-85.6,84.8-82.5,85.6C398,131.2,472.3,59.6,485.4,38.4z M346.6,101.4c-12.7-10.7,15.9,15.6,19.3,19.1
			c5,5.3,5.2,8.1,0.1,3.7C336.9,99.6,335.2,93.6,322,80c-18.9-19-81.2-76.1-40.8-38.1c37.2,34.4,49.2,50.6,56.1,58.7
			c17.5,20.7,30.5,26.8,30,30c-0.2,0.7-0.4,1.5-1.2,1.2c-1.3-0.3-11.2-7.9-13-9.4c-18.9-16.3-25.3-31.3-62-67.7
			c-35.1-35.1-31.8-25.4-23.7-38.2c2-3.7-4.8,2.6-7,6.1c-4.2,6.2,2.5,6.9,19.9,24.2c57.5,57.1,46.3,57.4,85.7,89.2
			c8.3,6.7-1.9-2.8,7-7.2C376.9,127.1,382.5,131.2,346.6,101.4z M287.6,22.1c33.6,31.9,68.6,67.3,58.1,54.9
			c-8.3-9.5-66.6-68.3-69.9-68.9c-1.1,0-4.5,3.6-5.2,4.4c97.1,97.9,96.6,91.9,26.6,24.4c-65.4-63.5,35.4,31.3,50.3,47
			c0.7-2.7,0.3-1.9-7.5-9.6C338.6,74.3,244.9-18.5,287.6,22.1z M490.6,25c-1.8,8.7-15,7.6-15-1.7c0-4.6,4.2-8.2,9.1-7.4
			c-5.6-1.7-11.3,2.3-11.3,8.2C473.4,35.2,489.7,35.8,490.6,25L490.6,25z M485,31.5c-8.5,3-14.4-7.2-8.5-13
			C472.7,23.7,476.2,32.8,485,31.5z M477.2,23.3c0,8,12,8.2,12,0C489.3,15.4,477.2,15.4,477.2,23.3L477.2,23.3z M487.7,23.4
			c0,6.1-9.1,6-9,0C478.7,17.4,487.8,17.4,487.7,23.4L487.7,23.4z M378.4,131.4c-3-3-8.8-0.3-7.1,4.8
			C369.5,136.1,373.4,127.6,378.4,131.4z M373.3,135.1c0,3.3,4.9,3.3,5,0C378.3,131.8,373.3,131.8,373.3,135.1L373.3,135.1z
			 M371.6,135.1c0-6.4,10.1-4.6,8.2,0.8c2.6-6.5-9.2-8.9-9.2-1.5c0,2.5,1.8,4.5,4.2,4.7C371.9,138.6,371.4,135.1,371.6,135.1z
			 M375.8,131.8c4.5,0,4.4,6.7,0,6.6C371.5,138.5,371.4,131.8,375.8,131.8z M345.1,94.9c26.2,26.4,69.2,57.7,63.1,72.3
			c-0.5,1.2-1.3,2.6-2.6,3.1c0,0-2.9,1.1-4.9,0.5c-8.6-2,1.7-19.9-17-22.9c-5.5-1-6.3,0.4-10.5-3.2c-23.3-20.3-28.1-23.4-42.2-39.1
			c-68.2-80.5-76.5-71.5-74.3-80.8c1-4.1,14.6-21.1,19.6-20.3c3.2,0.3,16.6,13.8,33.7,30.7c42,42,41.6,41.4,41.3,47.8
			C351,90.3,344.3,94.9,345.1,94.9z M378.5,150.5c-3,2.6-7.4,6.2-10.7,7.2c-10.3,3.1-20.6-10.6-11.3-21
			C359.8,133.6,370.5,150.5,378.5,150.5z"/>
	</g>
</g>
<g>
	<path class="st1" d="M151.5,288.6c9.7,0,17.6-7.3,18.7-16.7h-37.4C133.9,281.3,141.8,288.6,151.5,288.6z"/>
	<path class="st1" d="M177,255.9h-3.2v-75.3h3.2v-15.8h-10.2c-2.1-2.5-4.3-6.4-5.1-11.1c0,0-0.1,0-0.1,0.1c5.3-3.3,8.8-9.2,8.8-15.9
		c0-10.4-8.4-18.8-18.8-18.8s-18.8,8.4-18.8,18.8c0,6.7,3.5,12.7,8.9,16c-0.1,0-0.1-0.1-0.2-0.1c-0.8,4.7-3.1,8.5-5.1,11.1H126v15.8
		h3.2v75.3H126v15.8H177V255.9z M151.5,156.7C151.5,156.7,151.6,156.6,151.5,156.7C151.6,156.6,151.5,156.7,151.5,156.7
		C151.5,156.7,151.5,156.6,151.5,156.7C151.5,156.6,151.5,156.7,151.5,156.7z M149.3,121.4c1,0,1.9,0.8,1.9,1.9c0,1-0.8,1.9-1.9,1.9
		c-1,0-1.9-0.8-1.9-1.9C147.4,122.3,148.2,121.4,149.3,121.4z M139.3,137.8c0,1-0.8,1.8-1.8,1.8s-1.8-0.8-1.8-1.8
		c0-5.6,2.8-10.7,7.6-13.6c0.8-0.5,1.9-0.3,2.4,0.6c0.5,0.8,0.3,1.9-0.6,2.4C141.5,129.5,139.3,133.5,139.3,137.8z M135.4,202.3
		l32.1-7.8V207l-32.1,7.8V202.3z M135.4,227.5l32.1-7.8v12.4l-32.1,7.8V227.5z M132.2,171h38.6v3.3h-38.6V171z M167.6,180.6v1.3
		l-32.1,7.8v-9H167.6z M135.4,252.7l32.1-7.8v11h-32.1V252.7z M170.8,265.5h-38.6v-3.2h38.6V265.5z"/>
</g>
<path class="st1" d="M543.5,286.3h-10.7c-6.7,0-10,3.7-10,11.3V332c0,7.5,3.3,11.6,10,12.3c3.5,0.4,7.1,0.8,10.7,1.3
	c6.7,0.9,10-2.6,10-10.6v-36.6C553.5,290.3,550.2,286.3,543.5,286.3z M542.2,335.1c0,0.5-0.2,0.9-0.4,1.2c-0.3,0.3-0.7,0.5-1.1,0.4
	c-1.7-0.2-3.4-0.3-5-0.5c-0.4,0-0.8-0.3-1.1-0.6c-0.3-0.4-0.4-0.8-0.4-1.3v-38c0-0.5,0.2-0.9,0.4-1.2c0.3-0.3,0.7-0.5,1.1-0.5
	c1.7,0,3.4,0.1,5,0.1c0.4,0,0.8,0.2,1.1,0.6c0.3,0.4,0.4,0.8,0.4,1.2V335.1z M503.5,287.2v22.6c-3-0.1-6-0.2-8.9-0.2v-22.4h-11.3
	v52.9c3.7,0.2,7.5,0.3,11.3,0.5v-21c3,0.1,5.9,0.2,8.9,0.3V341c3.7,0.3,7.5,0.5,11.3,0.8v-54.6C511,287.2,507.2,287.2,503.5,287.2z
	 M465.9,307.7c-2.4,0-4.8,0-7.2,0c-0.4,0-0.8-0.2-1.1-0.5c-0.3-0.3-0.5-0.8-0.4-1.3c0-3,0-6,0-9c0-0.5,0.1-0.9,0.4-1.3
	c0.3-0.3,0.7-0.5,1.1-0.5c1.5,0,2.9,0,4.4,0c0.4,0,0.8,0.2,1,0.5c0.8,0.9,0.4,2.2-0.5,3.5c0.5,1,0.4,0.8,0.9,1.8
	c3.6,0,7.2,0,10.8,0.1v-3.9c0-7.2-3.3-10.7-10-10.7h-8.9c-6.6,0-10,3.5-10,10.6v10.4c0,7.1,3.3,10.6,10,10.7c2.4,0,4.8,0,7.3,0.1
	c0.4,0,0.8,0.2,1.1,0.5c0.3,0.4,0.5,0.9,0.4,1.4c0,3.2,0,6.3,0,9.6c0.1,0.6,0,1.1-0.4,1.6c-0.3,0.3-0.7,0.5-1.1,0.5
	c-1.7,0-3.3,0-5-0.1c-0.4,0-0.8-0.2-1.1-0.5c-0.9-1-0.4-2.5,1-3.9c-0.9-2-0.5-1.1-1.4-3c-3.6,0-7.2,0-10.7-0.1v5.4
	c0,7.1,3.3,10.6,10,10.7c3.1,0,6.3,0.1,9.5,0.2c6.7,0.1,10-3.4,10-10.7v-11C475.9,311.6,472.6,307.9,465.9,307.7z M439.2,304v-6.3
	c0-7.1-3.3-10.6-10-10.6h-20.1v52.1h11.3v-21.3h5.4c1,0,1.5,0.5,1.5,1.6v19.7c3.7,0,7.5,0,11.2,0v-20.6c0-3.4-1.3-5.6-4-6.6
	C437.6,310.9,439.1,308.2,439.2,304z M427.4,309.5c-0.3,0.3-0.7,0.5-1.1,0.5h-5.9v-15.2h5.9c0.4,0,0.8,0.2,1.1,0.5
	c0.3,0.4,0.5,0.8,0.4,1.3c0,3.8,0,7.5,0,11.4C428,308.6,427.8,309.1,427.4,309.5z M402.6,296.3v-9.2h-23.8v52.2c7.9,0,15.8,0,23.8,0
	v-9.3h-12.5v-12.5h11.7v-8.9h-11.7v-12.2H402.6z M365.9,310.8c3-1.2,4.6-3.9,4.6-8.2v-4.8c0-7.1-3.3-10.7-10-10.7
	c-6.7,0-13.4,0-20.1,0v52.7c6.9-0.2,13.8-0.3,20.7-0.4c6.6-0.1,9.9-3.5,10-10.4v-9.3C371.2,315,369.4,312,365.9,310.8z M351.7,294.9
	c2,0,4,0,6,0c0.4,0,0.8,0.2,1.1,0.5c0.6,0.6,0.6,1.3,0.2,2.3c0,3.1,0.1,5.8,0.1,8.9c0.2,0.7,0.1,1.3-0.3,1.8
	c-0.3,0.3-0.7,0.5-1.1,0.5c-2,0-4,0-6,0V294.9z M359.4,331.2c-0.3,0.3-0.7,0.5-1.1,0.5c-2.2,0-4.4,0.1-6.6,0.1v-15
	c2.2,0,4.4,0,6.6-0.1c0.4,0,0.8,0.2,1.1,0.5c0.5,0.6,0.6,1.4,0.1,2.2c-0.1,3.2-0.2,5.6-0.3,8.8C359.9,329.4,360.1,330.5,359.4,331.2
	z M333.2,304.4v-6.4c0-7.2-3.3-10.8-10-10.8c-6.7,0-13.4,0-20,0v54.6c3.7-0.3,7.5-0.5,11.2-0.8v-22c1.8-0.1,3.6-0.1,5.4-0.2
	c1,0,1.5,0.5,1.5,1.6v20.2c3.7-0.2,7.5-0.3,11.3-0.5v-21c0-3.5-1.3-5.7-4-6.6C331.6,311.3,333.1,308.6,333.2,304.4z M321.4,310.1
	c-0.3,0.3-0.7,0.5-1.1,0.5c-2,0-4,0.1-6,0.1v-15.7c2,0,4,0,6,0c0.4,0,0.8,0.2,1.1,0.5c0.4,0.4,0.5,0.8,0.4,1.3
	c0,3.9-0.1,7.6-0.1,11.5C321.9,309.1,321.9,309.7,321.4,310.1z M284.7,286.3H274c-6.6,0-10,4-10,12v47.8c3.7-0.5,7.5-1.1,11.3-1.6
	v-19.2c2.7-0.2,5.4-0.4,8.1-0.7v18.9c3.7-0.4,7.5-0.8,11.2-1.1v-44.9C294.7,290.1,291.4,286.3,284.7,286.3z M283.5,315.3
	c-2.7,0.2-5.4,0.3-8.1,0.5v-19.2c0-0.5,0.2-0.9,0.4-1.3c0.3-0.3,0.7-0.5,1.1-0.5c1.7,0,3.4-0.1,5.1-0.1c0.4,0,0.8,0.2,1.1,0.5
	c0.3,0.3,0.5,0.8,0.5,1.2V315.3z M251.1,314.9c3.1-1.6,4.6-4.9,4.6-9.8v-5.5c0-8.2-3.3-12.3-10-12.3c-6.7,0-13.4,0-20.1,0.1v66.2
	c6.9-1.6,13.8-3.1,20.7-4.4c6.6-1.3,9.9-5.7,10-13.7v-10.7C256.4,319.3,254.6,316.1,251.1,314.9z M236.9,296.7c2-0.1,3.9-0.1,6-0.2
	c0.4,0,0.8,0.2,1.1,0.5c0.4,0.5,0.5,1.2,0.4,2c0,3.8,0,7.5-0.1,11.3c0.2,0.8,0.1,1.6-0.3,2.2c-0.3,0.4-0.7,0.6-1.1,0.7
	c-2,0.2-4,0.3-6,0.5V296.7z M245,338.2c0,0.5-0.1,1-0.4,1.4c-0.3,0.4-0.7,0.7-1.1,0.8c-2.2,0.4-4.4,0.8-6.6,1.1v-18.2
	c2.2-0.2,4.4-0.5,6.6-0.8c0.4,0,0.8,0.1,1.1,0.5c0.3,0.3,0.4,0.8,0.4,1.3V338.2z"/>
<path class="st1" d="M592.1,311.7c0-2.7,0-5.5,0-8.2c0.7-10.7-2.6-16.1-9.9-16.1c-6.8,0-13.6-0.1-20.4-0.1v60.1
	c3.7,0.6,7.5,1.3,11.3,2V325c3,0.4,6.1,0.7,9.1,1.1C589.3,327.1,592.7,322.3,592.1,311.7z M580.8,298.9v15.5c0,0.1,0,0.2,0,0.3
	c0,0.1,0,0.2,0,0.3c0,0,0,0.1,0,0.1c-0.1,0.3-0.2,0.6-0.4,0.8c-0.3,0.4-0.7,0.5-1.1,0.5c-2.1-0.2-4.2-0.4-6.3-0.6v-19.3
	c2.1,0.1,4.2,0.1,6.3,0.2c0.4,0,0.8,0.2,1.1,0.6c0.1,0.1,0.1,0.2,0.2,0.3c0.1,0.3,0.2,0.6,0.2,0.9
	C580.8,298.7,580.8,298.8,580.8,298.9z"/>
<rect x="69.6" y="312.8" class="st1" width="142.6" height="5.8"/>
<rect x="605.6" y="312.8" class="st1" width="142.6" height="5.8"/>
</svg>
